<svg xmlns="http://www.w3.org/2000/svg" viewBox="0 0 92.35 116.92"><defs><style>.cls-1{fill:#405e7e;}</style></defs><g id="Layer_2" data-name="Layer 2"><g id="Layer_1-2" data-name="Layer 1"><path class="cls-1" d="M90.77,30.92s-.3-1.3-.4-1.7c0-.1-.1-.3-.1-.4s-.3-1-.4-1.3a.37.37,0,0,0-.1-.3,31.94,31.94,0,0,0-3.5-7.4C76.27,3.32,56-1.78,41.17.52c-13.4,2.1-23.5,8.7-29.1,19.3a34.94,34.94,0,0,0-2.8,7.4l-.4,1.5c0,.2-.1.3-.1.5l-.3,1.7a35.5,35.5,0,0,0-.1,9.8v1a6.16,6.16,0,0,1-.6,2.6L.57,59.62a6.41,6.41,0,0,0,.4,6,6,6,0,0,0,5.3,2.9h3.1l-1.5,7a8.87,8.87,0,0,0,.4,5.1l.3.7a15.53,15.53,0,0,1,.7,7.7,6.7,6.7,0,0,0,1.1,5,6.32,6.32,0,0,0,4.3,2.6l10.5,1.6v16.7a1.8,1.8,0,0,0,.9,1.6,2.1,2.1,0,0,0,1.1.4,1.7,1.7,0,0,0,.7-.1l46.9-16.9a2.54,2.54,0,0,0,1.2-1.1,2.21,2.21,0,0,0,0-1.6c-3.1-7.6-3.6-14.1-1.3-19.4a18.52,18.52,0,0,1,4.4-6l.4-.4C91,59.92,94.87,46.22,90.77,30.92Zm-30.4,10.2a21.59,21.59,0,0,0-4.3,12.7v.7h-5.9V44.32l3.8-7.1a2.06,2.06,0,0,0-.8-2.7,2,2,0,0,0-2.7.8l-2.3,4.2L46,35.32a2,2,0,0,0-3.5,1.9l3.8,7.1v10.2h-5.9v-.7a20.13,20.13,0,0,0-4-12.3,14.67,14.67,0,0,1-3.1-10.7A15.32,15.32,0,0,1,46.57,17a10.87,10.87,0,0,1,1.8-.1,15.19,15.19,0,0,1,15.2,15.2A16.33,16.33,0,0,1,60.37,41.12Zm-12.2,30.8a5.21,5.21,0,0,1-4.6-2.7,3.33,3.33,0,0,1-3.3-3.3v-7.4h15.8v7.4a3.33,3.33,0,0,1-3.3,3.3A5.21,5.21,0,0,1,48.17,71.92Z"/></g></g></svg>