<?xml version="1.0" encoding="UTF-8"?>
<svg width="361px" height="421px" viewBox="0 0 361 421" version="1.1" xmlns="http://www.w3.org/2000/svg" xmlns:xlink="http://www.w3.org/1999/xlink">
    <title>39D55BF8-9B5A-4810-938A-502AF8219D38</title>
    <defs>
        <path d="M85.2285473,0 L148.268657,0 C151.43399,0 154,2.57562032 154,5.75280899 L154,122.247191 C154,125.42438 151.43399,128 148.268657,128 L63.7313433,128 C60.5660098,128 58,125.42438 58,122.247191 L58,27.8467452 L85.2285473,0 Z" id="path-1"></path>
        <filter x="-69.3%" y="-28.5%" width="238.5%" height="214.1%" filterUnits="objectBoundingBox" id="filter-2">
            <feMorphology radius="10" operator="erode" in="SourceAlpha" result="shadowSpreadOuter1"></feMorphology>
            <feOffset dx="0" dy="43" in="shadowSpreadOuter1" result="shadowOffsetOuter1"></feOffset>
            <feGaussianBlur stdDeviation="25" in="shadowOffsetOuter1" result="shadowBlurOuter1"></feGaussianBlur>
            <feColorMatrix values="0 0 0 0 0.729411765   0 0 0 0 0.764705882   0 0 0 0 0.8  0 0 0 0.5 0" type="matrix" in="shadowBlurOuter1"></feColorMatrix>
        </filter>
        <path d="M58,30 L86,2 L86,22.8 C86,26.7764502 82.7764502,30 78.8,30 L58,30 L58,30 Z" id="path-3"></path>
        <filter x="-35.7%" y="-28.6%" width="171.4%" height="171.4%" filterUnits="objectBoundingBox" id="filter-4">
            <feOffset dx="0" dy="2" in="SourceAlpha" result="shadowOffsetOuter1"></feOffset>
            <feGaussianBlur stdDeviation="3" in="shadowOffsetOuter1" result="shadowBlurOuter1"></feGaussianBlur>
            <feColorMatrix values="0 0 0 0 0.729411765   0 0 0 0 0.764705882   0 0 0 0 0.8  0 0 0 0.5 0" type="matrix" in="shadowBlurOuter1"></feColorMatrix>
        </filter>
        <linearGradient x1="104.983836%" y1="14.7799745%" x2="1.23276003%" y2="84.2252917%" id="linearGradient-5">
            <stop stop-color="#6081A2" offset="0%"></stop>
            <stop stop-color="#1F466C" offset="100%"></stop>
        </linearGradient>
        <rect id="path-6" x="32" y="48" width="56" height="47" rx="6.6"></rect>
        <filter x="-136.6%" y="-77.7%" width="289.3%" height="325.5%" filterUnits="objectBoundingBox" id="filter-7">
            <feMorphology radius="14" operator="erode" in="SourceAlpha" result="shadowSpreadOuter1"></feMorphology>
            <feOffset dx="0" dy="40" in="shadowSpreadOuter1" result="shadowOffsetOuter1"></feOffset>
            <feGaussianBlur stdDeviation="23.5" in="shadowOffsetOuter1" result="shadowBlurOuter1"></feGaussianBlur>
            <feColorMatrix values="0 0 0 0 0.729411765   0 0 0 0 0.764705882   0 0 0 0 0.8  0 0 0 0.5 0" type="matrix" in="shadowBlurOuter1"></feColorMatrix>
        </filter>
        <rect id="path-8" x="202" y="138.032389" width="122" height="109" rx="4"></rect>
        <filter x="-29.5%" y="-20.2%" width="159.0%" height="180.7%" filterUnits="objectBoundingBox" id="filter-9">
            <feMorphology radius="10.5" operator="erode" in="SourceAlpha" result="shadowSpreadOuter1"></feMorphology>
            <feOffset dx="0" dy="30" in="shadowSpreadOuter1" result="shadowOffsetOuter1"></feOffset>
            <feGaussianBlur stdDeviation="17.5" in="shadowOffsetOuter1" result="shadowBlurOuter1"></feGaussianBlur>
            <feColorMatrix values="0 0 0 0 0.729411765   0 0 0 0 0.764705882   0 0 0 0 0.8  0 0 0 0.5 0" type="matrix" in="shadowBlurOuter1"></feColorMatrix>
        </filter>
        <rect id="path-10" x="31" y="246.032389" width="98" height="128" rx="4"></rect>
        <filter x="-36.7%" y="-17.2%" width="173.5%" height="168.8%" filterUnits="objectBoundingBox" id="filter-11">
            <feMorphology radius="10.5" operator="erode" in="SourceAlpha" result="shadowSpreadOuter1"></feMorphology>
            <feOffset dx="0" dy="30" in="shadowSpreadOuter1" result="shadowOffsetOuter1"></feOffset>
            <feGaussianBlur stdDeviation="17.5" in="shadowOffsetOuter1" result="shadowBlurOuter1"></feGaussianBlur>
            <feColorMatrix values="0 0 0 0 0.729411765   0 0 0 0 0.764705882   0 0 0 0 0.8  0 0 0 0.5 0" type="matrix" in="shadowBlurOuter1"></feColorMatrix>
        </filter>
        <linearGradient x1="104.983836%" y1="4.16478044%" x2="1.23276003%" y2="94.5406763%" id="linearGradient-12">
            <stop stop-color="#6081A2" offset="0%"></stop>
            <stop stop-color="#1F466C" offset="100%"></stop>
        </linearGradient>
        <linearGradient x1="104.983836%" y1="0%" x2="1.23276003%" y2="98.5878292%" id="linearGradient-13">
            <stop stop-color="#6081A2" offset="0%"></stop>
            <stop stop-color="#1F466C" offset="100%"></stop>
        </linearGradient>
        <rect id="path-14" x="0" y="232" width="50" height="50" rx="8"></rect>
        <filter x="-72.0%" y="-44.0%" width="244.0%" height="276.0%" filterUnits="objectBoundingBox" id="filter-15">
            <feMorphology radius="10.5" operator="erode" in="SourceAlpha" result="shadowSpreadOuter1"></feMorphology>
            <feOffset dx="0" dy="30" in="shadowSpreadOuter1" result="shadowOffsetOuter1"></feOffset>
            <feGaussianBlur stdDeviation="17.5" in="shadowOffsetOuter1" result="shadowBlurOuter1"></feGaussianBlur>
            <feColorMatrix values="0 0 0 0 0.729411765   0 0 0 0 0.764705882   0 0 0 0 0.8  0 0 0 0.5 0" type="matrix" in="shadowBlurOuter1"></feColorMatrix>
        </filter>
        <linearGradient x1="103.30504%" y1="0%" x2="2.72174795%" y2="98.5878292%" id="linearGradient-16">
            <stop stop-color="#6081A2" offset="0%"></stop>
            <stop stop-color="#1F466C" offset="100%"></stop>
        </linearGradient>
    </defs>
    <g id="Desktop" stroke="none" stroke-width="1" fill="none" fill-rule="evenodd">
        <g id="Home" transform="translate(-839.000000, -237.000000)">
            <g id="Hero-Graphic" transform="translate(854.000000, 239.000000)">
                <g id="Path-Copy">
                    <use fill="black" fill-opacity="1" filter="url(#filter-2)" xlink:href="#path-1"></use>
                    <use fill="#FFFFFF" fill-rule="evenodd" xlink:href="#path-1"></use>
                </g>
                <path d="M81.4585938,54.92 L81.4585938,39.56375 L81.3003906,39.56375 L74.9933594,41.8946094 L74.9933594,44.1094531 L78.9167969,42.6750781 L78.9167969,54.92 L81.4585938,54.92 Z M93.1895313,55.1414844 C93.9629688,55.1414844 94.6590625,55.0114063 95.2778125,54.75125 C95.8965625,54.4910938 96.4203907,54.1061328 96.8492969,53.5963672 C97.2782032,53.0866016 97.6069141,52.4537891 97.8354297,51.6979297 C98.0639453,50.9420703 98.1782032,50.0684375 98.1782032,49.0770313 L98.1782032,49.0770313 L98.1782032,45.4067187 C98.1782032,44.4153125 98.0621875,43.5416797 97.8301563,42.7858203 C97.598125,42.0299609 97.2658985,41.3971484 96.8334766,40.8873828 C96.4010547,40.3776172 95.8754688,39.9926563 95.2567188,39.7325 C94.6379688,39.4723437 93.941875,39.3422656 93.1684375,39.3422656 C92.4020313,39.3422656 91.711211,39.4723437 91.0959766,39.7325 C90.4807422,39.9926563 89.9569141,40.3776172 89.5244922,40.8873828 C89.0920703,41.3971484 88.7598438,42.0299609 88.5278125,42.7858203 C88.2957813,43.5416797 88.1797657,44.4153125 88.1797657,45.4067187 L88.1797657,45.4067187 L88.1797657,49.0770313 C88.1797657,50.0684375 88.2975391,50.9420703 88.533086,51.6979297 C88.7686328,52.4537891 89.1026172,53.0866016 89.5350391,53.5963672 C89.967461,54.1061328 90.4930469,54.4910938 91.1117969,54.75125 C91.7305469,55.0114063 92.423125,55.1414844 93.1895313,55.1414844 Z M90.7110157,48.1172656 L90.7110157,44.9426563 C90.7110157,43.7332813 90.9149219,42.8367969 91.3227344,42.2532031 C91.7305469,41.6696094 92.3457813,41.3778125 93.1684375,41.3778125 C93.941875,41.3778125 94.5307422,41.6291797 94.9350391,42.1319141 C95.339336,42.6346484 95.5696094,43.4098438 95.6258594,44.4575 L95.6258594,44.4575 L90.7110157,48.1172656 Z M93.1895313,53.1164844 C91.6778125,53.1164844 90.8586719,52.1110156 90.7321094,50.1000781 L90.7321094,50.1000781 L95.6469532,46.4403125 L95.6469532,49.52 C95.6469532,51.9176563 94.8278125,53.1164844 93.1895313,53.1164844 Z M106.871641,55.1414844 C107.645078,55.1414844 108.341172,55.0114063 108.959922,54.75125 C109.578672,54.4910938 110.1025,54.1061328 110.531406,53.5963672 C110.960313,53.0866016 111.289023,52.4537891 111.517539,51.6979297 C111.746055,50.9420703 111.860313,50.0684375 111.860313,49.0770313 L111.860313,49.0770313 L111.860313,45.4067187 C111.860313,44.4153125 111.744297,43.5416797 111.512266,42.7858203 C111.280234,42.0299609 110.948008,41.3971484 110.515586,40.8873828 C110.083164,40.3776172 109.557578,39.9926563 108.938828,39.7325 C108.320078,39.4723437 107.623984,39.3422656 106.850547,39.3422656 C106.084141,39.3422656 105.39332,39.4723437 104.778086,39.7325 C104.162852,39.9926563 103.639023,40.3776172 103.206602,40.8873828 C102.77418,41.3971484 102.441953,42.0299609 102.209922,42.7858203 C101.977891,43.5416797 101.861875,44.4153125 101.861875,45.4067187 L101.861875,45.4067187 L101.861875,49.0770313 C101.861875,50.0684375 101.979648,50.9420703 102.215195,51.6979297 C102.450742,52.4537891 102.784727,53.0866016 103.217148,53.5963672 C103.64957,54.1061328 104.175156,54.4910938 104.793906,54.75125 C105.412656,55.0114063 106.105234,55.1414844 106.871641,55.1414844 Z M104.393125,48.1172656 L104.393125,44.9426563 C104.393125,43.7332813 104.597031,42.8367969 105.004844,42.2532031 C105.412656,41.6696094 106.027891,41.3778125 106.850547,41.3778125 C107.623984,41.3778125 108.212852,41.6291797 108.617148,42.1319141 C109.021445,42.6346484 109.251719,43.4098438 109.307969,44.4575 L109.307969,44.4575 L104.393125,48.1172656 Z M106.871641,53.1164844 C105.359922,53.1164844 104.540781,52.1110156 104.414219,50.1000781 L104.414219,50.1000781 L109.329063,46.4403125 L109.329063,49.52 C109.329063,51.9176563 108.509922,53.1164844 106.871641,53.1164844 Z M122.504922,54.92 L122.504922,39.56375 L122.346719,39.56375 L116.039688,41.8946094 L116.039688,44.1094531 L119.963125,42.6750781 L119.963125,54.92 L122.504922,54.92 Z M134.235859,55.1414844 C135.009297,55.1414844 135.705391,55.0114063 136.324141,54.75125 C136.942891,54.4910938 137.466719,54.1061328 137.895625,53.5963672 C138.324531,53.0866016 138.653242,52.4537891 138.881758,51.6979297 C139.110274,50.9420703 139.224531,50.0684375 139.224531,49.0770313 L139.224531,49.0770313 L139.224531,45.4067187 C139.224531,44.4153125 139.108516,43.5416797 138.876484,42.7858203 C138.644453,42.0299609 138.312227,41.3971484 137.879805,40.8873828 C137.447383,40.3776172 136.921797,39.9926563 136.303047,39.7325 C135.684297,39.4723437 134.988203,39.3422656 134.214766,39.3422656 C133.448359,39.3422656 132.757539,39.4723437 132.142305,39.7325 C131.52707,39.9926563 131.003242,40.3776172 130.57082,40.8873828 C130.138399,41.3971484 129.806172,42.0299609 129.574141,42.7858203 C129.342109,43.5416797 129.226094,44.4153125 129.226094,45.4067187 L129.226094,45.4067187 L129.226094,49.0770313 C129.226094,50.0684375 129.343867,50.9420703 129.579414,51.6979297 C129.814961,52.4537891 130.148945,53.0866016 130.581367,53.5963672 C131.013789,54.1061328 131.539375,54.4910938 132.158125,54.75125 C132.776875,55.0114063 133.469453,55.1414844 134.235859,55.1414844 Z M131.757344,48.1172656 L131.757344,44.9426563 C131.757344,43.7332813 131.96125,42.8367969 132.369063,42.2532031 C132.776875,41.6696094 133.392109,41.3778125 134.214766,41.3778125 C134.988203,41.3778125 135.57707,41.6291797 135.981367,42.1319141 C136.385664,42.6346484 136.615938,43.4098438 136.672188,44.4575 L136.672188,44.4575 L131.757344,48.1172656 Z M134.235859,53.1164844 C132.724141,53.1164844 131.905,52.1110156 131.778438,50.1000781 L131.778438,50.1000781 L136.693281,46.4403125 L136.693281,49.52 C136.693281,51.9176563 135.874141,53.1164844 134.235859,53.1164844 Z M79.5074219,81.0614844 C80.2808594,81.0614844 80.9769531,80.9314063 81.5957031,80.67125 C82.2144531,80.4110937 82.7382813,80.0261328 83.1671875,79.5163672 C83.5960938,79.0066016 83.9248047,78.3737891 84.1533203,77.6179297 C84.3818359,76.8620703 84.4960938,75.9884375 84.4960938,74.9970313 L84.4960938,74.9970313 L84.4960938,71.3267187 C84.4960938,70.3353125 84.3800781,69.4616797 84.1480469,68.7058203 C83.9160156,67.9499609 83.5837891,67.3171484 83.1513672,66.8073828 C82.7189453,66.2976172 82.1933594,65.9126563 81.5746094,65.6525 C80.9558594,65.3923438 80.2597656,65.2622656 79.4863281,65.2622656 C78.7199219,65.2622656 78.0291016,65.3923438 77.4138672,65.6525 C76.7986328,65.9126563 76.2748047,66.2976172 75.8423828,66.8073828 C75.4099609,67.3171484 75.0777344,67.9499609 74.8457031,68.7058203 C74.6136719,69.4616797 74.4976563,70.3353125 74.4976563,71.3267187 L74.4976563,71.3267187 L74.4976563,74.9970313 C74.4976563,75.9884375 74.6154297,76.8620703 74.8509766,77.6179297 C75.0865234,78.3737891 75.4205078,79.0066016 75.8529297,79.5163672 C76.2853516,80.0261328 76.8109375,80.4110937 77.4296875,80.67125 C78.0484375,80.9314063 78.7410156,81.0614844 79.5074219,81.0614844 Z M77.0289063,74.0372656 L77.0289063,70.8626562 C77.0289063,69.6532813 77.2328125,68.7567969 77.640625,68.1732031 C78.0484375,67.5896094 78.6636719,67.2978125 79.4863281,67.2978125 C80.2597656,67.2978125 80.8486328,67.5491797 81.2529297,68.0519141 C81.6572266,68.5546484 81.8875,69.3298437 81.94375,70.3775 L81.94375,70.3775 L77.0289063,74.0372656 Z M79.5074219,79.0364844 C77.9957031,79.0364844 77.1765625,78.0310156 77.05,76.0200781 L77.05,76.0200781 L81.9648438,72.3603125 L81.9648438,75.44 C81.9648438,77.8376562 81.1457031,79.0364844 79.5074219,79.0364844 Z M95.1407032,80.84 L95.1407032,65.48375 L94.9825,65.48375 L88.6754688,67.8146094 L88.6754688,70.0294531 L92.5989063,68.5950781 L92.5989063,80.84 L95.1407032,80.84 Z M108.822813,80.84 L108.822813,65.48375 L108.664609,65.48375 L102.357578,67.8146094 L102.357578,70.0294531 L106.281016,68.5950781 L106.281016,80.84 L108.822813,80.84 Z M120.55375,81.0614844 C121.327188,81.0614844 122.023281,80.9314063 122.642031,80.67125 C123.260781,80.4110937 123.784609,80.0261328 124.213516,79.5163672 C124.642422,79.0066016 124.971133,78.3737891 125.199649,77.6179297 C125.428164,76.8620703 125.542422,75.9884375 125.542422,74.9970313 L125.542422,74.9970313 L125.542422,71.3267187 C125.542422,70.3353125 125.426406,69.4616797 125.194375,68.7058203 C124.962344,67.9499609 124.630117,67.3171484 124.197695,66.8073828 C123.765274,66.2976172 123.239688,65.9126563 122.620938,65.6525 C122.002188,65.3923438 121.306094,65.2622656 120.532656,65.2622656 C119.76625,65.2622656 119.07543,65.3923438 118.460195,65.6525 C117.844961,65.9126563 117.321133,66.2976172 116.888711,66.8073828 C116.456289,67.3171484 116.124063,67.9499609 115.892031,68.7058203 C115.66,69.4616797 115.543984,70.3353125 115.543984,71.3267187 L115.543984,71.3267187 L115.543984,74.9970313 C115.543984,75.9884375 115.661758,76.8620703 115.897305,77.6179297 C116.132852,78.3737891 116.466836,79.0066016 116.899258,79.5163672 C117.33168,80.0261328 117.857266,80.4110937 118.476016,80.67125 C119.094766,80.9314063 119.787344,81.0614844 120.55375,81.0614844 Z M118.075234,74.0372656 L118.075234,70.8626562 C118.075234,69.6532813 118.279141,68.7567969 118.686953,68.1732031 C119.094766,67.5896094 119.71,67.2978125 120.532656,67.2978125 C121.306094,67.2978125 121.894961,67.5491797 122.299258,68.0519141 C122.703555,68.5546484 122.933828,69.3298437 122.990078,70.3775 L122.990078,70.3775 L118.075234,74.0372656 Z M120.55375,79.0364844 C119.042031,79.0364844 118.222891,78.0310156 118.096328,76.0200781 L118.096328,76.0200781 L123.011172,72.3603125 L123.011172,75.44 C123.011172,77.8376562 122.192031,79.0364844 120.55375,79.0364844 Z M136.187031,80.84 L136.187031,65.48375 L136.028828,65.48375 L129.721797,67.8146094 L129.721797,70.0294531 L133.645234,68.5950781 L133.645234,80.84 L136.187031,80.84 Z M81.4585938,106.76 L81.4585938,91.40375 L81.3003906,91.40375 L74.9933594,93.7346094 L74.9933594,95.9494531 L78.9167969,94.5150781 L78.9167969,106.76 L81.4585938,106.76 Z M95.1407032,106.76 L95.1407032,91.40375 L94.9825,91.40375 L88.6754688,93.7346094 L88.6754688,95.9494531 L92.5989063,94.5150781 L92.5989063,106.76 L95.1407032,106.76 Z M106.871641,106.981484 C107.645078,106.981484 108.341172,106.851406 108.959922,106.59125 C109.578672,106.331094 110.1025,105.946133 110.531406,105.436367 C110.960313,104.926602 111.289023,104.293789 111.517539,103.53793 C111.746055,102.78207 111.860313,101.908437 111.860313,100.917031 L111.860313,100.917031 L111.860313,97.2467188 C111.860313,96.2553125 111.744297,95.3816797 111.512266,94.6258203 C111.280234,93.8699609 110.948008,93.2371484 110.515586,92.7273828 C110.083164,92.2176172 109.557578,91.8326563 108.938828,91.5725 C108.320078,91.3123437 107.623984,91.1822656 106.850547,91.1822656 C106.084141,91.1822656 105.39332,91.3123437 104.778086,91.5725 C104.162852,91.8326563 103.639023,92.2176172 103.206602,92.7273828 C102.77418,93.2371484 102.441953,93.8699609 102.209922,94.6258203 C101.977891,95.3816797 101.861875,96.2553125 101.861875,97.2467188 L101.861875,97.2467188 L101.861875,100.917031 C101.861875,101.908437 101.979648,102.78207 102.215195,103.53793 C102.450742,104.293789 102.784727,104.926602 103.217148,105.436367 C103.64957,105.946133 104.175156,106.331094 104.793906,106.59125 C105.412656,106.851406 106.105234,106.981484 106.871641,106.981484 Z M104.393125,99.9572656 L104.393125,96.7826563 C104.393125,95.5732813 104.597031,94.6767969 105.004844,94.0932031 C105.412656,93.5096094 106.027891,93.2178125 106.850547,93.2178125 C107.623984,93.2178125 108.212852,93.4691797 108.617148,93.9719141 C109.021445,94.4746484 109.251719,95.2498437 109.307969,96.2975 L109.307969,96.2975 L104.393125,99.9572656 Z M106.871641,104.956484 C105.359922,104.956484 104.540781,103.951016 104.414219,101.940078 L104.414219,101.940078 L109.329063,98.2803125 L109.329063,101.36 C109.329063,103.757656 108.509922,104.956484 106.871641,104.956484 Z M120.55375,106.981484 C121.327188,106.981484 122.023281,106.851406 122.642031,106.59125 C123.260781,106.331094 123.784609,105.946133 124.213516,105.436367 C124.642422,104.926602 124.971133,104.293789 125.199649,103.53793 C125.428164,102.78207 125.542422,101.908437 125.542422,100.917031 L125.542422,100.917031 L125.542422,97.2467188 C125.542422,96.2553125 125.426406,95.3816797 125.194375,94.6258203 C124.962344,93.8699609 124.630117,93.2371484 124.197695,92.7273828 C123.765274,92.2176172 123.239688,91.8326563 122.620938,91.5725 C122.002188,91.3123437 121.306094,91.1822656 120.532656,91.1822656 C119.76625,91.1822656 119.07543,91.3123437 118.460195,91.5725 C117.844961,91.8326563 117.321133,92.2176172 116.888711,92.7273828 C116.456289,93.2371484 116.124063,93.8699609 115.892031,94.6258203 C115.66,95.3816797 115.543984,96.2553125 115.543984,97.2467188 L115.543984,97.2467188 L115.543984,100.917031 C115.543984,101.908437 115.661758,102.78207 115.897305,103.53793 C116.132852,104.293789 116.466836,104.926602 116.899258,105.436367 C117.33168,105.946133 117.857266,106.331094 118.476016,106.59125 C119.094766,106.851406 119.787344,106.981484 120.55375,106.981484 Z M118.075234,99.9572656 L118.075234,96.7826563 C118.075234,95.5732813 118.279141,94.6767969 118.686953,94.0932031 C119.094766,93.5096094 119.71,93.2178125 120.532656,93.2178125 C121.306094,93.2178125 121.894961,93.4691797 122.299258,93.9719141 C122.703555,94.4746484 122.933828,95.2498437 122.990078,96.2975 L122.990078,96.2975 L118.075234,99.9572656 Z M120.55375,104.956484 C119.042031,104.956484 118.222891,103.951016 118.096328,101.940078 L118.096328,101.940078 L123.011172,98.2803125 L123.011172,101.36 C123.011172,103.757656 122.192031,104.956484 120.55375,104.956484 Z M136.187031,106.76 L136.187031,91.40375 L136.028828,91.40375 L129.721797,93.7346094 L129.721797,95.9494531 L133.645234,94.5150781 L133.645234,106.76 L136.187031,106.76 Z" id="100100110111001" fill="#CCD7E1" fill-rule="nonzero"></path>
                <g id="Path-18">
                    <use fill="black" fill-opacity="1" filter="url(#filter-4)" xlink:href="#path-3"></use>
                    <use fill="#FFFFFF" fill-rule="evenodd" xlink:href="#path-3"></use>
                </g>
                <g id="Rectangle-Copy-16">
                    <use fill="black" fill-opacity="1" filter="url(#filter-7)" xlink:href="#path-6"></use>
                    <use fill="url(#linearGradient-5)" fill-rule="evenodd" xlink:href="#path-6"></use>
                </g>
                <path d="M55.184154,63.0047182 C54.8023794,63.0340628 54.4316238,63.2057828 54.1515143,63.4829275 L46.5258666,70.6839814 C45.8247111,71.3568374 45.8247111,72.6835565 46.5258666,73.3563226 L54.1515143,80.5574574 C54.8094992,81.1942178 55.9543597,81.1356186 56.5516835,80.4345881 C57.1490081,79.7336476 57.0903067,78.517556 56.4286174,77.8851163 L50.2063007,72.0342842 L56.4286174,66.1551877 C56.9599234,65.6615499 57.1487344,64.7948033 56.875599,64.1033143 C56.6024635,63.4118253 55.8879759,62.9477662 55.184154,63.0047182 Z" id="Path" fill="#FFFFFF"></path>
                <path d="M63.603328,63.0025165 C62.9348109,63.0387066 62.3090362,63.5371041 62.0889107,64.2087371 C61.8687852,64.8803251 62.0678285,65.68389 62.5706119,66.1533714 L68.7933884,72.0331873 L62.5706119,77.8847352 C61.9088736,78.5172522 61.8501679,79.7334927 62.4475367,80.4345189 C63.0449046,81.1356352 64.1898497,81.1942416 64.8478833,80.5574033 L72.4740946,73.3553874 C73.1753018,72.682539 73.1753018,71.3556576 72.4740946,70.6827192 L64.8478833,63.4807843 C64.5157076,63.1532186 64.0558767,62.9765082 63.603328,63.0025165 L63.603328,63.0025165 Z" id="Path" fill="#FFFFFF"></path>
                <path d="M238,62 C256.589905,62 271.695198,76.9193944 271.995445,95.4377478 L272,96 L272,122 C272,123.104569 271.104569,124 270,124 C268.945638,124 268.081835,123.184122 268.005486,122.149262 L268,122 L268,96 C268,79.5971429 254.835828,66.2689429 238.496105,66.0040191 L238,66 L170.5,66 C169.395431,66 168.5,65.1045695 168.5,64 C168.5,62.9456382 169.315878,62.0818349 170.350738,62.0054857 L170.5,62 L238,62 Z" id="Path-19" fill="#CCD7E1" fill-rule="nonzero"></path>
                <path d="M145,190 C163.589905,190 178.695198,204.919394 178.995445,223.437748 L179,224 L179,229.867737 C179,230.972306 178.104569,231.867737 177,231.867737 C175.945638,231.867737 175.081835,231.051859 175.005486,230.016999 L175,229.867737 L175,224 C175,207.597143 161.835828,194.268943 145.496105,194.004019 L145,194 L77.5,194 C76.3954305,194 75.5,193.104569 75.5,192 C75.5,190.945638 76.3158778,190.081835 77.3507377,190.005486 L77.5,190 L145,190 Z" id="Path" fill="#CCD7E1" fill-rule="nonzero" transform="translate(127.250000, 210.933868) scale(-1, 1) translate(-127.250000, -210.933868) "></path>
                <g id="Rectangle-Copy-22">
                    <use fill="black" fill-opacity="1" filter="url(#filter-9)" xlink:href="#path-8"></use>
                    <use fill="#FFFFFF" fill-rule="evenodd" xlink:href="#path-8"></use>
                </g>
                <g id="Rectangle-Copy-23">
                    <use fill="black" fill-opacity="1" filter="url(#filter-11)" xlink:href="#path-10"></use>
                    <use fill="#FFFFFF" fill-rule="evenodd" xlink:href="#path-10"></use>
                </g>
                <path d="M141.627494,346.382979 C141.331071,346.382979 141.093932,346.323706 140.797509,346.264434 C140.026809,346.027345 139.433963,345.553167 139.018971,344.8419 L136.529016,340.337208 C136.529016,340.277936 136.469732,340.218664 136.410447,340.218664 C136.232593,340.040847 136.054739,340.040847 135.995455,340.040847 C135.876886,340.040847 135.699032,340.040847 135.580462,340.218664 L131.371254,344.426994 C130.837693,344.960445 130.066993,345.316078 129.296293,345.316078 C128.525593,345.316078 127.754893,345.019717 127.221331,344.426994 L124.968515,342.174648 C124.434954,341.641198 124.079246,340.870659 124.079246,340.100119 C124.079246,339.32958 124.375669,338.559041 124.968515,338.02559 L129.177723,333.81726 C129.237008,333.757988 129.237008,333.757988 129.296293,333.698716 C129.414862,333.520899 129.355577,333.343082 129.355577,333.224538 C129.355577,333.105993 129.237008,332.987449 129.059154,332.868904 L124.553523,330.379469 C123.782823,329.964563 123.249261,329.253296 123.071407,328.423485 C122.7157,326.823134 123.723538,325.222783 125.324223,324.926421 L145.30314,320.599547 C145.718133,320.481002 146.133125,320.481002 146.548117,320.599547 C148.148802,320.95518 149.156641,322.555531 148.800933,324.09661 L144.53244,344.071361 C144.354586,344.901172 143.821025,345.612439 143.050325,346.027345 C142.635332,346.264434 142.161055,346.382979 141.627494,346.382979 Z M159.851217,328.595745 C159.732668,328.595745 159.554846,328.595745 159.436298,328.540655 L154.457268,326.667593 C153.864527,326.447233 153.568156,325.786153 153.805253,325.235253 C154.042349,324.684352 154.753639,324.408902 155.346381,324.629262 L160.266136,326.502323 C160.858877,326.722684 161.155248,327.383764 160.918152,327.934664 C160.740329,328.320295 160.266136,328.595745 159.851217,328.595745 Z M151.647543,318.893617 C151.359335,318.893617 151.128768,318.775038 150.898202,318.597168 C150.437069,318.18214 150.321786,317.411373 150.782919,316.937055 L154.126131,312.846062 C154.529623,312.371744 155.278963,312.253164 155.740096,312.727483 C156.201229,313.142511 156.316512,313.913278 155.855379,314.387596 L152.512167,318.478589 C152.339242,318.775038 151.993392,318.893617 151.647543,318.893617 Z M143.723628,316.468085 C143.338811,316.468085 143.008968,316.300982 142.789072,315.966776 L140.150327,311.733501 C139.820484,311.232192 139.985406,310.50808 140.48017,310.173874 C140.974935,309.839668 141.689595,310.006771 142.019438,310.50808 L144.658183,314.741355 C144.988026,315.242663 144.823105,315.966776 144.32834,316.300982 C144.108445,316.412384 143.943523,316.468085 143.723628,316.468085 Z" id="Shape" fill="url(#linearGradient-12)" fill-rule="nonzero"></path>
                <path d="M109.554138,274.959259 C110.93485,274.959259 112.054138,276.078547 112.054138,277.459259 C112.054138,278.784742 111.022602,279.869298 109.718514,279.953941 L109.554138,279.959259 L49.5,279.959259 C48.1192881,279.959259 47,278.839971 47,277.459259 C47,276.133776 48.0315359,275.04922 49.3356243,274.964577 L49.5,274.959259 L109.554138,274.959259 Z" id="Path-20" fill="#CCD7E1" fill-rule="nonzero"></path>
                <path d="M49.5021219,290.95926 L97.5021219,291.000001 C98.8828333,291.001173 100.001171,292.121411 100,293.502122 C99.9988741,294.827605 98.966418,295.911284 97.6622582,295.994821 L97.4978781,295.999999 L49.4978781,295.95926 C48.1171667,295.958086 46.998829,294.837848 47,293.457137 C47.0011259,292.131654 48.033582,291.047975 49.3377418,290.964438 L49.5021219,290.95926 Z" id="Path-20-Copy" fill="#CCD7E1" fill-rule="nonzero"></path>
                <path d="M109.554138,306.959259 C110.93485,306.959259 112.054138,308.078547 112.054138,309.459259 C112.054138,310.784742 111.022602,311.869298 109.718514,311.953941 L109.554138,311.959259 L49.5,311.959259 C48.1192881,311.959259 47,310.839971 47,309.459259 C47,308.133776 48.0315359,307.04922 49.3356243,306.964577 L49.5,306.959259 L109.554138,306.959259 Z" id="Path-20-Copy-2" fill="#CCD7E1" fill-rule="nonzero"></path>
                <g id="Rectangle-Copy-24">
                    <use fill="black" fill-opacity="1" filter="url(#filter-15)" xlink:href="#path-14"></use>
                    <use fill="url(#linearGradient-13)" fill-rule="evenodd" xlink:href="#path-14"></use>
                </g>
                <path d="M34.2816761,255.660202 L21.5540406,247.272865 C20.4685733,246.556359 19,247.336086 19,248.621582 L19,265.375184 C19,266.681754 20.4685733,267.440407 21.5540406,266.723901 L34.2816761,258.336564 C35.2394413,257.725426 35.2394413,256.292414 34.2816761,255.660202 Z" id="Path-Copy-6" fill="#FFFFFF" fill-rule="nonzero"></path>
                <path d="M109.554138,322.959259 C110.93485,322.959259 112.054138,324.078547 112.054138,325.459259 C112.054138,326.784742 111.022602,327.869298 109.718514,327.953941 L109.554138,327.959259 L49.5,327.959259 C48.1192881,327.959259 47,326.839971 47,325.459259 C47,324.133776 48.0315359,323.04922 49.3356243,322.964577 L49.5,322.959259 L109.554138,322.959259 Z" id="Path-20-Copy-3" fill="#CCD7E1" fill-rule="nonzero"></path>
                <path d="M49.5029101,338.959261 L84.5029101,339.000002 C85.883621,339.001609 87.0016055,340.122199 87,341.50291 C86.9984554,342.828393 85.9656577,343.911746 84.6614717,343.994872 L84.4970899,343.999998 L49.4970899,343.959261 C48.116379,343.95765 46.9983945,342.83706 47,341.456349 C47.0015446,340.130866 48.0343423,339.047513 49.3385283,338.964387 L49.5029101,338.959261 Z" id="Path-20-Copy-4" fill="#CCD7E1" fill-rule="nonzero"></path>
                <rect id="Rectangle" fill="#CCD7E1" x="220" y="181" width="14" height="48" rx="2"></rect>
                <rect id="Rectangle-Copy" fill="#CCD7E1" x="244" y="195" width="14" height="34" rx="2"></rect>
                <rect id="Rectangle-Copy-14" fill="#CCD7E1" x="268" y="182" width="14" height="47" rx="2"></rect>
                <rect id="Rectangle-Copy-15" fill="#CCD7E1" x="292" y="195" width="14" height="34" rx="2"></rect>
                <g id="Group" transform="translate(314.000000, 237.500000) scale(-1, 1) translate(-314.000000, -237.500000) translate(282.000000, 205.000000)" fill="url(#linearGradient-16)" fill-rule="nonzero">
                    <path d="M40.4210526,0 C46.6943506,0 52.7513279,2.42048496 57.0777402,7.0414108 C61.6204732,11.6623366 64,17.603527 64,23.9848055 C64,30.3660841 61.6204732,36.5273185 57.0777402,40.9282003 C52.9676485,45.5491261 46.9106712,48.1896552 40.6373732,48.1896552 C34.9061449,48.1896552 29.3554683,46.1694011 25.1399959,42.2966827 L22.9765249,44.4499845 C24.0342184,46.5489426 23.6991407,49.267721 21.9712919,51.1561866 L9.75311005,63.296146 C8.68133971,64.3610548 7.18086124,65 5.68038278,65 C4.17990431,65 2.67942584,64.3610548 1.6076555,63.296146 C-0.535885167,61.1663286 -0.535885167,57.5456389 1.6076555,55.2028398 L13.8258373,43.0628803 C15.6024586,41.2976332 18.4098361,40.995468 20.661381,42.1563847 L22.9025392,39.9270888 C19.1929187,35.4696599 16.8421053,29.8192049 16.8421053,23.9848055 C16.8421053,17.603527 19.2216321,11.4422926 23.764365,7.0414108 C28.307098,2.42048496 34.1477547,0 40.4210526,0 Z M40.6373732,3.08061723 C35.2293578,3.08061723 30.037663,5.2810581 26.1438918,9.24185168 C22.2501207,13.2026453 20.0869145,18.4837034 20.0869145,23.9848055 C20.0869145,29.4859077 22.2501207,34.7669658 26.1438918,38.7277594 C30.037663,42.688553 35.2293578,44.8889939 40.6373732,44.8889939 C46.0453887,44.8889939 51.2370835,42.688553 55.1308547,38.7277594 C59.0246258,34.7669658 61.187832,29.4859077 61.187832,23.9848055 C61.187832,18.4837034 59.0246258,13.2026453 55.1308547,9.24185168 C51.2370835,5.2810581 46.0453887,3.08061723 40.6373732,3.08061723 Z" id="Combined-Shape"></path>
                </g>
                <polygon id="Path-21" fill="#CCD7E1" fill-rule="nonzero" points="227.503871 164.136221 251.017 177.852 275 164.862721 299.476283 178.120708 298.523717 179.879292 275 167.137 250.981844 180.147113 226.496129 165.863779"></polygon>
                <path d="M227,159 C223.686292,159 221,161.686292 221,165 C221,168.313708 223.686292,171 227,171 C230.313708,171 233,168.313708 233,165 C233,161.686292 230.313708,159 227,159 Z M227,161 C229.209139,161 231,162.790861 231,165 C231,167.209139 229.209139,169 227,169 C224.790861,169 223,167.209139 223,165 C223,162.790861 224.790861,161 227,161 Z" id="Oval" fill="#CCD7E1" fill-rule="nonzero"></path>
                <path d="M251,173 C247.686292,173 245,175.686292 245,179 C245,182.313708 247.686292,185 251,185 C254.313708,185 257,182.313708 257,179 C257,175.686292 254.313708,173 251,173 Z M251,175 C253.209139,175 255,176.790861 255,179 C255,181.209139 253.209139,183 251,183 C248.790861,183 247,181.209139 247,179 C247,176.790861 248.790861,175 251,175 Z" id="Oval-Copy" fill="#CCD7E1" fill-rule="nonzero"></path>
                <path d="M275,160 C271.686292,160 269,162.686292 269,166 C269,169.313708 271.686292,172 275,172 C278.313708,172 281,169.313708 281,166 C281,162.686292 278.313708,160 275,160 Z M275,162 C277.209139,162 279,163.790861 279,166 C279,168.209139 277.209139,170 275,170 C272.790861,170 271,168.209139 271,166 C271,163.790861 272.790861,162 275,162 Z" id="Oval-Copy-3" fill="#CCD7E1" fill-rule="nonzero"></path>
                <path d="M299,173 C295.686292,173 293,175.686292 293,179 C293,182.313708 295.686292,185 299,185 C302.313708,185 305,182.313708 305,179 C305,175.686292 302.313708,173 299,173 Z M299,175 C301.209139,175 303,176.790861 303,179 C303,181.209139 301.209139,183 299,183 C296.790861,183 295,181.209139 295,179 C295,176.790861 296.790861,175 299,175 Z" id="Oval-Copy-4" fill="#CCD7E1" fill-rule="nonzero"></path>
                <path d="M228.242641,55 C229.297002,55 230.160806,55.8158778 230.237155,56.8507377 L230.242641,57 L230.242641,71 C230.242641,72.0543618 229.426763,72.9181651 228.391903,72.9945143 L228.242641,73 L214.242641,73 C213.138071,73 212.242641,72.1045695 212.242641,71 C212.242641,69.9456382 213.058518,69.0818349 214.093378,69.0054857 L214.242641,69 L226.242,69 L226.242641,57 C226.242641,55.9456382 227.058518,55.0818349 228.093378,55.0054857 L228.242641,55 Z" id="Path" fill="#CCD7E1" fill-rule="nonzero" transform="translate(221.242641, 64.000000) rotate(-45.000000) translate(-221.242641, -64.000000) "></path>
                <path d="M132.242641,183 C133.297002,183 134.160806,183.815878 134.237155,184.850738 L134.242641,185 L134.242641,199 C134.242641,200.054362 133.426763,200.918165 132.391903,200.994514 L132.242641,201 L118.242641,201 C117.138071,201 116.242641,200.104569 116.242641,199 C116.242641,197.945638 117.058518,197.081835 118.093378,197.005486 L118.242641,197 L130.242,197 L130.242641,185 C130.242641,183.945638 131.058518,183.081835 132.093378,183.005486 L132.242641,183 Z" id="Path-Copy-2" fill="#CCD7E1" fill-rule="nonzero" transform="translate(125.242641, 192.000000) scale(-1, 1) rotate(-45.000000) translate(-125.242641, -192.000000) "></path>
            </g>
        </g>
    </g>
</svg>