<?xml version="1.0" encoding="UTF-8"?>
<svg width="15px" height="18px" viewBox="0 0 15 18" version="1.1" xmlns="http://www.w3.org/2000/svg" xmlns:xlink="http://www.w3.org/1999/xlink">
    <title>A6AE3E00-7D9A-4D35-9723-6E0410DB465A</title>
    <g id="Desktop" stroke="none" stroke-width="1" fill="none" fill-rule="evenodd">
        <g id="Article" transform="translate(-105.000000, -155.000000)" fill="#728689" fill-rule="nonzero" stroke="#6081A2" stroke-width="0.5">
            <g id="Breadcrumb" transform="translate(106.000000, 151.000000)">
                <path d="M12.9095967,11.2727273 L6.76216968,5.10909091 C6.61752434,4.96363636 6.40055633,4.96363636 6.25591099,5.10909091 L0.108484006,11.2727273 C0.0361613352,11.3454545 0,11.4363636 0,11.5272727 L0,20.6363636 C0,20.8363636 0.162726008,21 0.361613352,21 L4.4659249,21 C4.66481224,21 4.82753825,20.8363636 4.82753825,20.6363636 L4.82753825,15.2909091 L8.17246175,15.2909091 L8.17246175,20.6363636 C8.17246175,20.8363636 8.33518776,21 8.5340751,21 L12.6383866,21 C12.837274,21 13,20.8363636 13,20.6363636 L13,11.5272727 C13,11.4363636 12.9638387,11.3454545 12.9095967,11.2727273 Z M12.2767733,20.2727273 L8.89568846,20.2727273 L8.89568846,14.9272727 C8.89568846,14.7272727 8.73296245,14.5636364 8.5340751,14.5636364 L4.48400556,14.5636364 C4.28511822,14.5636364 4.12239221,14.7272727 4.12239221,14.9272727 L4.12239221,20.2727273 L0.741307371,20.2727273 L0.741307371,11.6909091 L6.50904033,5.87272727 L12.2767733,11.6727273 L12.2767733,20.2727273 Z" id="Home"></path>
            </g>
        </g>
    </g>
</svg>