<svg xmlns="http://www.w3.org/2000/svg" viewBox="0 0 305 374.03"><defs><style>.cls-1,.cls-2{fill-rule:evenodd;}.cls-2,.cls-4{fill:#fff;}.cls-3{fill:#ccd7e1;}.cls-5{fill:#405e7e;}</style></defs><g id="Layer_2" data-name="Layer 2"><g id="Layer_1-2" data-name="Layer 1"><g id="Desktop"><g id="Home"><g id="Hero-Graphic"><g id="Path-Copy"><path id="path-1" class="cls-1" d="M66.23,0h63A5.75,5.75,0,0,1,135,5.75v116.5a5.75,5.75,0,0,1-5.73,5.75H44.73A5.75,5.75,0,0,1,39,122.25V27.85Z"/><path id="path-1-2" data-name="path-1" class="cls-2" d="M66.23,0h63A5.75,5.75,0,0,1,135,5.75v116.5a5.75,5.75,0,0,1-5.73,5.75H44.73A5.75,5.75,0,0,1,39,122.25V27.85Z"/></g><path id="_100100110111001" data-name="100100110111001" class="cls-3" d="M62.46,54.92V39.56H62.3L56,41.89v2.22l3.93-1.43V54.92Zm11.73.22a5.37,5.37,0,0,0,2.09-.39,4.08,4.08,0,0,0,1.57-1.15,5.35,5.35,0,0,0,1-1.9,9.41,9.41,0,0,0,.34-2.62h0V45.41a9,9,0,0,0-.35-2.62,5.13,5.13,0,0,0-1-1.9,4.1,4.1,0,0,0-1.57-1.16,5.37,5.37,0,0,0-2.09-.39,5.23,5.23,0,0,0-2.07.39,4.22,4.22,0,0,0-1.58,1.16,5.27,5.27,0,0,0-1,1.9,9,9,0,0,0-.35,2.62h0v3.67a9,9,0,0,0,.35,2.62,5.38,5.38,0,0,0,1,1.9,4.08,4.08,0,0,0,1.57,1.15A5.32,5.32,0,0,0,74.19,55.14Zm-2.48-7V44.94a4.74,4.74,0,0,1,.61-2.69,2.12,2.12,0,0,1,1.85-.87,2.16,2.16,0,0,1,1.77.75,4.1,4.1,0,0,1,.69,2.33h0Zm2.48,5c-1.51,0-2.33-1-2.46-3h0l4.92-3.66v3.08Q76.65,53.12,74.19,53.12Zm13.68,2A5.33,5.33,0,0,0,90,54.75a4.08,4.08,0,0,0,1.57-1.15,5.35,5.35,0,0,0,1-1.9,9,9,0,0,0,.34-2.62h0V45.41a9,9,0,0,0-.35-2.62,5.27,5.27,0,0,0-1-1.9,4.22,4.22,0,0,0-1.58-1.16,5.37,5.37,0,0,0-2.09-.39,5.23,5.23,0,0,0-2.07.39,4.1,4.1,0,0,0-1.57,1.16,5.13,5.13,0,0,0-1,1.9,9,9,0,0,0-.35,2.62h0v3.67a8.69,8.69,0,0,0,.36,2.62,5.21,5.21,0,0,0,1,1.9,4.16,4.16,0,0,0,1.57,1.15A5.35,5.35,0,0,0,87.87,55.14Zm-2.48-7V44.94A4.82,4.82,0,0,1,86,42.25a2.12,2.12,0,0,1,1.85-.87,2.16,2.16,0,0,1,1.77.75,4.1,4.1,0,0,1,.69,2.33h0Zm2.48,5c-1.51,0-2.33-1-2.46-3h0l4.92-3.66v3.08Q90.33,53.12,87.87,53.12Zm15.63,1.8V39.56h-.15L97,41.89v2.22L101,42.68V54.92Zm11.74.22a5.28,5.28,0,0,0,2.08-.39,4.11,4.11,0,0,0,1.58-1.15,5.5,5.5,0,0,0,1-1.9,9,9,0,0,0,.34-2.62h0V45.41a9,9,0,0,0-.34-2.62,5.44,5.44,0,0,0-1-1.9,4.14,4.14,0,0,0-1.58-1.16,5.74,5.74,0,0,0-4.16,0,4.18,4.18,0,0,0-1.57,1.16,5.44,5.44,0,0,0-1,1.9,9,9,0,0,0-.34,2.62h0v3.67a8.7,8.7,0,0,0,.35,2.62,5.37,5.37,0,0,0,1,1.9,4.11,4.11,0,0,0,1.58,1.15A5.32,5.32,0,0,0,115.24,55.14Zm-2.48-7V44.94a4.74,4.74,0,0,1,.61-2.69,2.1,2.1,0,0,1,1.84-.87,2.13,2.13,0,0,1,1.77.75,4,4,0,0,1,.69,2.33h0Zm2.48,5c-1.52,0-2.34-1-2.46-3h0l4.91-3.66v3.08Q117.69,53.12,115.24,53.12ZM60.51,81.06a5.37,5.37,0,0,0,2.09-.39,4.16,4.16,0,0,0,1.57-1.15,5.34,5.34,0,0,0,1-1.9A9,9,0,0,0,65.5,75h0V71.33a9,9,0,0,0-.35-2.62,5.28,5.28,0,0,0-1-1.9,4.14,4.14,0,0,0-1.58-1.16,5.74,5.74,0,0,0-4.16,0,4.18,4.18,0,0,0-1.57,1.16,5.27,5.27,0,0,0-1,1.9,8.66,8.66,0,0,0-.35,2.62h0V75a9,9,0,0,0,.35,2.62,5.53,5.53,0,0,0,1,1.9,4.19,4.19,0,0,0,1.58,1.15A5.32,5.32,0,0,0,60.51,81.06ZM58,74V70.86a4.74,4.74,0,0,1,.61-2.69,2.42,2.42,0,0,1,3.61-.12,4,4,0,0,1,.69,2.33h0Zm2.48,5c-1.51,0-2.33-1-2.46-3h0L63,72.36v3.08C63,77.84,62.15,79,60.51,79Zm15.63,1.8V65.48H76l-6.3,2.33V70L73.6,68.6V80.84Zm13.68,0V65.48h-.16l-6.3,2.33V70l3.92-1.43V80.84Zm11.73.22a5.33,5.33,0,0,0,2.09-.39,4.08,4.08,0,0,0,1.57-1.15,5.35,5.35,0,0,0,1-1.9,9,9,0,0,0,.34-2.62h0V71.33a8.66,8.66,0,0,0-.35-2.62,5.27,5.27,0,0,0-1-1.9,4.14,4.14,0,0,0-1.58-1.16,5.74,5.74,0,0,0-4.16,0,4.1,4.1,0,0,0-1.57,1.16,5.28,5.28,0,0,0-1,1.9,9,9,0,0,0-.35,2.62h0V75a8.69,8.69,0,0,0,.36,2.62,5.37,5.37,0,0,0,1,1.9,4.11,4.11,0,0,0,1.58,1.15A5.27,5.27,0,0,0,101.55,81.06Zm-2.47-7V70.86a4.74,4.74,0,0,1,.61-2.69,2.09,2.09,0,0,1,1.84-.87,2.14,2.14,0,0,1,1.77.75,4.1,4.1,0,0,1,.69,2.33h0Zm2.47,5c-1.51,0-2.33-1-2.45-3h0L104,72.36v3.08Q104,79,101.55,79Zm15.64,1.8V65.48H117l-6.31,2.33V70l3.93-1.43V80.84ZM62.46,106.76V91.4H62.3L56,93.73V96l3.93-1.43v12.24Zm13.68,0V91.4H76l-6.3,2.33V96l3.92-1.43v12.24Zm11.73.22a5.33,5.33,0,0,0,2.09-.39,4.08,4.08,0,0,0,1.57-1.15,5.35,5.35,0,0,0,1-1.9,9,9,0,0,0,.34-2.62h0V97.25a9,9,0,0,0-.35-2.62,5.27,5.27,0,0,0-1-1.9,4.22,4.22,0,0,0-1.58-1.16,5.37,5.37,0,0,0-2.09-.39,5.23,5.23,0,0,0-2.07.39,4.1,4.1,0,0,0-1.57,1.16,5.13,5.13,0,0,0-1,1.9,9,9,0,0,0-.35,2.62h0v3.67a8.69,8.69,0,0,0,.36,2.62,5.21,5.21,0,0,0,1,1.9,4.16,4.16,0,0,0,1.57,1.15A5.35,5.35,0,0,0,87.87,107Zm-2.48-7V96.78A4.82,4.82,0,0,1,86,94.09a2.12,2.12,0,0,1,1.85-.87,2.16,2.16,0,0,1,1.77.75,4.1,4.1,0,0,1,.69,2.33h0Zm2.48,5c-1.51,0-2.33-1-2.46-3h0l4.92-3.66v3.08Q90.33,105,87.87,105Zm13.68,2a5.33,5.33,0,0,0,2.09-.39,4.08,4.08,0,0,0,1.57-1.15,5.35,5.35,0,0,0,1-1.9,9,9,0,0,0,.34-2.62h0V97.25a8.66,8.66,0,0,0-.35-2.62,5.27,5.27,0,0,0-1-1.9,4.14,4.14,0,0,0-1.58-1.16,5.74,5.74,0,0,0-4.16,0,4.1,4.1,0,0,0-1.57,1.16,5.28,5.28,0,0,0-1,1.9,9,9,0,0,0-.35,2.62h0v3.67a8.69,8.69,0,0,0,.36,2.62,5.37,5.37,0,0,0,1,1.9,4.11,4.11,0,0,0,1.58,1.15A5.27,5.27,0,0,0,101.55,107Zm-2.47-7V96.78a4.74,4.74,0,0,1,.61-2.69,2.09,2.09,0,0,1,1.84-.87,2.14,2.14,0,0,1,1.77.75A4.1,4.1,0,0,1,104,96.3h0Zm2.47,5c-1.51,0-2.33-1-2.45-3h0L104,98.28v3.08Q104,105,101.55,105Zm15.64,1.8V91.4H117l-6.31,2.33V96l3.93-1.43v12.24Z"/><g id="Path-18"><path id="path-3" class="cls-1" d="M39,30,67,2V22.8A7.2,7.2,0,0,1,59.8,30Z"/><path id="path-3-2" data-name="path-3" class="cls-2" d="M39,30,67,2V22.8A7.2,7.2,0,0,1,59.8,30Z"/></g><path id="Path" class="cls-2" d="M36.18,63a1.71,1.71,0,0,0-1,.48l-7.62,7.2a2,2,0,0,0,0,2.68l7.62,7.2a1.69,1.69,0,0,0,2.4-.13,1.94,1.94,0,0,0-.12-2.54L31.21,72l6.22-5.87a2,2,0,0,0,.45-2.06A1.76,1.76,0,0,0,36.18,63Z"/><path id="Path-2" data-name="Path" class="cls-2" d="M44.6,63a1.76,1.76,0,0,0-1.51,1.21,1.92,1.92,0,0,0,.48,1.94L49.79,72l-6.22,5.85a2,2,0,0,0-.12,2.55,1.69,1.69,0,0,0,2.4.13l7.62-7.2a2,2,0,0,0,0-2.68l-7.62-7.2A1.67,1.67,0,0,0,44.6,63Z"/><path id="Path-19" class="cls-3" d="M219,62a34,34,0,0,1,34,33.44V122a2,2,0,0,1-4,.15V96a30,30,0,0,0-29.5-30h-68a2,2,0,0,1-.15-4H219Z"/><path id="Path-3-3" data-name="Path" class="cls-3" d="M90.5,190a34,34,0,0,0-34,33.44v6.43a2,2,0,0,0,4,.15v-6A30,30,0,0,1,90,194h68a2,2,0,0,0,.15-4H90.5Z"/><g id="Rectangle-Copy-22"><rect id="path-8" x="183" y="138.03" width="122" height="109" rx="4"/><rect id="path-8-2" data-name="path-8" class="cls-4" x="183" y="138.03" width="122" height="109" rx="4"/></g><g id="Rectangle-Copy-23"><rect id="path-10" x="12" y="246.03" width="98" height="128" rx="4"/><rect id="path-10-2" data-name="path-10" class="cls-4" x="12" y="246.03" width="98" height="128" rx="4"/></g><path id="Path-20" class="cls-3" d="M90.55,275a2.5,2.5,0,0,1,.17,5H30.5a2.5,2.5,0,0,1-.16-5H90.55Z"/><path id="Path-20-Copy" class="cls-3" d="M30.5,291l48,0a2.5,2.5,0,0,1,.16,5H78.5l-48,0a2.5,2.5,0,0,1-.16-5Z"/><path id="Path-20-Copy-2" class="cls-3" d="M90.55,307a2.5,2.5,0,0,1,.17,5H30.5a2.5,2.5,0,0,1-.16-5H90.55Z"/><path id="Path-Copy-6" class="cls-4" d="M15.28,255.66,2.55,247.27A1.65,1.65,0,0,0,0,248.62v16.76a1.64,1.64,0,0,0,2.55,1.34l12.73-8.38A1.61,1.61,0,0,0,15.28,255.66Z"/><path id="Path-20-Copy-3" class="cls-3" d="M90.55,323a2.5,2.5,0,0,1,.17,5H30.5a2.5,2.5,0,0,1-.16-5H90.55Z"/><path id="Path-20-Copy-4" class="cls-3" d="M30.5,339l35,0a2.5,2.5,0,0,1,.16,5H65.5l-35,0a2.5,2.5,0,0,1-.16-5Z"/><rect id="Rectangle" class="cls-3" x="201" y="181" width="14" height="48" rx="2"/><rect id="Rectangle-Copy" class="cls-3" x="225" y="195" width="14" height="34" rx="2"/><rect id="Rectangle-Copy-14" class="cls-3" x="249" y="182" width="14" height="47" rx="2"/><rect id="Rectangle-Copy-15" class="cls-3" x="273" y="195" width="14" height="34" rx="2"/><polygon id="Path-21" class="cls-3" points="208.5 164.14 232.02 177.85 256 164.86 280.48 178.12 279.52 179.88 256 167.14 231.98 180.15 207.5 165.86 208.5 164.14"/><path id="Oval" class="cls-3" d="M208,159a6,6,0,1,0,6,6A6,6,0,0,0,208,159Zm0,2a4,4,0,1,1-4,4A4,4,0,0,1,208,161Z"/><path id="Oval-Copy" class="cls-3" d="M232,173a6,6,0,1,0,6,6A6,6,0,0,0,232,173Zm0,2a4,4,0,1,1-4,4A4,4,0,0,1,232,175Z"/><path id="Oval-Copy-3" class="cls-3" d="M256,160a6,6,0,1,0,6,6A6,6,0,0,0,256,160Zm0,2a4,4,0,1,1-4,4A4,4,0,0,1,256,162Z"/><path id="Oval-Copy-4" class="cls-3" d="M280,173a6,6,0,1,0,6,6A6,6,0,0,0,280,173Zm0,2a4,4,0,1,1-4,4A4,4,0,0,1,280,175Z"/><path id="Path-4" data-name="Path" class="cls-3" d="M200.83,52.69a2,2,0,0,1,2.72-.11l.11.11,9.9,9.9a2,2,0,0,1,.1,2.71l-.1.11-9.9,9.9a2,2,0,0,1-2.93-2.72l.1-.1L209.31,64l-8.48-8.49a2,2,0,0,1-.1-2.71Z"/></g></g></g><path class="cls-5" d="M104.09,222.19a4.62,4.62,0,0,1-3.82-4.55v-5.09a4.63,4.63,0,0,1,3.82-4.56l6-1.05a31.24,31.24,0,0,1,3.12-7.48l-3.53-5a4.64,4.64,0,0,1,.52-5.93l3.61-3.6a4.6,4.6,0,0,1,5.91-.52l5,3.53a31.52,31.52,0,0,1,7.47-3.1l1-6a4.63,4.63,0,0,1,4.56-3.83h5.1a4.64,4.64,0,0,1,4.55,3.82l1,6a30.79,30.79,0,0,1,7.5,3.11l5-3.5a4.61,4.61,0,0,1,5.91.51l3.62,3.6a4.61,4.61,0,0,1,.52,5.92l-3.51,5a31.49,31.49,0,0,1,2.5,5.71,14.11,14.11,0,0,0-2.91,6.37l-.49,2.8-1.49.61-2.31-1.61a14,14,0,0,0-8.12-2.55c-.46,0-.89.08-1.4.12a13.71,13.71,0,1,0-17.22,17.2,14.07,14.07,0,0,0,2.49,9.47l1.62,2.31c-.21.49-.42,1-.61,1.5l-2.8.49a14,14,0,0,0-6.38,2.9,31.4,31.4,0,0,1-5.7-2.5l-5,3.51a4.62,4.62,0,0,1-5.9-.53l-3.61-3.61a4.64,4.64,0,0,1-.52-5.93l3.53-5a31.14,31.14,0,0,1-3.11-7.47ZM235.2,255.74v6.47a5.89,5.89,0,0,1-4.85,5.78l-7.62,1.4a39.9,39.9,0,0,1-3.94,9.42l4.44,6.34a5.88,5.88,0,0,1-.66,7.64l-4.51,4.51a5.87,5.87,0,0,1-7.52.66l-6.46-4.45a39.41,39.41,0,0,1-9.51,3.95l-1.39,7.61a5.87,5.87,0,0,1-5.78,4.85h-6.34a5.87,5.87,0,0,1-5.78-4.85l-1.39-7.61a39.34,39.34,0,0,1-9.5-3.95L158.1,298a5.87,5.87,0,0,1-7.52-.66L146,292.79a5.88,5.88,0,0,1-.64-7.58l4.44-6.4a39.81,39.81,0,0,1-3.94-9.49l-7.62-1.4a5.89,5.89,0,0,1-4.85-5.78v-6.36a5.87,5.87,0,0,1,4.84-5.77l7.62-1.4a39.48,39.48,0,0,1,3.94-9.5l-4.43-6.28a5.86,5.86,0,0,1,.66-7.52l4.57-4.57a5.85,5.85,0,0,1,7.5-.64l6.35,4.44a39.41,39.41,0,0,1,9.49-3.94l1.4-7.62a5.87,5.87,0,0,1,5.77-4.85h6.47a5.88,5.88,0,0,1,5.74,4.84l1.39,7.62a39.4,39.4,0,0,1,9.37,3.95l6.4-4.44a5.87,5.87,0,0,1,7.52.65l4.57,4.57a5.86,5.86,0,0,1,.66,7.52l-4.44,6.35a39.79,39.79,0,0,1,3.94,9.51l7.62,1.39a5.88,5.88,0,0,1,4.85,5.69ZM201.76,259a17.46,17.46,0,1,0-17.46,17.46h0A17.46,17.46,0,0,0,201.76,259Z"/></g></g></svg>