<svg xmlns="http://www.w3.org/2000/svg" xmlns:xlink="http://www.w3.org/1999/xlink" viewBox="0 0 64 65"><defs><style>.cls-1{fill:url(#linear-gradient);}.cls-2{fill:#3c6084;}</style><linearGradient id="linear-gradient" x1="-936.33" y1="571.95" x2="-937.34" y2="570.96" gradientTransform="translate(-59926.5 37176) rotate(180) scale(64 65)" gradientUnits="userSpaceOnUse"><stop offset="0" stop-color="#6081a2"/><stop offset="1" stop-color="#1f466c"/></linearGradient></defs><g id="Layer_2" data-name="Layer 2"><g id="Layer_1-2" data-name="Layer 1"><g id="Desktop"><g id="Home"><g id="Hero-Graphic"><g id="Group"><path id="Combined-Shape" class="cls-1" d="M23.58,0A22.7,22.7,0,0,0,6.92,7,23.84,23.84,0,0,0,0,24a23.48,23.48,0,0,0,6.92,17,22.07,22.07,0,0,0,16.44,7.26,22.84,22.84,0,0,0,15.5-5.89L41,44.45a6,6,0,0,0,1,6.71L54.25,63.3a5.74,5.74,0,1,0,8.14-8.1L50.17,43.06a5.9,5.9,0,0,0-6.83-.9L41.1,39.93A25.26,25.26,0,0,0,47.16,24,23.47,23.47,0,0,0,40.24,7,23.06,23.06,0,0,0,23.58,0Zm-.22,3.08a20.33,20.33,0,0,1,14.5,6.16,21,21,0,0,1,0,29.49,20.13,20.13,0,0,1-29,0,21,21,0,0,1,0-29.49A20.29,20.29,0,0,1,23.36,3.08Z"/></g></g></g></g><path class="cls-2" d="M21.1,18.68a1.66,1.66,0,0,0-1.2.5l-3,3-.1.1c-.9.9-2,1.9-2.9,2.8L11.8,23a1.55,1.55,0,0,0-1.4-.5,1.78,1.78,0,0,0-1.5,1.1,1.7,1.7,0,0,0,.4,1.8c1.2,1.3,2,2.1,3.3,3.3a1.61,1.61,0,0,0,.7.4,1.27,1.27,0,0,0,.6.1,1.76,1.76,0,0,0,1.3-.6c1-1,2.2-2.2,3.6-3.5,1.2-1.1,2.5-2.4,3.5-3.4l.1-.1a1.81,1.81,0,0,0,.2-2.1A1.76,1.76,0,0,0,21.1,18.68Z"/><path class="cls-2" d="M37.4,26.38,35,24l2.4-2.4a1.7,1.7,0,1,0-2.4-2.4l-2.4,2.4-2.4-2.4a1.7,1.7,0,0,0-2.4,2.4L30.2,24l-2.4,2.4a1.7,1.7,0,0,0,2.4,2.4l2.4-2.4,2.4,2.4a1.63,1.63,0,0,0,2.4,0A1.82,1.82,0,0,0,37.4,26.38Z"/></g></g></svg>