<svg xmlns="http://www.w3.org/2000/svg" viewBox="0 0 63.96 54"><defs><style>.cls-1{fill:#405e7e;}</style></defs><g id="Layer_2" data-name="Layer 2"><g id="Layer_1-2" data-name="Layer 1"><path class="cls-1" d="M2.81,22.1A1,1,0,0,1,3,20.7a1,1,0,0,1,1.4.2l1.1,1.4a12.32,12.32,0,0,1,12-9.8,1.08,1.08,0,0,1,1,1,1,1,0,0,1-1,1,10.48,10.48,0,0,0-10.1,8.1l1.5-1.1a1,1,0,1,1,1.2,1.6c-.1.1-3.5,2.7-3.3,2.5a1.06,1.06,0,0,1-1.5-.1v-.1Z"/><path class="cls-1" d="M26.91,48.5a4.22,4.22,0,0,1-4,5.5H4.21a4.22,4.22,0,0,1-4-5.5,14,14,0,0,1,7.6-8.4.92.92,0,0,1,1,.1l4.7,3.8,4.7-3.8a.92.92,0,0,1,1-.1A13.88,13.88,0,0,1,26.91,48.5Z"/><path class="cls-1" d="M18.61,20.2a14.2,14.2,0,0,1,7.7-8.4,1.15,1.15,0,0,1,1,.1L32,15.7l4.7-3.8a.92.92,0,0,1,1-.1,14.48,14.48,0,0,1,7.7,8.4,4.08,4.08,0,0,1-.6,3.7,4.36,4.36,0,0,1-3.5,1.8H22.61a4.5,4.5,0,0,1-3.5-1.8A4.32,4.32,0,0,1,18.61,20.2Z"/><path class="cls-1" d="M45.51,13.5a1.08,1.08,0,0,1,1-1,12.23,12.23,0,0,1,12,9.8l1.1-1.4a1,1,0,1,1,1.6,1.2c-.1.1-2.8,3.6-2.6,3.3a1,1,0,0,1-1.4.2l-.1-.1h0L53.81,23A1,1,0,0,1,55,21.4l1.5,1.1a10.4,10.4,0,0,0-10.1-8.1C45.91,14.5,45.51,14,45.51,13.5Z"/><path class="cls-1" d="M26.21,5.7A5.8,5.8,0,1,1,32,11.6,6,6,0,0,1,26.21,5.7Z"/><path class="cls-1" d="M59.81,54H41.11a4.22,4.22,0,0,1-4-5.5,14.32,14.32,0,0,1,7.6-8.4.92.92,0,0,1,1,.1l4.7,3.8,4.7-3.8a.92.92,0,0,1,1-.1,13.75,13.75,0,0,1,7.6,8.4A4.12,4.12,0,0,1,59.81,54Z"/><path class="cls-1" d="M50.41,28.3a5.7,5.7,0,0,1,5.7,5.7,5.7,5.7,0,1,1-5.7-5.7Z"/><path class="cls-1" d="M38.61,42.1,32,35.5l-6.6,6.6a10,10,0,0,0-1.5-1.4L31,33.6V27.7h2v5.9l7,7C39.51,41.1,39.11,41.6,38.61,42.1Z"/><path class="cls-1" d="M19.31,34.1a5.7,5.7,0,0,1-5.7,5.7,5.7,5.7,0,0,1,0-11.4A5.7,5.7,0,0,1,19.31,34.1Z"/></g></g></svg>