<svg width="155" height="178" viewBox="0 0 155 178" fill="none" xmlns="http://www.w3.org/2000/svg">
<g clip-path="url(#clip0_13_18)">
<path d="M70.3059 1.09849C43.0059 7.29849 19.3059 26.6985 7.70586 52.1985C0.105865 68.9985 -2.59414 97.2985 2.90586 102.798C5.90586 105.798 12.1059 105.398 14.8059 101.998C16.6059 99.6985 16.8059 98.4985 16.2059 92.7985C15.8059 88.4985 16.2059 82.9985 17.2059 76.8985C20.1059 60.2985 27.0059 47.5985 39.6059 35.5985C59.4059 16.6985 86.6059 10.5985 112.506 19.1985C120.006 21.6985 133.206 29.0985 135.806 32.1985C136.806 33.3985 135.306 35.4985 127.106 44.6985C121.706 50.7985 116.806 56.7985 116.106 57.9985C114.806 60.3985 114.506 67.0985 115.606 69.8985C116.006 70.7985 120.806 76.6985 126.406 82.8985L136.506 94.2985L126.106 106.598C120.306 113.398 115.206 120.098 114.706 121.398C112.606 126.898 114.206 131.498 123.506 147.398L125.906 151.598L121.106 154.098C110.906 159.198 102.206 161.198 89.3059 161.198C79.6059 161.198 75.9059 160.698 69.8059 158.798C51.8059 153.298 38.4059 143.298 27.9059 127.698C21.5059 118.098 18.5059 116.198 14.0059 118.798C12.5059 119.598 10.7059 121.598 9.90586 123.098C8.70586 125.698 8.80586 126.498 10.8059 130.598C21.1059 151.898 45.2059 170.298 70.3059 175.798C79.9059 177.998 102.606 177.398 112.206 174.798C122.406 172.098 135.406 165.798 139.306 161.698C141.906 158.998 142.306 157.798 142.306 152.898C142.306 147.798 141.606 146.098 136.406 136.898C131.206 127.698 130.706 126.398 132.006 124.898C144.906 109.998 152.006 100.798 152.806 97.7985C154.506 91.6985 152.706 88.0985 141.806 75.7985C132.906 65.7985 131.906 64.2985 133.106 62.7985C133.806 61.8985 138.406 56.7985 143.206 51.2985C153.206 40.0985 155.206 36.2985 154.306 30.4985C152.806 21.8985 135.406 9.49849 115.806 3.19849C108.306 0.69849 105.506 0.39849 91.8059 0.0984898C81.2059 -0.20151 74.4059 0.19849 70.3059 1.09849Z" fill="white"/>
<path d="M58.0059 35.1985C54.9059 37.4985 50.8059 44.8985 50.8059 48.3985C50.8059 52.9985 53.6059 55.8985 58.0059 55.8985C62.7059 55.8985 63.4059 55.3985 66.9059 49.8985C70.7059 43.7985 70.8059 38.6985 67.2059 35.7985C64.0059 33.2985 61.1059 33.0985 58.0059 35.1985Z" fill="white"/>
<path d="M34.9058 83.2985C30.1058 89.3985 34.5058 96.6985 42.8058 96.6985C51.1058 96.6985 55.5058 89.3985 50.7058 83.2985C48.9058 80.9985 47.9058 80.6985 42.8058 80.6985C37.7058 80.6985 36.7058 80.9985 34.9058 83.2985Z" fill="white"/>
<path d="M62.9058 123.298C60.3058 126.698 60.3058 129.298 62.9058 133.698C65.7058 138.498 67.6058 139.698 71.9058 139.698C78.0058 139.698 81.5058 133.798 78.7058 128.398C74.7058 120.598 67.0058 118.098 62.9058 123.298Z" fill="white"/>
</g>
<defs>
<clipPath id="clip0_13_18">
<rect width="154.499" height="177.148" fill="white"/>
</clipPath>
</defs>
</svg>
