<?xml version="1.0" encoding="UTF-8"?>
<svg width="19px" height="19px" viewBox="0 0 19 19" version="1.1" xmlns="http://www.w3.org/2000/svg" xmlns:xlink="http://www.w3.org/1999/xlink">
    <title>26F3CC43-4EEB-4FDA-8063-08433C3CFD3B</title>
    <g id="Desktop" stroke="none" stroke-width="1" fill="none" fill-rule="evenodd">
        <g id="Article" transform="translate(-632.000000, -3951.000000)" fill="#003365" fill-rule="nonzero">
            <g id="Share" transform="translate(559.000000, 3949.000000)">
                <path d="M82.5000567,2 C77.2533744,2 73,6.27115639 73,11.5397732 C73,16.265107 76.4249569,20.178475 80.9156373,20.9362718 L80.9156373,13.5300283 L78.6239465,13.5300283 L78.6239465,10.8648231 L80.9156373,10.8648231 L80.9156373,8.89960409 C80.9156373,6.6193856 82.3025284,5.37679909 84.3284682,5.37679909 C85.2987707,5.37679909 86.1326279,5.44940375 86.3746936,5.48138166 L86.3746936,7.86481711 L84.9695569,7.86549991 C83.8680222,7.86549991 83.6556481,8.39103013 83.6556481,9.162483 L83.6556481,10.8634575 L86.2840323,10.8634575 L85.9412193,13.5286627 L83.6556481,13.5286627 L83.6556481,21 C88.3559828,20.4255356 92,16.4124785 92,11.537042 C92,6.27115639 87.7466256,2 82.5000567,2 Z" id="Facebook"></path>
            </g>
        </g>
    </g>
</svg>