<?xml version="1.0" encoding="UTF-8"?>
<svg width="20px" height="17px" viewBox="0 0 20 17" version="1.1" xmlns="http://www.w3.org/2000/svg" xmlns:xlink="http://www.w3.org/1999/xlink">
    <title>43B2C268-396F-47BD-84F2-D68B633DA601</title>
    <defs>
        <linearGradient x1="104.983836%" y1="13.875%" x2="1.23276003%" y2="85.1047066%" id="linearGradient-1">
            <stop stop-color="#976B24" offset="0%"></stop>
            <stop stop-color="#976B24" offset="100%"></stop>
        </linearGradient>
    </defs>
    <g id="Desktop" stroke="none" stroke-width="1" fill="none" fill-rule="evenodd">
        <g id="Home" transform="translate(-106.000000, -4652.000000)" fill="url(#linearGradient-1)" fill-rule="nonzero">
            <g id="Footer" transform="translate(0.000000, 4527.000000)">
                <path d="M124.769273,139.570946 C125.448985,139.570946 126,140.114557 126,140.785136 C126,141.455714 125.448985,141.999325 124.769273,141.999325 L124.769273,141.999325 L114.923456,141.999325 C114.243744,141.999325 113.692729,141.455714 113.692729,140.785136 C113.692729,140.114557 114.243744,139.570946 114.923456,139.570946 L114.923456,139.570946 Z M106.360672,125.355826 C106.841568,124.881391 107.621255,124.881391 108.102151,125.355826 L108.102151,125.355826 L115.486514,132.640961 C115.717261,132.868861 115.846758,133.17788 115.846502,133.5 C115.846758,133.82212 115.717261,134.131139 115.486514,134.359039 L115.486514,134.359039 L108.102151,141.644174 C107.621255,142.118609 106.841568,142.118609 106.360672,141.644174 C105.879776,141.16974 105.879776,140.400531 106.360672,139.926097 L106.360672,139.926097 L112.886603,133.5 L106.360672,127.073903 C105.879776,126.599469 105.879776,125.83026 106.360672,125.355826 Z" id="Footer-Mark"></path>
            </g>
        </g>
    </g>
</svg>