<?xml version="1.0" encoding="UTF-8"?>
<svg width="17px" height="16px" viewBox="0 0 17 16" version="1.1" xmlns="http://www.w3.org/2000/svg" xmlns:xlink="http://www.w3.org/1999/xlink">
    <title>833599C0-3C56-44F8-9D57-691DF059DCF0</title>
    <g id="Desktop" stroke="none" stroke-width="1" fill="none" fill-rule="evenodd">
        <g id="Article" transform="translate(-727.000000, -3953.000000)" fill="#003365">
            <g id="Share" transform="translate(559.000000, 3949.000000)">
                <path d="M171.859463,9.20427274 L171.859463,20 L168.215424,20 L168.215424,9.20427274 L171.859463,9.20427274 Z M180.804424,8.9509434 C183.1562,8.9509434 184.930636,10.4351457 184.998014,13.6205431 L185,13.8098832 L185,20 L181.355961,20 L181.355961,14.2245383 C181.355961,12.7735649 180.828756,11.782929 179.509933,11.782929 C178.503216,11.782929 177.903662,12.4509134 177.640222,13.0955775 C177.557631,13.2930019 177.528432,13.5582555 177.521775,13.8331989 L177.520182,13.9712089 L177.520182,20 L173.876143,20 L173.897215,12.0429876 C173.896546,10.9687601 173.89309,10.0624935 173.885062,9.5555201 L173.876143,9.20427274 L177.520182,9.20427274 L177.52,10.733037 L177.543769,10.6975806 C178.015906,9.98870732 178.844228,9.01818695 180.617578,8.95427323 L180.804424,8.9509434 Z M170.061776,4 C171.307926,4 172.075536,4.80630927 172.099219,5.86530897 C172.099219,6.86527524 171.361557,7.67315711 170.167151,7.72768408 L170.01376,7.73061795 C168.790969,7.73061795 168,6.90098832 168,5.86530897 C168,4.80630927 168.814977,4 170.061776,4 Z" id="LinkedIn"></path>
            </g>
        </g>
    </g>
</svg>