<?xml version="1.0" encoding="UTF-8"?>
<svg width="196px" height="32px" viewBox="0 0 196 32" version="1.1" xmlns="http://www.w3.org/2000/svg" xmlns:xlink="http://www.w3.org/1999/xlink">
    <title>Logo</title>
    <defs>
        <linearGradient x1="104.983836%" y1="13.875%" x2="1.23276003%" y2="85.1047066%" id="linearGradient-1">
            <stop stop-color="#FF9C00" offset="0%"></stop>
            <stop stop-color="#FFB222" offset="100%"></stop>
        </linearGradient>
    </defs>
    <g id="Desktop" stroke="none" stroke-width="1" fill="none" fill-rule="evenodd">
        <g id="Search" transform="translate(-78.000000, -65.000000)" fill-rule="nonzero">
            <g id="Logo" transform="translate(78.000000, 65.000000)">
                <path d="M33.654,25 C33.72,25 33.786,24.934 33.786,24.868 L33.742,17.432 L33.786,10.546 L38.142,10.546 C38.208,10.546 38.274,10.48 38.274,10.414 L38.274,9.732 C38.274,9.666 38.208,9.6 38.142,9.6 L28.264,9.6 C28.198,9.6 28.132,9.666 28.132,9.732 L28.132,10.414 C28.132,10.48 28.198,10.546 28.264,10.546 L32.62,10.546 L32.664,17.432 L32.62,24.868 C32.62,24.934 32.686,25 32.752,25 L33.654,25 Z M39.946,12.306 C40.012,12.306 40.078,12.24 40.078,12.174 L40.078,10.876 C40.078,10.81 40.012,10.744 39.946,10.744 L39.088,10.744 C39.022,10.744 38.956,10.81 38.956,10.876 L38.956,12.174 C38.956,12.24 39.022,12.306 39.088,12.306 L39.946,12.306 Z M39.946,25 C40.012,25 40.078,24.934 40.078,24.868 L40.034,18.994 L40.078,13.802 C40.078,13.736 40.012,13.67 39.946,13.67 L39.088,13.67 C39.022,13.67 38.956,13.736 38.956,13.802 L38.978,19.016 L38.956,24.868 C38.956,24.934 39.022,25 39.088,25 L39.946,25 Z M42.872,25 C42.938,25 43.004,24.934 43.004,24.868 L42.96,17.102 L43.004,9.732 C43.004,9.666 42.938,9.6 42.872,9.6 L42.036,9.6 C41.97,9.6 41.904,9.666 41.904,9.732 L41.948,17.146 L41.904,24.868 C41.904,24.934 41.97,25 42.036,25 L42.872,25 Z M49.582,25.22 C52.53,25.22 54.136,22.558 54.136,19.302 C54.136,16.002 52.552,13.45 49.604,13.45 C47.844,13.45 46.568,14.352 45.842,15.804 L45.864,9.732 C45.864,9.666 45.798,9.6 45.732,9.6 L44.874,9.6 C44.808,9.6 44.742,9.666 44.742,9.732 L44.786,15.936 L44.742,24.846 C44.742,24.912 44.808,24.978 44.874,24.978 L45.71,24.978 C45.776,24.978 45.842,24.912 45.842,24.846 L45.798,22.756 C46.502,24.362 47.822,25.22 49.582,25.22 Z M49.362,24.362 C47.074,24.362 45.71,22.448 45.732,19.192 C45.754,15.958 47.206,14.308 49.384,14.308 C51.914,14.308 53.014,16.574 53.014,19.412 C53.014,22.184 51.892,24.362 49.362,24.362 Z M58.932,25.264 C60.89,25.264 62.144,23.944 62.804,22.668 L62.738,24.868 C62.738,24.934 62.804,25 62.87,25 L63.706,25 C63.772,25 63.838,24.934 63.838,24.868 L63.794,18.642 L63.838,13.802 C63.838,13.736 63.772,13.67 63.706,13.67 L62.848,13.67 C62.782,13.67 62.716,13.736 62.716,13.802 L62.738,18.532 L62.738,20.996 C61.99,23.064 60.846,24.34 59.152,24.34 C57.436,24.34 56.314,23.306 56.314,20.578 L56.314,18.532 L56.336,13.802 C56.336,13.736 56.27,13.67 56.204,13.67 L55.346,13.67 C55.28,13.67 55.214,13.736 55.214,13.802 L55.236,18.532 L55.236,20.688 C55.236,23.79 56.644,25.264 58.932,25.264 Z M66.434,25 C66.5,25 66.566,24.934 66.566,24.868 L66.544,18.048 C66.874,15.584 68.546,14.484 70.196,14.484 C70.526,14.484 70.812,14.506 71.032,14.572 C71.098,14.594 71.164,14.55 71.164,14.484 L71.164,13.802 C71.164,13.736 71.098,13.648 71.032,13.626 C70.79,13.56 70.526,13.538 70.218,13.538 C68.678,13.538 67.248,14.396 66.5,15.892 L66.566,13.802 C66.566,13.736 66.5,13.67 66.434,13.67 L65.598,13.67 C65.532,13.67 65.466,13.736 65.466,13.802 L65.51,19.148 L65.466,24.868 C65.466,24.934 65.532,25 65.598,25 L66.434,25 Z M75.256,29.246 C78.116,29.246 79.92,27.42 79.898,23.856 L79.876,17.146 L79.92,13.802 C79.92,13.736 79.854,13.67 79.788,13.67 L78.952,13.67 C78.886,13.67 78.82,13.736 78.82,13.802 L78.864,15.914 C78.16,14.33 76.884,13.472 75.146,13.472 C72.132,13.472 70.526,16.09 70.526,19.346 C70.526,22.602 72.11,24.956 75.146,24.956 C76.884,24.956 78.16,24.076 78.864,22.58 L78.864,23.856 C78.864,27.024 77.412,28.388 75.256,28.388 C73.496,28.388 72.066,27.64 71.846,25.792 C71.824,25.726 71.758,25.66 71.692,25.66 L70.878,25.66 C70.812,25.66 70.746,25.726 70.746,25.792 C70.944,28.256 72.902,29.268 75.256,29.246 Z M75.41,24.12 C72.858,24.142 71.626,22.316 71.626,19.324 C71.626,16.398 72.836,14.286 75.278,14.286 C77.588,14.286 78.93,16.222 78.908,19.434 C78.886,22.624 77.434,24.098 75.41,24.12 Z M90.876,25.308 C94.638,25.308 97.124,23.614 97.124,20.402 C97.124,14.352 87.158,17.168 87.158,13.582 C87.158,12.108 88.456,11.448 90.326,11.448 C92.526,11.448 93.714,12.328 93.89,13.978 C93.912,14.088 94,14.154 94.088,14.154 L96.552,14.154 C96.64,14.154 96.728,14.066 96.706,13.978 C96.31,10.744 93.978,9.292 90.414,9.292 C86.74,9.292 84.496,11.008 84.496,13.846 C84.496,19.874 94.44,16.97 94.44,20.776 C94.44,22.492 93.076,23.174 90.942,23.174 C88.17,23.174 87.202,21.92 87.026,19.94 C87.004,19.852 86.916,19.764 86.828,19.764 L84.364,19.764 C84.276,19.764 84.188,19.852 84.188,19.94 C84.342,23.548 86.894,25.308 90.876,25.308 Z M103.24,25.264 C106.188,25.264 108.124,23.416 108.344,20.864 C108.366,20.776 108.278,20.688 108.19,20.688 L106.034,20.688 C105.946,20.688 105.858,20.754 105.836,20.864 C105.704,22.492 104.714,23.416 103.284,23.394 C101.348,23.372 100.402,22.074 100.402,19.346 C100.402,16.706 101.326,15.298 103.284,15.298 C104.538,15.298 105.484,16.024 105.748,17.476 C105.77,17.586 105.858,17.652 105.946,17.652 L108.036,17.652 C108.124,17.652 108.212,17.564 108.19,17.476 C107.948,15.034 106.144,13.406 103.284,13.406 C99.72,13.406 97.696,15.782 97.696,19.368 C97.696,22.954 99.72,25.264 103.24,25.264 Z M111.754,12.504 C111.842,12.504 111.93,12.416 111.93,12.328 L111.93,10.062 C111.93,9.974 111.842,9.886 111.754,9.886 L109.422,9.886 C109.334,9.886 109.246,9.974 109.246,10.062 L109.246,12.328 C109.246,12.416 109.334,12.504 109.422,12.504 L111.754,12.504 Z M111.776,25 C111.864,25 111.952,24.912 111.952,24.824 L111.886,19.258 L111.952,13.846 C111.952,13.758 111.864,13.67 111.776,13.67 L109.422,13.67 C109.334,13.67 109.246,13.758 109.246,13.846 L109.29,19.258 L109.246,24.824 C109.246,24.912 109.334,25 109.422,25 L111.776,25 Z M118.552,25.264 C121.588,25.264 123.458,23.482 123.766,21.304 C123.788,21.216 123.7,21.128 123.612,21.128 L121.412,21.128 C121.324,21.128 121.214,21.194 121.192,21.304 C120.884,22.712 119.982,23.394 118.596,23.394 C116.682,23.394 115.692,22.25 115.582,19.83 L123.854,19.83 C123.942,19.83 124.03,19.742 124.03,19.654 C123.964,15.782 121.984,13.406 118.464,13.406 C115.032,13.406 112.942,15.782 112.942,19.368 C112.942,22.822 114.9,25.264 118.552,25.264 Z M121.17,18.048 L115.67,18.048 C115.956,16.222 116.902,15.254 118.486,15.254 C120.224,15.254 121.06,16.574 121.17,18.048 Z M127.462,25 C127.55,25 127.638,24.912 127.638,24.824 L127.594,20.182 L127.594,18.95 C127.814,16.596 129.068,15.474 130.388,15.474 C131.598,15.474 132.456,16.31 132.456,17.916 L132.456,20.182 L132.412,24.824 C132.412,24.912 132.5,25 132.588,25 L134.92,25 C135.008,25 135.096,24.912 135.096,24.824 L135.052,20.182 L135.052,17.85 C135.052,14.99 133.534,13.406 131.18,13.406 C129.486,13.406 128.188,14.264 127.462,15.32 L127.528,13.846 C127.528,13.758 127.44,13.67 127.352,13.67 L125.13,13.67 C125.042,13.67 124.954,13.758 124.954,13.846 L124.976,19.676 L124.91,24.824 C124.91,24.912 124.998,25 125.086,25 L127.462,25 Z M141.454,25.264 C144.402,25.264 146.338,23.416 146.558,20.864 C146.58,20.776 146.492,20.688 146.404,20.688 L144.248,20.688 C144.16,20.688 144.072,20.754 144.05,20.864 C143.918,22.492 142.928,23.416 141.498,23.394 C139.562,23.372 138.616,22.074 138.616,19.346 C138.616,16.706 139.54,15.298 141.498,15.298 C142.752,15.298 143.698,16.024 143.962,17.476 C143.984,17.586 144.072,17.652 144.16,17.652 L146.25,17.652 C146.338,17.652 146.426,17.564 146.404,17.476 C146.162,15.034 144.358,13.406 141.498,13.406 C137.934,13.406 135.91,15.782 135.91,19.368 C135.91,22.954 137.934,25.264 141.454,25.264 Z M152.696,25.264 C155.732,25.264 157.602,23.482 157.91,21.304 C157.932,21.216 157.844,21.128 157.756,21.128 L155.556,21.128 C155.468,21.128 155.358,21.194 155.336,21.304 C155.028,22.712 154.126,23.394 152.74,23.394 C150.826,23.394 149.836,22.25 149.726,19.83 L157.998,19.83 C158.086,19.83 158.174,19.742 158.174,19.654 C158.108,15.782 156.128,13.406 152.608,13.406 C149.176,13.406 147.086,15.782 147.086,19.368 C147.086,22.822 149.044,25.264 152.696,25.264 Z M155.314,18.048 L149.814,18.048 C150.1,16.222 151.046,15.254 152.63,15.254 C154.368,15.254 155.204,16.574 155.314,18.048 Z M161.738,25 C161.826,25 161.914,24.912 161.914,24.824 L161.848,17.828 L169.306,17.828 L169.24,24.824 C169.24,24.912 169.328,25 169.416,25 L171.836,25 C171.924,25 172.012,24.912 172.012,24.824 L171.924,17.344 L172.012,9.776 C172.012,9.688 171.924,9.6 171.836,9.6 L169.416,9.6 C169.328,9.6 169.24,9.688 169.24,9.776 L169.284,15.716 L161.87,15.716 L161.914,9.776 C161.914,9.688 161.826,9.6 161.738,9.6 L159.34,9.6 C159.252,9.6 159.164,9.688 159.164,9.776 L159.252,17.344 L159.164,24.824 C159.164,24.912 159.252,25 159.34,25 L161.738,25 Z M177.116,25.264 C178.81,25.264 180.086,24.406 180.834,23.35 L180.768,24.824 C180.768,24.912 180.856,25 180.944,25 L183.166,25 C183.254,25 183.342,24.912 183.342,24.824 L183.32,18.994 L183.364,13.846 C183.364,13.758 183.276,13.67 183.188,13.67 L180.834,13.67 C180.746,13.67 180.658,13.758 180.658,13.846 L180.68,18.488 L180.68,19.72 C180.46,22.074 179.228,23.196 177.886,23.196 C176.698,23.196 175.84,22.36 175.84,20.754 L175.84,18.488 L175.884,13.846 C175.884,13.758 175.796,13.67 175.708,13.67 L173.376,13.67 C173.288,13.67 173.2,13.758 173.2,13.846 L173.244,18.488 L173.244,20.82 C173.244,23.68 174.74,25.264 177.116,25.264 Z M190.624,25.22 C193.66,25.22 195.464,22.58 195.464,19.302 C195.464,16.002 193.814,13.45 190.668,13.45 C189.172,13.45 188.028,14.066 187.236,15.144 L187.258,9.776 C187.258,9.688 187.17,9.6 187.082,9.6 L184.75,9.6 C184.662,9.6 184.574,9.688 184.574,9.776 L184.64,16.97 L184.574,24.824 C184.574,24.912 184.662,25 184.75,25 L187.082,25 C187.17,25 187.258,24.912 187.258,24.824 L187.192,23.548 C187.962,24.648 189.128,25.22 190.624,25.22 Z M189.898,23.306 C188.116,23.284 187.104,21.832 187.126,19.214 C187.148,16.662 188.182,15.364 189.964,15.364 C191.812,15.342 192.758,16.86 192.758,19.434 C192.758,21.832 191.834,23.35 189.898,23.306 Z" id="TilburgScienceHub" fill="#003365"></path>
                <path d="M18.7692729,23.5709463 C19.4489847,23.5709463 20,24.1145573 20,24.7851355 C20,25.4557137 19.4489847,25.9993248 18.7692729,25.9993248 L18.7692729,25.9993248 L8.92345598,25.9993248 C8.24374416,25.9993248 7.69272886,25.4557137 7.69272886,24.7851355 C7.69272886,24.1145573 8.24374416,23.5709463 8.92345598,23.5709463 L8.92345598,23.5709463 Z M0.360672095,9.35582556 C0.8415682,8.88139148 1.62125484,8.88139148 2.10215095,9.35582555 L2.10215095,9.35582555 L9.48651363,16.6409611 C9.7172609,16.8688609 9.84675806,17.1778801 9.84650169,17.5 C9.84675806,17.8221199 9.7172609,18.1311391 9.48651363,18.3590389 L9.48651363,18.3590389 L2.10215095,25.6441744 C1.62125484,26.1186085 0.841568192,26.1186085 0.360672082,25.6441744 C-0.120224027,25.1697404 -0.120224027,24.4005307 0.360672082,23.9260966 L0.360672082,23.9260966 L6.8866026,17.5 L0.360672082,11.0739033 C-0.120224015,10.5994693 -0.120224009,9.83025964 0.360672095,9.35582556 Z" id="Combined-Shape" fill="url(#linearGradient-1)"></path>
            </g>
        </g>
    </g>
</svg>