<?xml version="1.0" encoding="UTF-8"?>
<svg width="18px" height="14px" viewBox="0 0 18 14" version="1.1" xmlns="http://www.w3.org/2000/svg" xmlns:xlink="http://www.w3.org/1999/xlink">
    <title>435AEBFA-564B-4344-BD61-740866AFE941</title>
    <g id="Desktop" stroke="none" stroke-width="1" fill="none" fill-rule="evenodd">
        <g id="Article" transform="translate(-772.000000, -3954.000000)" fill="#003365" fill-rule="nonzero">
            <g id="Share" transform="translate(559.000000, 3949.000000)">
                <path d="M222.296,13.365 L231,6.982 L231,6.803 C231,5.807 230.193,5 229.197,5 L214.982,5 C213.888,5 213,5.887 213,6.982 L221.705,13.365 C221.861444,13.4796667 222.067667,13.4924074 222.235173,13.4032222 L222.296,13.365 Z M222.573,15.062 C222.401,15.183 222.2,15.243 222,15.243 C221.8,15.243 221.599,15.183 221.427,15.062 L213,8.863 L213,17 C213,18.105 213.896,19 215,19 L229,19 C230.105,19 231,18.105 231,17 L231,8.863 L222.573,15.062 Z" id="Mail"></path>
            </g>
        </g>
    </g>
</svg>