<?xml version="1.0" encoding="utf-8"?>
<!-- Generator: Adobe Illustrator 19.0.0, SVG Export Plug-In . SVG Version: 6.00 Build 0)  -->
<svg version="1.1" xmlns="http://www.w3.org/2000/svg" xmlns:xlink="http://www.w3.org/1999/xlink" x="0px" y="0px"
	 viewBox="0 0 1600 1200" style="enable-background:new 0 0 1600 1200;" xml:space="preserve">
<style type="text/css">
	.st0{fill:#E8E8E8;}
	.st1{fill:#FFFFFF;stroke:#161616;stroke-width:3;stroke-miterlimit:10;}
	.st2{fill:#161616;}
	.st3{fill:#5222D0;}
	.st4{fill:#EC615B;}
	.st5{fill:#161616;stroke:#161616;stroke-width:3;stroke-miterlimit:10;}
	.st6{opacity:0.11;fill:#3D3D3D;}
	.st7{opacity:0.13;fill:#3D3D3D;}
	.st8{opacity:0.15;fill:#3D3D3D;}
	.st9{fill:#3D3D3D;}
	.st10{fill:#FFFFFF;}
	.st11{opacity:9.000000e-002;fill:#3D3D3D;}
	.st12{opacity:0.17;fill:#3D3D3D;}
	.st13{opacity:0.1;fill:#3D3D3D;}
	.st14{opacity:0.16;fill:#3D3D3D;}
	.st15{opacity:0.29;fill:#3D3D3D;}
	.st16{opacity:0.12;fill:#3D3D3D;}
</style>
<g id="ground">
	<g>
		<g>
			<path class="st0" d="M1347.3,949.9c-9.6-24.4-11-51.1-3.9-76.3c-0.7,0.3-1.5,0.6-2.2,0.9c1.8,1.2,3.5,2.5,5.3,3.7
				c0.7,0.5,2.1,0,2.2-0.9c6.6-46.5,26-90.5,56-126.7c-0.8-0.2-1.7-0.4-2.5-0.7c16.4,68.7-3.9,139.2-28.7,203.2
				c-0.7,1.8,2.2,2.6,2.9,0.8c25-64.6,45.2-135.5,28.7-204.8c-0.2-1-1.8-1.5-2.5-0.7c-30.2,36.6-50,81.1-56.7,128.1
				c0.7-0.3,1.5-0.6,2.2-0.9c-1.8-1.2-3.5-2.5-5.3-3.7c-0.8-0.6-2,0-2.2,0.9c-7.2,25.7-5.9,53.1,3.9,77.9
				C1345.1,952.5,1348,951.7,1347.3,949.9L1347.3,949.9z"/>
		</g>
	</g>
	<g>
		<g>
			<path class="st0" d="M1409.7,819c6.3-15.3,14.2-29.8,23.5-43.6c-0.7,0.2-1.4,0.4-2.1,0.5c1.2,0.9,2.5,1.8,3.7,2.6
				c0.7,0.5,1.7,0.1,2.1-0.5c8.7-15.7,18.9-30.5,30.6-44.1c-0.8-0.1-1.6-0.2-2.4-0.3c15.4,26.5,3.7,59.2-5.7,85.7
				c-10.2,29.1-22.9,57.3-38.7,83.7c-9,15-19,29.4-30,42.9c-1.2,1.5,0.9,3.6,2.1,2.1c20.2-24.8,36.8-52.1,50.3-81
				c6.7-14.3,12.6-28.9,18-43.7c5.3-14.7,10.5-29.7,12.9-45.2c2.5-15.8,1.7-32-6.4-46.1c-0.5-0.8-1.7-1-2.4-0.3
				c-11.8,13.9-22.2,28.8-31.1,44.7c0.7-0.2,1.4-0.4,2.1-0.5c-1.2-0.9-2.5-1.8-3.7-2.6c-0.7-0.5-1.6-0.1-2.1,0.5
				c-9.4,13.9-17.3,28.7-23.8,44.3C1406.1,820,1409,820.8,1409.7,819L1409.7,819z"/>
		</g>
	</g>
	<g>
		<g>
			<path class="st0" d="M1400.6,751.6c-13.2,61.1-33.3,120.6-42.8,182.4c-0.3,1.9,2.6,2.7,2.9,0.8c9.5-61.9,29.6-121.4,42.8-182.4
				C1403.9,750.5,1401,749.7,1400.6,751.6L1400.6,751.6z"/>
		</g>
	</g>
	<g>
		<g>
			<path class="st0" d="M1465.9,734.3c-10.3,62.8-40.9,119.3-71.1,174.4c-0.9,1.7,1.7,3.2,2.6,1.5c30.3-55.4,61-112.1,71.4-175.1
				C1469.1,733.2,1466.2,732.4,1465.9,734.3L1465.9,734.3z"/>
		</g>
	</g>
	<g>
		<g>
			<path class="st0" d="M1359.6,825.1c7.1,11,11.8,23.2,13.8,36.2c0.3,1.9,3.2,1.1,2.9-0.8c-2-13.2-6.8-25.7-14.1-36.9
				C1361.1,822,1358.5,823.5,1359.6,825.1L1359.6,825.1z"/>
		</g>
	</g>
	<g>
		<g>
			<path class="st0" d="M1380.6,843.3c10.1-15.5,20.2-31.1,30.3-46.6c1.1-1.6-1.5-3.1-2.6-1.5c-10.1,15.5-20.2,31.1-30.3,46.6
				C1376.9,843.4,1379.5,844.9,1380.6,843.3L1380.6,843.3z"/>
		</g>
	</g>
	<g>
		<g>
			<path class="st0" d="M1420.8,790.6c-0.4,20.8,1.1,41.5,4.3,62c0.3,1.9,3.2,1.1,2.9-0.8c-3.2-20.3-4.6-40.7-4.2-61.2
				C1423.9,788.6,1420.9,788.6,1420.8,790.6L1420.8,790.6z"/>
		</g>
	</g>
	<g>
		<g>
			<path class="st0" d="M1449.8,803.6c8.2-8.3,16.2-17,23.8-25.9c1.2-1.5-0.9-3.6-2.1-2.1c-7.6,8.9-15.5,17.5-23.8,25.9
				C1446.3,802.9,1448.4,805,1449.8,803.6L1449.8,803.6z"/>
		</g>
	</g>
	<g>
		<g>
			<path class="st0" d="M263.6,898c-21.8-15.5-36.9-39-42-65.3c-0.3,0.6-0.7,1.2-1,1.8c2.4-0.7,4.6-0.1,6.4,1.7
				c1.3,1.3,3-0.3,2.4-1.8c-13.3-30-20.3-62.5-20.4-95.3c-0.4,0.5-0.7,1-1.1,1.4c1,0.5,2.1,1.1,3.1,1.6c0.7,1.2,2.9,0.8,2.8-0.8
				c-0.7-8.7-1.4-17.4-2.1-26.1c-0.6-7.7-1.5-15.8,3.5-22.3c-0.7,0.2-1.4,0.4-2.1,0.5c7,5,11.1,13.1,15.2,20.4
				c4,7.2,7.8,14.6,11.4,22c7.5,15.6,13.9,31.7,19.2,48.2c10.5,32.2,16.8,65.6,18.9,99.4c0.1,1.9,3.1,1.9,3,0
				c-2.2-35.2-8.9-70.1-20.1-103.6c-5.5-16.4-12-32.4-19.6-47.9c-3.9-8-8-15.8-12.4-23.5c-3.8-6.7-7.7-13.1-14.1-17.7
				c-0.7-0.5-1.6-0.1-2.1,0.5c-4.5,5.9-4.6,13.3-4.2,20.5c0.7,9.8,1.6,19.6,2.4,29.5c0.9-0.3,1.9-0.5,2.8-0.8
				c-1.5-2.6-3.6-3.4-6.5-3c-0.6,0.1-1.1,0.8-1.1,1.4c0.2,33.4,7.3,66.3,20.8,96.8c0.8-0.6,1.6-1.2,2.4-1.8
				c-2.6-2.7-5.8-3.5-9.3-2.5c-0.8,0.2-1.2,1-1,1.8c5.3,27.1,20.9,51.1,43.3,67.1C263.7,901.7,265.2,899.1,263.6,898L263.6,898z"/>
		</g>
	</g>
	<g>
		<g>
			<path class="st0" d="M254.6,761.2c-0.9-5.7-1.6-11.4-1.9-17.1c-0.3-5.3-1.8-13.2,2.2-17.4c2.3-2.3,3.4-3.4,3.9-6.9
				c0.7-5.6,0.7-11.3,1.3-16.9c1.2-11.7,2.9-23.2,5.3-34.7c0.4-1.9,0.6-5.5,1.6-7.2c2.4-3.9,6.1,0.2,8,2.1c3.4,3.4,6.1,7.4,8.4,11.6
				c9.6,17.6,12.2,39.3,14.8,58.9c2.9,21.8,4.1,43.8,3.5,65.8c-0.6,25-4,49.9-12.6,73.5c-0.7,1.8,2.2,2.6,2.9,0.8
				c16.7-46.1,15.2-98.4,8.3-146.2c-2.9-20.3-6-43.4-18.3-60.6c-2.7-3.7-10.9-15.5-16.2-10.2c-2.8,2.7-3,9-3.7,12.5
				c-1.3,6.6-2.5,13.2-3.4,19.9c-0.9,6.5-1.6,13-2.2,19.5c-0.3,3.5,0,7.5-0.8,10.9c-0.8,3.3-3.2,4.3-4.8,6.9
				c-2.6,4-1.6,10.3-1.4,14.8c0.3,6.9,1.1,13.8,2.2,20.7C252,763.9,254.9,763.1,254.6,761.2L254.6,761.2z"/>
		</g>
	</g>
	<g>
		<g>
			<path class="st0" d="M266.7,658.9c16.1,62.4,20.6,127.3,13.3,191.3c-0.2,1.9,2.8,1.9,3,0c7.3-64.3,2.7-129.5-13.4-192.1
				C269.1,656.3,266.2,657.1,266.7,658.9L266.7,658.9z"/>
		</g>
	</g>
	<g>
		<g>
			<path class="st0" d="M211,692.8c23.5,60.1,41.8,122.1,54.9,185.3c0.4,1.9,3.3,1.1,2.9-0.8c-13-63.2-31.4-125.2-54.9-185.3
				C213.1,690.2,210.2,691,211,692.8L211,692.8z"/>
		</g>
	</g>
	<g>
		<g>
			<path class="st0" d="M211.5,784.8c16.4,4.6,30,15.4,38.3,30.3c0.9,1.7,3.5,0.2,2.6-1.5c-8.7-15.5-23.1-26.8-40.1-31.6
				C210.4,781.4,209.6,784.3,211.5,784.8L211.5,784.8z"/>
		</g>
	</g>
	<g>
		<g>
			<path class="st0" d="M244.7,746c-1.8,15.5-2.1,31-0.9,46.5c0.1,1.9,3.1,1.9,3,0c-1.2-15.5-0.9-31,0.9-46.5
				C247.9,744.1,244.9,744.1,244.7,746L244.7,746z"/>
		</g>
	</g>
	<g>
		<g>
			<path class="st0" d="M255.3,726c13.6,17.7,23.1,38.1,27.9,59.9c0.4,1.9,3.3,1.1,2.9-0.8c-4.9-22-14.4-42.7-28.2-60.6
				C256.8,722.9,254.2,724.4,255.3,726L255.3,726z"/>
		</g>
	</g>
	<g>
		<g>
			<path class="st0" d="M290.1,690c-5,11.6-8.5,23.6-10.4,36.1c-0.3,1.9,2.6,2.7,2.9,0.8c1.8-12.2,5.2-24,10.1-35.4
				C293.5,689.8,290.9,688.2,290.1,690L290.1,690z"/>
		</g>
	</g>
	<g>
		<g>
			<path class="st0" d="M158.8,969.5c54.2-19.1,112-3.9,166.4,5.8c58.1,10.3,116.8,17.1,175.6,20.2c33.3,1.8,66.6,2.4,100,1.8
				c1.9,0,1.9-3,0-3c-60.1,1-120.3-1.8-180.1-8.3c-30.4-3.3-60.7-7.6-90.8-12.9c-26.9-4.7-53.7-10.5-80.8-13.7
				c-30.5-3.5-61.8-3.1-91.1,7.2C156.2,967.3,157,970.2,158.8,969.5L158.8,969.5z"/>
		</g>
	</g>
	<g>
		<g>
			<path class="st0" d="M472.9,967c89.7,22,182.6,16.2,273.6,7.8c46.8-4.3,93.5-9.4,140.4-11.9c46.8-2.5,93.5-1.7,140.2,2.9
				c54.3,5.4,108,15.3,161.4,26.5c1.9,0.4,2.7-2.5,0.8-2.9c-92.8-19.5-186.5-33.8-281.5-30.4c-93,3.3-185.2,18.6-278.3,20.3
				c-52.3,1-104.8-2.7-155.7-15.2C471.8,963.6,471,966.5,472.9,967L472.9,967z"/>
		</g>
	</g>
	<g>
		<g>
			<path class="st0" d="M864.8,1030.5c73.6-15.2,148.5-0.8,221.8,8.9c72.9,9.6,146.3,11.2,219.3,1.9c40.4-5.1,80.3-13.3,119.4-24.3
				c1.9-0.5,1.1-3.4-0.8-2.9c-70.9,20-144.4,30.4-218.1,30.7c-36.6,0.1-73-2.4-109.3-7c-37.1-4.7-74-10.8-111.2-14.3
				c-40.7-3.8-81.8-4.2-122,4.2C862.1,1028,862.9,1030.9,864.8,1030.5L864.8,1030.5z"/>
		</g>
	</g>
	<g>
		<g>
			<path class="st0" d="M1194.9,953.9c37.4,13.9,77.6,5.7,115.1-3.3c41.5-9.9,82.8-18.1,125.5-20.5c23.7-1.3,47.5-1.1,71.2,0.4
				c1.9,0.1,1.9-2.9,0-3c-41.2-2.7-82.5-1.1-123.4,4.8c-20.4,3-40.6,7.2-60.6,12.1c-19.9,4.8-39.9,9.9-60.3,12.4
				c-22.5,2.8-45.3,2.1-66.7-5.9C1193.9,950.4,1193.1,953.3,1194.9,953.9L1194.9,953.9z"/>
		</g>
	</g>
	<g>
		<g>
			<path class="st0" d="M1164.6,633.7c-2.9,9-5.9,17.9-8.8,26.9c-0.7,2.3-1.4,4.5-0.7,6.9c1,3.2,4.4,5.1,4.5,8.7
				c0.6-0.5,1.3-1,1.9-1.4c-11.8-3.5-11.4,15.3-11,21.9c0.7,13.1,4.9,25.7,11.9,36.7c1,1.6,3.6,0.1,2.6-1.5
				c-5-7.8-8.5-16.4-10.3-25.5c-1-4.9-4.5-31.9,6-28.8c0.9,0.3,1.9-0.5,1.9-1.4c0-2.4-0.9-4-2.3-5.9c-2.6-3.7-2.4-6.4-1-10.7
				c2.7-8.4,5.5-16.7,8.2-25.1C1168.1,632.6,1165.2,631.8,1164.6,633.7L1164.6,633.7z"/>
		</g>
	</g>
	<g>
		<g>
			<path class="st0" d="M1165.6,634.1c11.3,11.5,14.1,30.2,15,45.6c1,16.6-1.4,33.2-6.7,48.9c-0.6,1.8,2.3,2.6,2.9,0.8
				c5.8-17.1,8.2-35.3,6.6-53.3c-1.3-15.3-4.5-32.8-15.6-44.2C1166.3,630.6,1164.2,632.7,1165.6,634.1L1165.6,634.1z"/>
		</g>
	</g>
	<g>
		<g>
			<path class="st0" d="M1183.5,678.6c2-13.4,5.4-26.4,10.1-39.1c-0.7,0.3-1.5,0.6-2.2,0.9c2.1,1.4,4.2,2.9,6.3,4.3
				c1,0.7,2.2-0.2,2.3-1.3c0.9-22.3,18.3-39.4,23-60.6c-1,0-1.9,0-2.9,0c8,48.2-2.1,98.4-28.1,139.8c-1,1.6,1.6,3.1,2.6,1.5
				c26.4-42.1,36.5-93.1,28.4-142.1c-0.2-1.5-2.6-1.4-2.9,0c-4.8,21.6-22.2,38.7-23.1,61.4c0.8-0.4,1.5-0.9,2.3-1.3
				c-2.1-1.4-4.2-2.9-6.3-4.3c-0.9-0.6-1.9,0.1-2.2,0.9c-4.7,12.7-8.1,25.7-10.1,39.1C1180.3,679.7,1183.2,680.5,1183.5,678.6
				L1183.5,678.6z"/>
		</g>
	</g>
	<g>
		<g>
			<path class="st0" d="M1219.8,589c-3.2,36.9-13.2,72.9-29.5,106.1c-0.8,1.7,1.7,3.2,2.6,1.5c16.5-33.8,26.7-70.2,29.9-107.6
				C1222.9,587,1219.9,587.1,1219.8,589L1219.8,589z"/>
		</g>
	</g>
	<g>
		<g>
			<path class="st0" d="M1164.2,636.5c4.1,29.8,8,60.2,1.7,89.9c-0.4,1.9,2.5,2.7,2.9,0.8c6.5-30.3,2.5-61.2-1.7-91.5
				C1166.9,633.8,1164,634.6,1164.2,636.5L1164.2,636.5z"/>
		</g>
	</g>
	<g>
		<g>
			<path class="st0" d="M1018.9,736.7c15.4-1.2,30.9-0.1,45.9,3.6c12.7,3.1,25.3,9.5,38.6,7.5c13.7-2.1,25.2-11.2,39.3-11.7
				c13.6-0.5,27,4.2,40.4,0.3c1.9-0.5,1.1-3.4-0.8-2.9c-14,4-28.1-1.5-42.2-0.2c-12.8,1.2-23.5,8.9-35.9,11.4
				c-14.3,2.8-28.5-5-42.3-8c-14.2-3.1-28.7-4-43.1-2.8C1017,733.8,1017,736.8,1018.9,736.7L1018.9,736.7z"/>
		</g>
	</g>
	<g>
		<g>
			<path class="st0" d="M136.8,876.9c27.6,25.8,67.6-2.1,99.3,8.2c1.8,0.6,2.6-2.3,0.8-2.9c-16.9-5.5-34.2-1.2-51.2,1.4
				c-15.9,2.4-34.2,2.8-46.8-8.9C137.5,873.5,135.3,875.6,136.8,876.9L136.8,876.9z"/>
		</g>
	</g>
</g>
<g id="mat">
	<path class="st1" d="M1326.7,913.4c-162.9,10.3-334.9,16.6-515.3,17.5c-181.7,0.9-355-3.8-519-12.5c16.1-28.3,32.3-56.5,48.6-84.6
		c13.1-22.7,26.4-45.3,39.7-67.8c141,8,293.4,11.2,455.7,7.2c152.9-3.8,296.7-13.6,430.2-27.3c12.3,17.3,26.5,40.7,38.1,70.2
		C1319.7,854.4,1324.9,888.7,1326.7,913.4z"/>
	<g>
		<g>
			<path class="st2" d="M367.9,898c56.8,6.1,114,8,171.2,5.7c1.9-0.1,1.9-3.1,0-3c-57.1,2.3-114.3,0.4-171.2-5.7
				C366,894.8,366,897.8,367.9,898L367.9,898z"/>
		</g>
	</g>
	<g>
		<g>
			<path class="st2" d="M469,883.6c27.7,1.1,55.5,0.4,83.2,0.4c28.1-0.1,56.1-0.1,84.2-0.2c1.9,0,1.9-3,0-3
				c-28.1,0.1-56.1,0.1-84.2,0.2c-27.7,0.1-55.5,0.7-83.2-0.4C467.1,880.5,467.1,883.5,469,883.6L469,883.6z"/>
		</g>
	</g>
	<g>
		<g>
			<path class="st2" d="M838.7,876.3c84.7-5.4,169.3-11.8,253.9-19.2c1.9-0.2,1.9-3.2,0-3c-84.5,7.4-169.2,13.8-253.9,19.2
				C836.8,873.4,836.8,876.4,838.7,876.3L838.7,876.3z"/>
		</g>
	</g>
	<g>
		<g>
			<path class="st2" d="M1059.5,824.9c65.6-2.4,131.1-6.5,196.5-12.6c1.9-0.2,1.9-3.2,0-3c-65.4,6-130.9,10.2-196.5,12.6
				C1057.6,821.9,1057.6,824.9,1059.5,824.9L1059.5,824.9z"/>
		</g>
	</g>
	<g>
		<g>
			<path class="st2" d="M1116.9,889.1c55.1-2.4,110.2-4.8,165.3-7.3c1.9-0.1,1.9-3.1,0-3c-55.1,2.4-110.2,4.8-165.3,7.3
				C1115,886.2,1115,889.2,1116.9,889.1L1116.9,889.1z"/>
		</g>
	</g>
	<path class="st1" d="M389.9,762.4c2.5,4.7,5,9.4,7.6,14.2c2.3,1.5,10.1,6.1,19.9,4.3c4.1-0.7,7.3-2.3,9.4-3.6
		c2.8-4.9,5.6-9.8,8.4-14.7c-5.5-1.7-13.6-3.7-23.6-3.6C402.5,759.1,395.1,760.8,389.9,762.4z"/>
	<g>
		<g>
			<path class="st2" d="M391.6,764.1c9,5.6,21.9,4.3,32,3.7c1.9-0.1,1.9-3.1,0-3c-9.5,0.5-22,2-30.5-3.3
				C391.5,760.5,390,763.1,391.6,764.1L391.6,764.1z"/>
		</g>
	</g>
	<g>
		<g>
			<path class="st2" d="M368.3,696.7c8.5,22,17,44,25.4,66c0.7,1.8,3.6,1,2.9-0.8c-8.5-22-17-44-25.4-66
				C370.5,694.1,367.6,694.8,368.3,696.7L368.3,696.7z"/>
		</g>
	</g>
	<g>
		<g>
			<path class="st2" d="M381.1,697.2c4.4,22.5,9.6,44.9,15.5,67.1c0.5,1.9,3.4,1.1,2.9-0.8c-6-22.2-11.2-44.6-15.5-67.1
				C383.6,694.5,380.7,695.3,381.1,697.2L381.1,697.2z"/>
		</g>
	</g>
	<g>
		<g>
			<path class="st0" d="M368.9,685.5c-1.5-4.8,2.5-9.3,1.4-14.3c-1.3-5.3-6.5-7.5-5.9-13.6c0.4-4.2,2.5-8.2,1.8-12.5
				c-0.5-2.7-2.2-4.3-3.4-6.7c-1.4-3-0.8-5.8,0-8.9c0.8-3.5,2.1-7.3,0.7-10.9c-0.7-1.9-2.1-2.8-3.3-4.3c-2.8-3.3-2.4-6.7-1.7-10.7
				c2.2-12.4,2.3-24.3-0.9-36.6c-0.5-1.9-3.4-1.1-2.9,0.8c1.8,7,2.8,14.1,2.6,21.3c-0.2,6.1-1.8,11.8-2.3,17.8
				c-0.4,4.9,1.2,7,4.2,10.5c3.9,4.7,0.6,10.1-0.1,15.4c-0.2,1.7-0.2,3.5,0.3,5.2c0.8,2.8,3.3,4.7,3.8,7.7c0.8,4.8-2.2,9.5-1.9,14.3
				c0.4,5.2,5.8,7.9,6.2,12.9c0.4,4.7-3,8.5-1.5,13.4C366.6,688.1,369.5,687.3,368.9,685.5L368.9,685.5z"/>
		</g>
	</g>
	<g>
		<g>
			<path class="st0" d="M383.4,683.2c-3.1-2.9,0.8-5.9-0.3-9.3c-0.6-1.9-2.6-3.3-2.7-5.4c-0.1-1.9,1.2-4,1.5-5.9
				c0.5-3.6-1.4-5.3-2.3-8.6c-1.2-4.5,1.5-9.5,2.3-13.9c0.6-3.4,0.3-6.3-0.9-9.5c-1-2.6-2-4.8-1.8-7.6c0.2-2.3,1.2-4.4,1.7-6.6
				c2-8-5.1-16.5-1.7-23.9c0.8-1.7-1.8-3.3-2.6-1.5c-4,8.5,3.4,16.6,1.2,25.4c-1.1,4.4-2.4,7.6-0.9,12.1c0.9,2.5,2.2,4.9,2.3,7.7
				c0.2,2.8-0.8,5.5-1.5,8.1c-0.9,3.4-1.9,7-1,10.5c0.8,2.9,2.7,5.1,2,8.3c-0.4,1.6-1.1,3.1-1.2,4.8c-0.1,1.6,0.1,2.8,0.9,4.2
				c0.4,0.7,1.6,1.8,1.7,2.3c0.2,0.8-0.5,2.4-0.7,3.1c-0.7,3.1-0.5,5.4,1.9,7.7C382.7,686.6,384.8,684.5,383.4,683.2L383.4,683.2z"
				/>
		</g>
	</g>
</g>
<g id="background">
	<g>
		<g>
			<path class="st0" d="M248.6,230.9c19.8,6.2,40.8,5.8,61.3,5.4c19.6-0.4,39.1-1.7,58.5-3.7c38.7-4.1,77-11.4,114.6-21.5
				c76.1-20.4,149-52,217.1-91.4c38.6-22.3,75.6-47.1,111.1-74c1.5-1.2,0-3.8-1.5-2.6c-62.1,47.1-129.1,87.9-200.3,119.7
				c-71.4,31.9-147.2,54.9-224.9,64.9c-21.3,2.8-42.8,4.6-64.3,5.3c-23.4,0.8-48.1,2.1-70.7-5C247.6,227.5,246.8,230.3,248.6,230.9
				L248.6,230.9z"/>
		</g>
	</g>
	<g>
		<g>
			<path class="st0" d="M766.5,77.7c26.7,23.1,58.2,39.6,90.6,53.3c34.8,14.7,70.8,26.9,107.4,36.3c72.4,18.8,147.5,27.2,222.2,24.9
				c42.6-1.3,87.1-4.2,127.8-17.8c1.8-0.6,1-3.5-0.8-2.9c-36.2,12.2-75.3,15.3-113.2,17.2c-36.7,1.8-73.5,1-110-2.4
				c-73.9-6.8-146.8-24.1-215.8-51.4c-37.7-14.9-75-32.6-105.9-59.3C767.1,74.3,765,76.4,766.5,77.7L766.5,77.7z"/>
		</g>
	</g>
	<g>
		<g>
			<path class="st0" d="M365.5,128.8c36.7,21.2,80.4,26.4,121.8,30.8c42.6,4.5,85.6,5.7,128.5,3.8c84.6-3.8,168.8-19.8,248.8-47.5
				c45.1-15.6,88.8-34.9,130.7-57.6c1.7-0.9,0.2-3.5-1.5-2.6c-73.7,40.1-153.3,69.2-235.4,86.6c-82.3,17.4-167.2,23-251.1,16.2
				c-23.8-1.9-47.7-4.6-71.2-8.9c-24.1-4.4-47.8-11-69.1-23.3C365.4,125.3,363.9,127.9,365.5,128.8L365.5,128.8z"/>
		</g>
	</g>
	<g>
		<g>
			<path class="st2" d="M488.7,193.7c0,12.4,0,24.9,0,37.3c0,1.9,3,1.9,3,0c0-12.4,0-24.9,0-37.3
				C491.7,191.7,488.7,191.7,488.7,193.7L488.7,193.7z"/>
		</g>
	</g>
	<g>
		<g>
			<path class="st2" d="M489.6,255.6c0,14.6,0,29.1,0,43.7c0,1.9,3,1.9,3,0c0-14.6,0-29.1,0-43.7
				C492.6,253.7,489.6,253.6,489.6,255.6L489.6,255.6z"/>
		</g>
	</g>
	<g>
		<g>
			<path class="st2" d="M540.6,296.6c0,18.2,0,36.4,0,54.6c0,1.9,3,1.9,3,0c0-18.2,0-36.4,0-54.6
				C543.6,294.6,540.6,294.6,540.6,296.6L540.6,296.6z"/>
		</g>
	</g>
	<g>
		<g>
			<path class="st2" d="M538.8,394.9c0,8.8,0,17.6,0,26.4c0,1.9,3,1.9,3,0c0-8.8,0-17.6,0-26.4C541.8,393,538.8,393,538.8,394.9
				L538.8,394.9z"/>
		</g>
	</g>
	<g>
		<g>
			<path class="st2" d="M642.6,126.3c0,16.1,0,32.2,0,48.3c0,1.9,3,1.9,3,0c0-16.1,0-32.2,0-48.3
				C645.6,124.4,642.6,124.4,642.6,126.3L642.6,126.3z"/>
		</g>
	</g>
	<g>
		<g>
			<path class="st2" d="M642.6,191.8c0,12.1,0,24.3,0,36.4c0,1.9,3,1.9,3,0c0-12.1,0-24.3,0-36.4
				C645.6,189.9,642.6,189.9,642.6,191.8L642.6,191.8z"/>
		</g>
	</g>
	<g>
		<g>
			<path class="st2" d="M1072.3,144.5c0,20.9,0,41.9,0,62.8c0,1.9,3,1.9,3,0c0-20.9,0-41.9,0-62.8
				C1075.3,142.6,1072.3,142.6,1072.3,144.5L1072.3,144.5z"/>
		</g>
	</g>
	<g>
		<g>
			<path class="st2" d="M1071.4,231.9c0,10.9,0,21.9,0,32.8c0,1.9,3,1.9,3,0c0-10.9,0-21.9,0-32.8
				C1074.4,230,1071.4,230,1071.4,231.9L1071.4,231.9z"/>
		</g>
	</g>
	<g>
		<g>
			<path class="st2" d="M892.9,108.1c0,13.4,0,26.7,0,40.1c0,1.9,3,1.9,3,0c0-13.4,0-26.7,0-40.1
				C895.9,106.2,892.9,106.1,892.9,108.1L892.9,108.1z"/>
		</g>
	</g>
	<g>
		<g>
			<path class="st2" d="M893.9,186.4c0,12.1,0,24.3,0,36.4c0,1.9,3,1.9,3,0c0-12.1,0-24.3,0-36.4
				C896.9,184.5,893.9,184.5,893.9,186.4L893.9,186.4z"/>
		</g>
	</g>
	<g>
		<g>
			<path class="st2" d="M1172.5,251.9c0,11.8,0,23.7,0,35.5c0,1.9,3,1.9,3,0c0-11.8,0-23.7,0-35.5
				C1175.5,250,1172.5,250,1172.5,251.9L1172.5,251.9z"/>
		</g>
	</g>
	<g>
		<g>
			<path class="st2" d="M1173.4,312c0,9.4,0,18.8,0,28.2c0,1.9,3,1.9,3,0c0-9.4,0-18.8,0-28.2C1176.4,310.1,1173.4,310.1,1173.4,312
				L1173.4,312z"/>
		</g>
	</g>
	<circle class="st3" cx="491" cy="244.8" r="16.6"/>
	<circle class="st3" cx="541.1" cy="429.3" r="11.4"/>
	<circle class="st3" cx="645.4" cy="244.1" r="5.4"/>
	<circle class="st3" cx="898.2" cy="257.1" r="7.6"/>
	<circle class="st3" cx="897.7" cy="163.4" r="7"/>
	<circle class="st4" cx="540.1" cy="379.6" r="7.8"/>
	<circle class="st4" cx="643.1" cy="121.9" r="7.7"/>
	<circle class="st4" cx="643.1" cy="190" r="7.7"/>
	<circle class="st4" cx="894.4" cy="232.1" r="3.8"/>
	<circle class="st4" cx="1073.9" cy="280.6" r="15.9"/>
	<circle class="st4" cx="1176.6" cy="363.5" r="7.6"/>
	<circle class="st4" cx="1073.8" cy="163.4" r="7"/>
	<circle class="st3" cx="1073.9" cy="193.7" r="5.4"/>
	<circle class="st3" cx="1174.9" cy="297.2" r="5.4"/>
	<g>
		<g>
			<path class="st0" d="M416.5,374.9c-4.7,7.4-9.4,14.7-14.1,22.1c-3.7,5.8-7.4,11.9-8.7,18.8c-2.1,11.9,5.9,19.9,12.7,28.5
				c3.9,4.9,7.5,10.5,5.8,16.9c-1.5,5.8-6.3,10.8-5.6,17.2c0.3,2.7,1.7,4.8,2.9,7.1c2,4,3.4,8.3,3.9,12.7c0.9,8.2-1,16.4-5.3,23.4
				c-1,1.7,1.6,3.2,2.6,1.5c6.6-10.9,7.9-24.6,2.8-36.4c-1.8-4.2-4.8-7.6-3.5-12.6c0.9-3.3,2.8-6.2,4.1-9.3
				c1.9-4.7,2.1-9.4,0.1-14.1c-4.5-10.6-17-17.5-17.8-29.8c-0.5-8.3,4.4-15.9,8.6-22.6c4.7-7.4,9.4-14.8,14.1-22.1
				C420.1,374.8,417.5,373.3,416.5,374.9L416.5,374.9z"/>
		</g>
	</g>
	<g>
		<g>
			<path class="st0" d="M601.2,488.2c-7.4,7.5-11.1,18-9.9,28.5c0.6,5.5,2.8,10.1,5.4,15c3.9,7.4,4.8,13,1.8,20.8
				c-1.8,4.6-4.1,9.3-3.5,14.3c0.6,5.7,5,8.7,7.7,13.4c5.7,10.2-5.8,20.9-3.1,31.8c0.5,1.9,3.4,1.1,2.9-0.8
				c-2.5-9.8,6.9-18.5,4.5-28.4c-1.2-4.8-5.1-7.8-7.5-11.9c-3.4-5.8-0.2-11.9,1.9-17.6c1.7-4.5,2.9-9,1.9-13.8
				c-1.3-5.9-5.3-10.7-7.4-16.3c-4.2-11.3-1-24.4,7.4-32.9C604.7,488.9,602.6,486.8,601.2,488.2L601.2,488.2z"/>
		</g>
	</g>
	<g>
		<g>
			<path class="st0" d="M1250.4,510c-10,11.7-19.7,26.8-18.7,42.9c0.5,7.7,3.9,13.9,8.1,20.2c4.9,7.3,9.1,14.2,6.7,23.3
				c-3.2,11.9-15,23.8-10.9,36.9c2.5,8,10.5,12.4,12.4,20.8c2.2,10-2.4,20.5-6.5,29.4c-0.8,1.7,1.8,3.3,2.6,1.5
				c3.4-7.4,6.7-15.1,7.3-23.3c0.6-7.8-2-14-6.8-20c-5.7-6.9-8.3-12.8-5.3-21.5c2.3-6.7,6.4-12.7,8.9-19.3c2.4-6.2,3-12.6,0.4-18.9
				c-2.7-6.6-7.7-11.7-10.9-18c-9-18,3.1-38.2,14.8-51.8C1253.8,510.7,1251.7,508.6,1250.4,510L1250.4,510z"/>
		</g>
	</g>
	<g>
		<g>
			<path class="st0" d="M1278.5,616.5c-5.2,4.9-8.5,11.3-9.4,18.4c-1.1,8.5,2.1,14.4,5.5,21.8c4.2,9.1-4,17.3-1.8,26.5
				c1.2,5,3.9,8.8,3.8,14.1c-0.2,5.5-2.4,10.5-6.2,14.4c-1.3,1.4,0.8,3.5,2.1,2.1c5.1-5.2,7.8-12.3,6.9-19.6
				c-0.5-4.2-2.8-7.8-3.7-11.9c-1.3-5.5,1.7-10.5,2.8-15.7c1.9-8.8-4.1-14-6-22c-2.3-9.5,1-19.5,8.1-26.1
				C1282.1,617.3,1280,615.2,1278.5,616.5L1278.5,616.5z"/>
		</g>
	</g>
	<g>
		<g>
			<path class="st0" d="M1000.4,337.6c-5.7,8.8-12,19.2-8.7,30.1c1.6,5.3,6,7.5,8.4,12.1c2.3,4.6,0.1,10-1.5,14.4
				c-2.3,6.3-5.5,14,0.3,19.4c2.3,2.1,5.1,3.3,6.1,6.6c0.8,2.7,0.1,5.9-0.4,8.5c-1,4.8-2.4,9.6-1.8,14.5c0.2,1.9,3.2,1.9,3,0
				c-0.9-8.2,5.1-17.4,1.6-25.3c-2-4.6-8.2-5.9-8.8-11.1c-0.5-3.9,1.6-8.2,2.9-11.8c2.5-6.9,4.3-13.8-1.1-19.8
				c-5-5.5-7.6-10.8-6-18.4c1.3-6.5,5.1-12.3,8.7-17.8C1004.1,337.4,1001.5,335.9,1000.4,337.6L1000.4,337.6z"/>
		</g>
	</g>
	<g>
		<g>
			<path class="st3" d="M589.3,232c-5.9,4.1-6.9,11.4-2.8,17.1c3.7,5-2,7.3-0.9,12c0.4,1.7,1.8,2.7,2.6,4.2c2,3.7-0.3,7.6-2.2,10.9
				c-1,1.7,1.6,3.2,2.6,1.5c1.8-3.1,3.8-6.7,3.5-10.4c-0.1-1.7-0.8-2.8-1.5-4.3c-0.5-0.9-1.1-1.2-1.5-2.3c-0.5-1.9,0.2-2.3,1.1-4.1
				c1.3-2.5,1.8-4.6,0.4-7.2c-1.3-2.4-3.4-3.8-3.6-6.8c-0.2-3.2,1.3-6.3,3.9-8.1C592.4,233.5,590.9,230.9,589.3,232L589.3,232z"/>
		</g>
	</g>
	<g>
		<g>
			<path class="st3" d="M446.2,307c-1.9,2.1-3.1,4.4-3.3,7.2c-0.2,3.2,2.4,6.5,1,9.4c-1,2.1-2.1,2.9-1.9,5.5
				c0.2,2.7,4.7,10.1,0.6,11.7c-1.8,0.7-1,3.6,0.8,2.9c5-1.9,4-7.2,2.6-11.3c-1.1-3.2-0.2-4.8,1.2-7.8c0.3-0.7,0.8-1.2,0.9-2
				c0.2-1.6-0.7-2.5-1.3-3.8c-1.6-3.5-1.2-6.9,1.4-9.7C449.6,307.7,447.4,305.5,446.2,307L446.2,307z"/>
		</g>
	</g>
	<g>
		<g>
			<path class="st3" d="M1211.4,338.1c-4-0.3-6.9,2.7-7.5,6.6c-0.9,5.7,3.8,9.7,6.2,14.3c1.6,3.2,1,5.7,0,8.8
				c-0.5,1.6-1.1,1.1-1.2,2.9c-0.1,1.5,0.5,2.6,1.5,3.7c2.7,3.1,4.9,4.5,4.6,9.1c-0.3,4.1-2.2,8-4,11.5c-0.9,1.7,1.7,3.2,2.6,1.5
				c2.1-4,4.2-8.4,4.4-13c0.3-4.5-1.5-6.5-3.9-9.9c-0.8-0.5-1.1-1.3-1-2.4c-0.8-1.2-0.6-2.2,0.4-3.1c0.2-0.9,0.7-1.6,0.9-2.6
				c0.4-2.1,0-4.2-0.8-6.3c-0.8-2.2-2.2-4-3.5-5.9c-1.1-1.6-2.4-3.4-2.9-5.3c-0.8-2.9,0-7.3,4.3-7
				C1213.3,341.3,1213.3,338.3,1211.4,338.1L1211.4,338.1z"/>
		</g>
	</g>
</g>
<g id="girl_meditating">
	<g id="leg_left">
		<path class="st5" d="M901.9,882c-19.7,3-36.3,3.7-47.8,3.7c-6.3,91.7-5.4,138.2,2.8,139.5c6.9,1.1,19-29.9,36.2-93
			c23.7-5.9,47.5-11.8,71.2-17.7c2.4-23.2-3-32.2-8.4-36.3C945.9,870.7,931.9,877.3,901.9,882z"/>
		<path class="st4" d="M805.2,719.5c-16.6,15.1-10.9,56.1,13.8,99c5.8-0.7,14.9-1.3,25.8-0.4c4.5,0.4,18.6,1.8,54.6,14.9
			c7.5,2.8,17.9,6.7,30.3,12c-9.7,2.6-19.4,5.2-29.2,7.8c1.1,11.7,3.1,25,6.7,39.2c6.6,26.3,16.4,47.8,25.4,63.9
			c22.5-6.6,40.9-13.1,54.2-17.9c31.9-11.7,48.8-20.1,65-31.4c17.3-12.1,26.4-22.3,29.2-35.1c1.6-7.4,0.7-13.8,0.4-16.1
			c-2-12.4-8.9-20.8-16.1-28.8c-15.8-17.7-23.7-26.5-36.6-36.3c-29.5-22.3-56.4-34-86.3-46.7c-23.1-9.8-38.5-16.3-60.9-21.7
			C845.7,713.6,818.8,707.1,805.2,719.5z"/>
		<g>
			<g>
				<path class="st4" d="M874.3,721.4c30.1,8.8,59.4,20,87.8,33.5c24.9,11.8,49.9,24.9,71.5,42.2c10,8,19.3,16.9,27.4,26.9
					c8.8,10.9,20.2,25.6,20,40.3c-0.2,13.7-13.2,26.2-22.7,34.8c-10.1,9.1-21.6,16.3-33.8,22.2c-29.8,14.4-62.8,20.3-93,33.8
					c-1.8,0.8-0.2,3.4,1.5,2.6c29-13,60.6-18.9,89.5-32.2c12.2-5.6,23.9-12.5,34.3-21.2c9.7-8.1,20.7-18.8,25.4-30.8
					c5.1-13-1.8-26.4-8.7-37.2c-7.5-11.8-16.6-22.5-26.9-32c-20.4-18.9-44.7-32.9-69.4-45.3c-32.7-16.5-66.9-30.1-102.1-40.4
					C873.2,718,872.4,720.8,874.3,721.4L874.3,721.4z"/>
			</g>
		</g>
		<g>
			<g>
				<path class="st4" d="M980,829.9c-13.3,3.8-26.7,7.6-40,11.4c-13.1,3.7-26.5,7-39.3,11.6c-1.8,0.7-1,3.6,0.8,2.9
					c12.8-4.7,26.2-7.9,39.3-11.6c13.3-3.8,26.7-7.6,40-11.4C982.6,832.3,981.8,829.4,980,829.9L980,829.9z"/>
			</g>
		</g>
		<g>
			<g>
				<path class="st4" d="M899.5,853.1c3.3,36.3,13.4,71.8,30.8,103.9c0.9,1.7,3.5,0.2,2.6-1.5c-17.1-31.6-27.1-66.6-30.4-102.3
					C902.4,851.2,899.4,851.2,899.5,853.1L899.5,853.1z"/>
			</g>
		</g>
		<g>
			<g>
				<path class="st4" d="M930.1,845c-34.7-19.9-74.1-30.3-114.2-28.7c-1.9,0.1-1.9,3.1,0,3c39.5-1.7,78.4,8.6,112.6,28.3
					C930.3,848.5,931.8,845.9,930.1,845L930.1,845z"/>
			</g>
		</g>
		<path class="st6" d="M813.9,755.4c9.3,2.1,22.9,5.6,39,10.9c11.9,3.9,34.4,11.8,86.1,37.9c17.4,8.8,40.3,20.7,66.8,35.6
			c-33.7,14.9-67.4,29.8-101.1,44.6c-1.8-10.3-3.7-20.5-5.5-30.8c8.7-2.8,17.4-5.5,26.1-8.3c-13.3-7.3-32.1-15.9-55.7-21.3
			c-19.5-4.5-36.7-5.6-50.2-5.5C817.5,797.4,815.7,776.4,813.9,755.4z"/>
		<path class="st6" d="M819.3,818.1c15.9-2.8,41.7-5.4,72.3,0.8c26.4,5.3,46.6,15.2,59.7,22.9c-16.5,9.4-32.9,18.7-49.4,28.1
			c-1.1-5.5-2.1-11.1-3.2-16.6c8.8-2.8,17.6-5.5,26.5-8.3c-11.7-6.3-26.6-13-44.6-18.2C856.5,819.9,835.2,818.1,819.3,818.1z"/>
	</g>
	<g id="leg_right">
		<path class="st5" d="M689.4,914.3c14.9,5.2,29.8,10.4,44.6,15.6c3.1,64.3,7.6,96.6,13.4,96.8c7.1,0.3,16.2-46.1,27.4-139.3
			c-23.7-5.7-47.3-11.5-71-17.2C699.1,884.9,694.3,899.6,689.4,914.3z"/>
		<path class="st4" d="M819.2,818.2c-0.9-28.7-4.2-52.5-7.4-69.9c-6.7-36.7-12.5-42.5-17.6-44.9c-11.1-5.1-22.4,4.7-50.6,17.6
			c-23.1,10.6-20.1,6.1-59.7,21c-29,10.9-64,25.9-101.2,47.7c-8,4.7-26.8,16-44.9,36.4c-17,19.1-18.2,29.2-18.2,34.1
			c0,5,1.2,16.2,17.6,33c19.3,19.7,41.1,28.2,104,48.3c17.3,5.5,33.1,10.5,47.2,14.8c7.6-14.5,13.4-27.1,17.6-36.9
			c11.8-27.6,14.3-40.6,15.3-47.2c1.1-7.3,1.6-13.4,1.7-17.6c-10.2-2.7-20.5-5.3-30.7-8c11.6-6.6,26-13.4,43.2-18.8
			C769.3,817.3,799,816.7,819.2,818.2z"/>
		<g>
			<g>
				<path class="st4" d="M695.3,847.4c4.4,1,8.9,2,13.3,3c4.4,1,9.4,1.5,13.1,4.3c1.5,1.2,3-1.4,1.5-2.6c-3.5-2.7-7.8-3.3-12-4.2
					c-5-1.1-10.1-2.3-15.1-3.4C694.2,844.1,693.4,847,695.3,847.4L695.3,847.4z"/>
			</g>
		</g>
		<g>
			<g>
				<path class="st4" d="M751.6,718.8c-43.8,11.5-86.4,27.1-127.4,46.4c-21.6,10.2-42.5,22.6-61.4,37.2
					c-21,16.2-58.6,49.7-38.4,79.1c9.3,13.5,23.4,23.5,37.4,31.6c11.4,6.7,23.5,12.3,35.8,17c7.2,2.7,14.7,4.7,22.1,7
					c22.5,6.8,45,13.9,67.4,21.1c1.8,0.6,2.6-2.3,0.8-2.9c-18.5-6-37-11.9-55.6-17.5c-9.7-3-19.6-5.5-29.2-8.9
					c-23.6-8.1-47.9-20.3-66-37.5c-5.9-5.6-12-12.2-14.2-20.1c-2.8-9.8,0.7-19.6,5.6-28c7.9-13.6,19.6-24.9,31.7-34.8
					c19.4-15.8,41.3-28.9,63.9-39.7c41.2-19.7,84.3-35.4,128.5-46.9C754.3,721.2,753.5,718.3,751.6,718.8L751.6,718.8z"/>
			</g>
		</g>
		<g>
			<g>
				<path class="st4" d="M633,833.1c14.9,3.8,29.9,7.6,44.8,11.3c14.7,3.7,29.7,6.9,44.1,11.7c1.8,0.6,2.6-2.3,0.8-2.9
					c-14.4-4.7-29.4-7.9-44.1-11.7c-14.9-3.8-29.9-7.6-44.8-11.3C631.9,829.8,631.1,832.7,633,833.1L633,833.1z"/>
			</g>
		</g>
		<g>
			<g>
				<path class="st4" d="M721,853.5c-3.7,36.2-15.2,71.3-34.1,102.3c-1,1.7,1.6,3.2,2.6,1.5c19.2-31.6,30.8-67.2,34.5-103.9
					C724.2,851.5,721.2,851.6,721,853.5L721,853.5z"/>
			</g>
		</g>
		<g>
			<g>
				<path class="st4" d="M691.4,847.9c39.1-20,82.6-29.9,126.5-28.3c1.9,0.1,1.9-2.9,0-3c-44.4-1.7-88.5,8.4-128,28.7
					C688.2,846.2,689.7,848.8,691.4,847.9L691.4,847.9z"/>
			</g>
		</g>
		<path class="st7" d="M798.3,763.6c-43,20.9-71.3,35.6-84,41.7c-33.4,15.8-66,30.3-97.7,43.7c24.2-2.7,47.8,8.5,60.1,28.7
			c13.9,22.8,11,53-7.5,73.8c6.4,2.3,12.8,4.6,19.1,6.8c5.4-8.6,10.8-18.4,15.7-29.4c13-28.9,18.3-55.7,20.5-76.5
			c-9.1-3-18.2-5.9-27.3-8.9c8.2-3.6,17.1-7.1,26.6-10.2c36-11.8,69.1-14.6,95.5-14.2c-0.3-7.2-0.7-14.5-1.2-22
			c-1-14.3-2.5-28-4.2-41C810.3,757.8,804.9,760.5,798.3,763.6z"/>
		<path class="st8" d="M815.8,816.5c-0.1-1.3-25.8-3.6-56.9,0.8c-35.2,5-62.7,16.5-80.6,25.7c9.1,6.8,18.2,13.7,27.3,20.5
			c-4.9,29.9-9.7,59.8-14.6,89.7c10.1-16.6,21.5-39.8,28.1-69.1c2.6-11.7,4-22.5,4.7-32.4c-2.7-0.8-5.5-1.6-8.3-2.4
			c-6.5-1.8-12.8-3.4-19-4.7c4.9-2.2,11.8-5.2,20.2-8.3C771,816.1,815.8,818.1,815.8,816.5z"/>
		<path class="st9" d="M811.9,828.8"/>
	</g>
	<g id="hand_left">
		<path class="st10" d="M892.2,486.5c5.1-1.7,12.8,6.2,17.4,10.8c7.4,7.5,11.1,15.1,12.2,17.4c13.6,28.2,11.2,17,22.7,43.2
			c14.1,32.3,23.7,62.8,23.7,62.8c4.7,14.9,7.6,26,16.7,39.7c10.3,15.4,18.8,19.5,22.3,20.9c11.6,4.8,22.6,2.7,27.5,1.4
			c5.3-5.2,9.4-9.7,12.2-12.9c5.7-6.5,8.1-10,12.6-10.5c1-0.1,5.6-0.6,8,2.1c1.1,1.2,1.3,2.5,2.4,2.8c1.4,0.4,2.8-1.2,4.5-2.8
			c0.7-0.7,5.3-5,10.1-7c2.5-1.1,7.3-2.5,8.7-0.7c1.4,1.8-1.7,5.6-0.3,7c1.4,1.4,4.8-1.8,8.4-0.3c2,0.9,3.7,3.1,3.8,5.2
			c0.2,2.6-2,3.2-2.4,6.6c-0.4,2.8,0.9,3.3,0.7,5.6c-0.4,3.5-3.6,4-8,9.1c-2.5,2.9-1.8,3.1-6.3,9.8c-1.7,2.5-3.9,5.8-5.6,7.7
			c-6.6,7.4-17.8,8-23.7,8.4c-11.4,0.6-20.4-2.8-25.5-5.2c-3.4,2.4-8.6,5.4-15.3,7.7c-17.3,5.7-32.5,1.7-38.7,0
			c-24.7-6.9-39.2-25.6-48.8-38.4c-14.3-19-19.5-35.5-28.9-65.5c-2.9-9.1-11.6-38-15-76.7C886.2,517.1,883.9,489.3,892.2,486.5z"/>
		<g>
			<g>
				<path class="st2" d="M895,490.1c8.8,2.9,14.9,10,20,17.5c5.3,7.7,10,15.8,14.5,24.1c9.1,17,16.7,34.7,23.8,52.6
					c7.2,18,13.8,36.2,20.5,54.3c5.4,14.4,11.9,29.7,24.4,39.3c11.6,8.9,28.1,12.6,41.1,4.5c1.6-1,0.1-3.6-1.5-2.6
					c-13.8,8.6-31.6,2.6-42.3-8.3c-12.2-12.6-17.4-30.1-23.3-46.1c-12.5-34.2-25.3-69-43.2-100.9c-7.8-13.9-17-31.9-33.2-37.3
					C894,486.6,893.2,489.5,895,490.1L895,490.1z"/>
			</g>
		</g>
		<g>
			<g>
				<path class="st2" d="M894,587c8.9,30.8,16.4,63,34.7,89.8c15.1,22.2,37.5,39.9,65,42.1c14.9,1.2,30-2.4,42-11.4
					c1.5-1.1,0-3.8-1.5-2.6c-14,10.6-32.1,13.3-49.1,9.8c-16.8-3.5-31.3-13.2-42.8-25.6c-26.1-28.3-34.8-66.9-45.2-102.8
					C896.4,584.4,893.5,585.2,894,587L894,587z"/>
			</g>
		</g>
		<g>
			<g>
				<path class="st2" d="M1039.6,682.8c4.2-5.9,8.1-12.7,13.2-17.8c3-3,7.9-6,12.2-3.6c3.7,2.1,4,6.9,1.8,10.1
					c-1.1,1.6,1.5,3.1,2.6,1.5c4.7-6.7-0.2-15.7-8.4-15.3c-4.9,0.3-8.9,3.4-11.9,7.1c-4.3,5.2-8,11-12,16.5
					C1035.9,682.8,1038.5,684.3,1039.6,682.8L1039.6,682.8z"/>
			</g>
		</g>
		<g>
			<g>
				<path class="st2" d="M1053.5,669.7c-2.2,4.4,0.5,9.5,5.4,10.3c5.9,0.9,10.2-4.1,11.2-9.4c0.4-1.9-2.5-2.7-2.9-0.8
					c-0.6,3.2-2.3,6.5-5.8,7.2c-3.3,0.7-7-2.2-5.3-5.7C1056.9,669.5,1054.3,668,1053.5,669.7L1053.5,669.7z"/>
			</g>
		</g>
		<g>
			<g>
				<path class="st2" d="M1033.7,708.4c11.5,2.3,22.4,7.6,34.3,5.1c9.6-2,17.8-7.9,23.1-16c1.1-1.6-1.5-3.1-2.6-1.5
					c-5.2,7.9-13.4,13.4-22.8,14.9c-10.8,1.7-20.9-3.3-31.3-5.4C1032.6,705.2,1031.8,708.1,1033.7,708.4L1033.7,708.4z"/>
			</g>
		</g>
		<g>
			<g>
				<path class="st2" d="M1062,677c-3.2,1.9-2.8,6.3-0.1,8.6c2.3,1.9,5.4,1.6,8.2,1.6c4.8-0.1,8.8,0.7,13,3.1
					c1.7,0.9,3.2-1.6,1.5-2.6c-3.1-1.8-6.4-3-10-3.4c-1.7-0.2-3.4-0.1-5.2-0.1c-1.1,0-2.2,0.1-3.2-0.1c-1.2-0.3-5.1-3-2.7-4.4
					C1065.1,678.6,1063.6,676,1062,677L1062,677z"/>
			</g>
		</g>
		<g>
			<g>
				<path class="st2" d="M1064,678.3c7.5-4.3,16.7-3.4,23.1,2.5c1.4,1.3,3.5-0.8,2.1-2.1c-7.4-6.8-18-8-26.7-3
					C1060.8,676.7,1062.3,679.3,1064,678.3L1064,678.3z"/>
			</g>
		</g>
		<g>
			<g>
				<path class="st2" d="M1070.5,666.1c3.3-2.4,6.5-4.7,9.8-7.1c1.4-1,2.7-2,4.2-2.9c1-0.6,2-1.2,3.1-1.6c4.7-1.6,5.8,0.7,3.2,6.9
					c-1.8,0.6-1,3.5,0.8,2.9c5.4-1.9,7.3-9.2,1.7-12.3c-3.1-1.8-6.8-0.5-9.6,1.1c-5.1,2.9-9.8,7-14.6,10.4
					C1067.4,664.7,1068.9,667.3,1070.5,666.1L1070.5,666.1z"/>
			</g>
		</g>
		<g>
			<g>
				<path class="st2" d="M1076.9,674.1c4-2.5,8-5.1,12-7.6c1.8-1.1,3.6-2.4,5.6-3.3c1.5-0.8,3.1-1.1,4.8-1.1c3.5,0,4.8,2.1,3.9,6.2
					c-1.2,1.5,0.9,3.6,2.1,2.1c3.8-4.8,0.4-10.7-5.4-11.2c-3.8-0.4-7.2,1.5-10.3,3.4c-4.8,2.9-9.5,6-14.2,9
					C1073.7,672.5,1075.2,675.1,1076.9,674.1L1076.9,674.1z"/>
			</g>
		</g>
		<g>
			<g>
				<path class="st2" d="M1088.6,678.8c2.7-1.5,5.4-2.9,8.1-4.2c0.9-0.5,3.9-2.3,4.8-2.1c2.5,0.5,0.8,3,0.2,4
					c-1,1.6,1.6,3.2,2.6,1.5c1.6-2.6,3-7.7-1.3-8.5c-2.3-0.5-4.8,1.1-6.8,2.1c-3.1,1.5-6.2,3-9.2,4.7
					C1085.4,677.2,1087,679.8,1088.6,678.8L1088.6,678.8z"/>
			</g>
		</g>
		<g>
			<g>
				<path class="st2" d="M1084.4,678.1c7.2,4,8.6,12.9,2.9,18.9c-1.3,1.4,0.8,3.5,2.1,2.1c7-7.3,5.4-18.7-3.5-23.6
					C1084.3,674.6,1082.7,677.2,1084.4,678.1L1084.4,678.1z"/>
			</g>
		</g>
		<g>
			<g>
				<path class="st2" d="M1102.8,677c-3.2,4.1-6.9,7.7-11,10.7c-1.5,1.1-0.1,3.7,1.5,2.6c4.4-3.2,8.3-6.9,11.7-11.2
					C1106.1,677.6,1104,675.5,1102.8,677L1102.8,677z"/>
			</g>
		</g>
		<g>
			<g>
				<path class="st2" d="M1054.2,688.7c6.3,0.5,12.2,2.5,17.5,6c1.6,1.1,3.1-1.5,1.5-2.6c-5.8-3.7-12.1-5.8-19-6.4
					C1052.3,685.6,1052.3,688.6,1054.2,688.7L1054.2,688.7z"/>
			</g>
		</g>
		<path class="st11" d="M882.1,510.7c1.8,12.8,4.7,30.8,9,52.4c2.8,14,4.8,24.3,8.5,38c5.6,20.8,10.2,38.3,21,58.6
			c7.1,13.3,11.9,22.4,21.9,32.2c7.1,6.9,25.7,25.1,53.7,25.5c17.1,0.2,30.6-6.3,38.5-11.2c4.7,2.6,12.8,6.1,23.3,6.3
			c4.9,0.1,14.1,0.2,22.8-5.8c3-2.1,11-7.5,11.6-16.6c0.1-1.4,0.5-9-4.9-13c-6-4.4-15.8-1.8-16.6,1.3c-0.7,2.9,6.5,5.3,6.3,9.4
			c-0.3,5.2-12.1,8.4-14.3,9c-70.4,19-108.3-12.5-108.3-12.5c-11.5-9.6-17.6-20-31.8-55.5C911.1,599.6,896.4,559.7,882.1,510.7z"/>
	</g>
	<g id="hand_right">
		<path class="st10" d="M596.4,702.5c4.6,3.4,16.8,11.3,33.5,11.2c15.6-0.1,26.6-7.2,32.8-11.2c10.3-6.6,16.2-13.9,21.6-20.9
			c16.8-21.3,23.5-43.5,28.3-59.6c4.3-14.4,2.6-13.6,6.7-26.1c7.7-23.4,14.3-28.7,20.9-45.4c10.9-27.6,11.6-60.5,3-64.1
			c-4-1.6-9.9,3.1-21.6,12.7c-3.5,2.9-9.7,8-16.2,15.9c-5.2,6.4-14.3,19-24.4,49.1c-8.2,24.6-6.4,28.6-16.1,55.8
			c-6,16.9-9.8,23.8-14.4,30.1c-5.2,7-13.8,18.4-29.4,24.4c-11.9,4.6-22.6,4-28.5,3.2c-0.8-4-3.5-15-12.8-20.4
			c-2.3-1.4-7.9-4.6-11.9-2.2c-2.3,1.4-3.1,4-3.4,5.4c-4.4-6.2-9.2-8.9-11.9-10.1c-2.6-1.1-7.9-3.5-10.1-1.3c-2,2-0.2,6.6,0,7.2
			c-2.8-1.5-6-1.3-8.3,0.4c-1.7,1.3-3.6,3.9-2.9,6.7c0.5,1.9,2,3.1,2.5,3.4c-0.6,1.7-1.1,4.3-0.2,7c0.5,1.4,1.1,2.3,4.7,6.3
			c4.6,5.2,4.7,5,5.6,6.3c2.5,3.7,2,5.7,3.6,9c2.8,6.1,8.8,9,10.8,9.9c6.4,3.1,12.3,2.3,22,0.9C586.5,705.4,591.9,704,596.4,702.5z"
			/>
		<g>
			<g>
				<path class="st2" d="M742.9,483.7c-15.3,7.7-29.1,18.3-39.8,31.8c-10.7,13.5-18.1,29.1-23.7,45.3c-5.6,16.4-9.6,33.3-13.9,50
					c-4.1,16.2-11,33-21.8,45.9c-12.6,15.1-32.2,20.9-51.3,18.7c-1.9-0.2-1.9,2.8,0,3c15.1,1.7,30.8-1.2,43.3-10.1
					c13.2-9.4,21.5-25.1,27.4-39.9c6.3-15.7,9.1-32.8,13.7-49c4.9-17.5,10.9-34.9,20.5-50.4c11.4-18.5,27.7-32.9,47.1-42.6
					C746.2,485.4,744.6,482.8,742.9,483.7L742.9,483.7z"/>
			</g>
		</g>
		<g>
			<g>
				<path class="st2" d="M721.4,581.9c-9.1,34.6-16.5,71.9-39.3,100.6c-9.9,12.4-22.8,23-38.4,27.2c-16.2,4.4-33.7,1.9-46.8-8.9
					c-1.5-1.2-3.6,0.9-2.1,2.1c19.9,16.4,48.3,14.7,69.1,0.7c22.8-15.3,36.3-41.1,45.1-66.4c6.2-17.8,10.5-36.3,15.3-54.5
					C724.8,580.8,721.9,580,721.4,581.9L721.4,581.9z"/>
			</g>
		</g>
		<g>
			<g>
				<path class="st2" d="M594,676.9c-3.5-5.4-6.8-11.1-10.7-16.2c-2.7-3.6-6.3-7-11.1-7.4c-8.3-0.5-11.9,9-7.9,15.3
					c1,1.6,3.6,0.1,2.6-1.5c-1.9-3-1.8-8,1.6-10.1c4.8-3,9.7,1.9,12.3,5.3c3.9,5.1,7.1,10.7,10.6,16.1
					C592.4,680,595,678.5,594,676.9L594,676.9z"/>
			</g>
		</g>
		<g>
			<g>
				<path class="st2" d="M576.4,666.9c1.6,3.4-1.7,6.8-5.2,5.6c-2.9-1-4.2-4.3-4.7-7.1c-0.3-1.9-3.2-1.1-2.9,0.8
					c0.9,5,4.5,10.2,10.2,9.5c4.9-0.6,7.1-6.1,5.2-10.3C578.2,663.6,575.6,665.1,576.4,666.9L576.4,666.9z"/>
			</g>
		</g>
		<g>
			<g>
				<path class="st2" d="M596.1,701.2c-9.2,2-18.2,6.9-27.8,5.4c-9.1-1.4-16.7-7.2-21.3-14.9c-1-1.7-3.6-0.1-2.6,1.5
					c4.7,7.9,12.1,13.9,21.2,16c11,2.5,20.8-2.8,31.3-5.1C598.8,703.7,598,700.8,596.1,701.2L596.1,701.2z"/>
			</g>
		</g>
		<g>
			<g>
				<path class="st2" d="M569.7,675.2c0.7,0.5,0.8,1.5,0.5,2.2c-0.6,2-2.8,2.2-4.6,2.4c-1.9,0.1-3.8-0.2-5.8,0
					c-3.4,0.4-6.5,1.6-9.4,3.4c-1.6,1-0.1,3.6,1.5,2.6c3.7-2.3,7.4-3.2,11.8-3.1c2.6,0.1,5.3,0.3,7.4-1.5c2.7-2.2,3-6.7,0-8.6
					C569.6,671.6,568.1,674.2,569.7,675.2L569.7,675.2z"/>
			</g>
		</g>
		<g>
			<g>
				<path class="st2" d="M570.8,671.4c-7.9-5.1-17.9-3.7-24.5,3c-1.4,1.4,0.8,3.5,2.1,2.1c5.7-5.7,14-6.9,20.9-2.5
					C570.9,675,572.4,672.4,570.8,671.4L570.8,671.4z"/>
			</g>
		</g>
		<g>
			<g>
				<path class="st2" d="M565.2,659.4c-4.1-3.3-8.1-6.8-12.4-9.8c-2.6-1.8-5.9-3.6-9.1-2.4c-6.3,2.3-5,10.7,0.5,12.8
					c1.8,0.7,2.6-2.2,0.8-2.9c-3.7-4.4-3.4-6.4,0.9-6c1.6-0.8,3-0.7,4.2,0.3c1.7,0.8,3.3,2.5,4.8,3.6c2.7,2.2,5.5,4.4,8.2,6.6
					C564.5,662.7,566.7,660.6,565.2,659.4L565.2,659.4z"/>
			</g>
		</g>
		<g>
			<g>
				<path class="st2" d="M559,667.2c-4.3-3-8.6-6.1-12.9-9c-2.8-1.9-5.9-3.7-9.3-3.4c-5.4,0.5-8.7,6.4-5.4,11c1.1,1.5,3.7,0,2.6-1.5
					c-2.2-4-0.4-6.1,5.2-6.3c1.3,0.4,2.5,0.9,3.6,1.6c1.4,0.8,2.7,1.8,4,2.7c3.6,2.5,7.2,5,10.8,7.5
					C559.1,670.9,560.6,668.3,559,667.2L559,667.2z"/>
			</g>
		</g>
		<g>
			<g>
				<path class="st2" d="M548.3,671.9c-2.7-1.7-5.5-3.3-8.4-4.7c-1.9-1-4.5-2.8-6.8-2c-3.6,1.3-2.2,6.1-0.8,8.5
					c0.9,1.7,3.5,0.2,2.6-1.5c-0.3-0.6-1.4-2.4-1.1-3.1c0.4-1,2-0.4,2.7-0.2c0.8,0.2,1.6,0.8,2.4,1.2c2.7,1.4,5.3,2.9,7.9,4.5
					C548.4,675.5,550,672.9,548.3,671.9L548.3,671.9z"/>
			</g>
		</g>
		<g>
			<g>
				<path class="st2" d="M549.3,671.2c-8.4,5.2-9.5,16.3-3.2,23.6c1.3,1.5,3.4-0.7,2.1-2.1c-5-5.8-4.1-14.8,2.6-18.9
					C552.4,672.8,550.9,670.2,549.3,671.2L549.3,671.2z"/>
			</g>
		</g>
		<g>
			<g>
				<path class="st2" d="M531.7,674.5c3,4.2,6.5,8,10.6,11.3c1.5,1.2,3.6-0.9,2.1-2.1c-3.9-3.1-7.2-6.6-10.1-10.7
					C533.1,671.4,530.5,672.9,531.7,674.5L531.7,674.5z"/>
			</g>
		</g>
		<g>
			<g>
				<path class="st2" d="M578.2,681.4c-6.3,0.6-12.2,2.7-17.4,6.4c-1.6,1.1-0.1,3.7,1.5,2.6c4.8-3.4,10-5.5,15.9-6
					C580.2,684.2,580.2,681.2,578.2,681.4L578.2,681.4z"/>
			</g>
		</g>
		<path class="st12" d="M737.9,523.5c-12.5,30.4-22.1,54.9-28.2,70.9c-14.3,37.2-18.3,50.2-31.8,67.3
			c-11.5,14.5-25.1,32.6-48.1,36.1c-14.4,2.2-26.6-2.2-33.7-5.4c-1.8,1.4-15.5,11.2-28.8,6c-7.4-2.9-14.7-10.4-13.2-15
			c1.5-4.7,11.5-4.4,11.4-6.6c-0.1-1.8-7-4.3-13.2-2.4c-0.9,0.3-7,2.3-9,7.8c-2.6,7.3,4.2,14.8,6,16.8c9.2,10.2,23.3,9.7,25.8,9.6
			c10.1-0.3,17.5-4.8,21-7.2c4.5,3.8,12.4,9.4,23.4,11.4c20.3,3.8,36.7-7.6,45.7-13.2c25.7-16.3,35.4-42.3,43.3-61.9
			c3.8-9.5,5.5-15.7,14.8-53.6C729.1,560.1,734.1,539.5,737.9,523.5z"/>
		<path class="st12" d="M536,656.9c3.4-0.6,7.8,8.4,10.8,15.6c-1.5,7.7-3.4,9.4-4.8,9.6c-4,0.7-10.8-9.1-9.6-18
			C532.5,663.4,533.3,657.4,536,656.9z"/>
	</g>
	<g id="torso">
		<path class="st1" d="M741.8,484.4c-18.9,21.7-19.3,48.5-19.4,95.5c-0.1,56.9,10.1,104.8,21,140.5c16.4,4.9,40.2,10.1,69.1,10.1
			c28.5,0,52-5.2,68.3-10.1c3.7-15.3,8.6-37.8,12.4-65.2c13.1-92.9,21.7-154-12.4-184C846.4,441,774.1,447.3,741.8,484.4z"/>
		<path class="st13" d="M835.5,453.9c4.3,8.8,10,22.4,13.6,39.7c3.3,15.8,8.4,50.9-20.5,138.3c-8.2,24.9-20.6,58.3-39.1,96.7
			c7.9,0.8,16.4,1.3,25.4,1.2c25.7-0.1,48-4.3,65.7-9.3c7.6-37.2,13-68.9,16.7-93c4.6-29.6,7.8-54.6,6.8-86.2
			c-1.2-40-8-51.6-11.8-57C876,460.5,846.6,455.3,835.5,453.9z"/>
		<path class="st7" d="M902.5,513.4c-4.5,13.6-11,34.6-17.4,60.8c-8,32.7-9.2,46.4-13.6,63.9c-5.9,22.8-18.2,55-47.1,91.8
			c9.5,0.3,22.2-0.4,36.6-4.3c7.6-2.1,14.3-4.8,19.8-7.4c5.1-27.8,9.6-53.9,13.6-78.1c7.1-42.4,9.6-59.9,9.9-83.1
			C904.6,538.7,903.5,523.7,902.5,513.4z"/>
	</g>
	<g id="head">
		<path class="st1" d="M791.1,430.3c-3.3,4.5-1.7,8.6-2.4,25.4c-0.5,11-1.6,19.8-2.4,25.4c3.4,2.4,13,8.5,26.6,8.5
			c16,0,26.7-8.4,29.6-10.9c-1.3-3.6-2.9-9-4.2-15.7c-3.7-19.1,0.1-25-4.2-31.5C826.4,420,799,419.5,791.1,430.3z"/>
		<path class="st1" d="M750.6,376.4c-0.4,14.2,2.8,24.8,5.4,33.3c3.9,12.5,8.2,26.5,20.6,39.3c10.8,11.2,23.4,17,33.3,20
			c7.6-3.1,20.1-9.4,31.5-21.8c12.4-13.5,17.1-27.2,20.6-37.5c3-8.9,8.1-25,6-46c-1.5-14.7-3.1-30.6-15.7-42.9
			c-18.6-18.1-45.8-13.4-49.6-12.7c-26.4,4.9-39.7,25.8-42.9,31.5C751.2,354.2,750.8,368.5,750.6,376.4z"/>
		<g>
			<g>
				<path class="st2" d="M803.1,387.3c-0.6,12.8,0.6,25.5,3.7,37.9c0.3,1,1.8,1.5,2.5,0.7c2.3-2.7,3.8-5.6,4.5-9.1
					c0.4-1.9-2.5-2.7-2.9-0.8c-0.6,3.1-1.7,5.4-3.7,7.8c0.8,0.2,1.7,0.4,2.5,0.7c-3-12.2-4.1-24.6-3.6-37.1
					C806.1,385.4,803.1,385.4,803.1,387.3L803.1,387.3z"/>
			</g>
		</g>
		<g>
			<g>
				<path class="st2" d="M824.1,391.7c7.1,7.5,21.4,9.6,25.2-2.5c0.6-1.8-2.3-2.6-2.9-0.8c-3.1,9.9-14.7,6.8-20.1,1.1
					C824.8,388.2,822.7,390.3,824.1,391.7L824.1,391.7z"/>
			</g>
		</g>
		<g>
			<g>
				<path class="st2" d="M774,411.1c0-0.3-0.1,0.1-0.2,0.1c-0.1,0.1-0.3,0.1-0.5,0.1c-0.3-0.6-0.7-1.2-1-1.8
					c0.1-0.1,0.1-0.2,0.2-0.3c-0.8,0.2-1.3,1-1,1.8c0.2,0.8,1.1,1.3,1.8,1c0.9-0.3,1.5-0.9,1.9-1.8c0.3-0.7-0.3-1.7-1-1.8
					c-1.3-0.3-2.8,0.4-3.1,1.8c-0.1,0.8,0.2,1.7,1,1.8C772.9,412.4,773.9,412,774,411.1L774,411.1z"/>
			</g>
		</g>
		<g>
			<g>
				<path class="st2" d="M788.8,407.2c-0.2,1.5-0.6,1.6-1.2,0.3c-1.1-0.9-0.9-1.3,0.6-1.1c-0.7-0.4-1.6-0.2-2.1,0.5
					c-0.4,0.7-0.2,1.7,0.5,2.1c1.7,1,3.8-1.2,2.5-2.8c-1.3-1.6-3.9-0.2-3.4,1.7c0.2,0.8,1.1,1.3,1.8,1
					C788.6,408.9,789,408,788.8,407.2L788.8,407.2z"/>
			</g>
		</g>
		<g>
			<g>
				<path class="st2" d="M783.4,417.6c0,0.2-0.1,0.4-0.3,0.6c0.2-0.2-0.2,0.1-0.1,0c0.1-0.1-0.3,0.1,0,0c-0.2,0-0.3,0-0.2,0
					c0.1,0,0.1,0-0.2,0c-0.1,0-0.1-0.1-0.2-0.1c0.1,0.1,0.1,0-0.1-0.1c-0.4-0.4-0.4-1-0.1-1.4c0.4-0.4,1.1-0.2,1.3,0.2
					c-0.4-0.7-1.3-0.9-2.1-0.5c-0.7,0.4-1,1.4-0.5,2.1c0.6,1,1.9,1.3,2.9,0.7c1-0.5,1.4-1.8,0.8-2.8c-1.2-1.9-4.4-0.8-4.4,1.3
					c0,0.8,0.7,1.5,1.5,1.5C782.7,419.1,783.4,418.5,783.4,417.6L783.4,417.6z"/>
			</g>
		</g>
		<g>
			<g>
				<path class="st2" d="M834.3,404.9c0.7,0.1,1.1,0.5,1.2,1c0.1,0.6-0.3,1-1.2,1.3c-0.3-0.1-0.5-0.1-0.8-0.2
					c-0.5-0.3-0.6-0.7-0.3-1.2c0.5-0.8,2-0.5,1.7,0.6c0.2-0.8-0.2-1.7-1-1.8c-0.8-0.2-1.6,0.2-1.8,1c-0.4,1.4,0.8,2.9,2.3,2.7
					c1.3-0.2,2.1-1.5,1.7-2.8c-0.2-0.7-0.9-1.3-1.7-1.3c-0.6,0-1.2,0.4-1.5,0.9c-0.6,1.1,0.2,2.9,1.6,2.8c0.8-0.1,1.5-0.6,1.5-1.5
					C835.8,405.7,835.2,404.8,834.3,404.9L834.3,404.9z"/>
			</g>
		</g>
		<g>
			<g>
				<path class="st2" d="M845.6,406C845.7,406,845.7,405.9,845.6,406c-0.1,0.1-0.3,0.3-0.5,0.5c-0.6-0.2-1.1-0.4-1.7-0.7
					c0-0.3,0-0.5,0-0.8c0-0.1,0.1-0.1,0.1-0.2c0.2-0.2,0.4-0.4,0.5-0.5c0.6,0.2,1.1,0.4,1.7,0.7c0,0.3,0,0.5,0,0.8c0,0,0-0.1,0-0.1
					c0.2-0.8-0.2-1.7-1-1.8c-0.8-0.2-1.6,0.2-1.8,1c-0.5,2,2.5,3.2,3.4,1.2c0.4-0.8,0-1.8-0.8-2.2c-0.9-0.5-1.9-0.2-2.4,0.6
					c-0.5,0.7-0.1,1.7,0.5,2.1C844.3,407,845.2,406.6,845.6,406L845.6,406z"/>
			</g>
		</g>
		<g>
			<g>
				<path class="st2" d="M840.1,415.9c-0.1-0.3,0,0-0.1,0.1c0,0.1-0.3,0.3,0,0.1c-0.8-0.1-1.6-0.2-2.4-0.3c-0.6-0.9,0.5-1.7,1.3-1.3
					c-0.7-0.4-1.6-0.2-2.1,0.5c-0.4,0.7-0.2,1.7,0.5,2.1c0.8,0.4,1.8,0.3,2.4-0.4c0.6-0.6,0.8-1.7,0.3-2.5c-0.5-0.8-1.7-1-2.4-0.3
					c-0.7,0.7-1,1.8-0.7,2.7c0.3,0.8,1,1.3,1.8,1C839.8,417.6,840.4,416.7,840.1,415.9L840.1,415.9z"/>
			</g>
		</g>
		<g>
			<g>
				<path class="st2" d="M796.5,433.5c7.1,7.4,18.4,7.2,25.1-0.7c1.2-1.5-0.9-3.6-2.1-2.1c-5.6,6.6-14.8,7-20.9,0.7
					C797.3,430,795.2,432.1,796.5,433.5L796.5,433.5z"/>
			</g>
		</g>
		<g>
			<g>
				<path class="st2" d="M778.1,372.9c3-3.3,7.2-4.7,11.6-3.8c1.9,0.4,2.7-2.5,0.8-2.9c-5.4-1.1-10.8,0.5-14.5,4.6
					C774.7,372.2,776.8,374.3,778.1,372.9L778.1,372.9z"/>
			</g>
		</g>
		<g>
			<g>
				<path class="st2" d="M825.1,366.8c4.6-0.5,8.8,0.6,12.5,3.3c1.6,1.1,3.1-1.5,1.5-2.6c-4.1-3-9-4.3-14-3.7
					C823.2,364,823.2,367,825.1,366.8L825.1,366.8z"/>
			</g>
		</g>
		<g>
			<g>
				<path class="st2" d="M772.7,392.6c7.1,7.5,21.4,9.6,25.2-2.5c0.6-1.8-2.3-2.6-2.9-0.8c-3.1,9.9-14.7,6.8-20.1,1.1
					C773.5,389,771.3,391.2,772.7,392.6L772.7,392.6z"/>
			</g>
		</g>
		<path class="st3" d="M805.7,329.8c6.5,7.8,14.3,16.2,23.7,24.7c12.8,11.6,25.3,20.6,36.2,27.4c-0.6,9-2.5,22.8-9.3,38.3
			c-6.7,15.4-15.6,26.1-21.7,32.6c-0.6,4.8-0.8,13,3.1,21.2c9.1,19.1,35.3,27.7,55.4,21.2c2.4-0.8,19.3-6.5,24.8-21.7
			c1.5-4.2,2.3-9.3,0-22.8c-3.3-19.5-9.1-33.8-10.8-38.2c-4.8-12.2-11-29.8-16.6-52.8c-1.8-8-9.2-36.7-35.2-53.3
			c-6.8-4.4-21.4-13.7-39.8-10.9c-8,1.2-14.2,4.3-18.1,6.7c-8.4,0.7-23.4,3.1-37.8,13.5c-32.6,23.4-31.7,65.6-31.6,69.9
			c-1,5.3-2.7,13.3-5.7,22.8c-7.4,23.2-13.6,26.1-15,40.4c-0.4,3.6-2.2,21.8,9.8,36.7c2.5,3.1,10.2,12.4,23.3,15
			c17.4,3.5,36.1-6.3,43.8-21.7c4.3-8.6,4.2-16.9,3.8-21.3c-2.9-2.6-29.6-26.8-26.4-64.5C765.2,350.1,803.9,330.7,805.7,329.8z"/>
		<path class="st6" d="M842.7,366.1c1.8,6.8,3.8,17.1,2.7,29.5c-1.4,15.8-7,26.9-12.8,38.3c-4.6,9-11.8,21.3-23.2,34.2
			c1.8-0.3,3.9-0.9,6-1.7c4.9-1.8,8.6-4.3,11.1-6.4c-0.8,9.4-1.6,18.8-2.3,28.2c5.7-2.5,11.4-4.9,17.1-7.4
			c-1.2-10-2.5-19.9-3.7-29.9c2.4-3,5.8-7.4,9.4-13.1c5-7.9,12.1-19.3,15.8-35.2c1.2-5.1,2.4-12.6,2.3-21.8
			C857.7,376,850.2,371,842.7,366.1z"/>
		<path class="st14" d="M865.2,382.6c-0.8-0.2-3,10.1-9.7,25.5c0,0-5,11.4-10.7,21.1c-5.3,9-15.8,24.1-35.6,39.9c2.2,1,4.5,2,6.7,3
			c6.5-0.7,13-1.3,19.5-2c-0.3-5.5-0.7-11-1-16.4c7.8-8,18.5-21.1,25.2-39.9C865,398.1,866.2,382.8,865.2,382.6z"/>
		<path class="st15" d="M715.5,426.9c-0.2,3.3,0,9,2.7,15.1c3.9,8.7,13,18.2,22.8,18.1c11.9-0.1,25.1-14.5,24.5-34.9
			c1.9,4.8,4.8,10.6,9.1,16.8c4.9,7.1,10.2,12.4,14.4,16.1c0.1,3.3-0.2,8.4-2,14.1c-1,3.2-3.5,9.7-9.1,15.8
			c-2.4,2.6-10.2,11-22.8,13.1c-18.3,3-32.1-9.7-34.6-12.1c-16.4-15.7-13.6-37.9-13.1-41.3C708.8,438,712.8,430.9,715.5,426.9z"/>
		<path class="st16" d="M865.9,382.2c0.8,4.9,1.9,12.7,2.7,22.5c1.7,21,0,26.6,3.4,37.3c0.5,1.7,8.2,25.3,19.5,25.5
			c8.8,0.2,18.6-13.6,22.5-33.9c3.1,10.1,4.4,18.7,5,24.8c1,9.9,0.1,13.2-0.3,14.8c-2.8,9.1-10.2,14.1-14.1,16.8
			c-13.8,9.4-28.7,8-30.9,7.7c-3.5-0.4-19.7-2.5-30.5-16.1c-1.7-2.1-7.1-9.2-8.7-19.8c-0.5-3.5-0.5-6.6-0.3-8.7
			c6.1-6,14.2-15.5,20.8-28.9C863.2,407.2,865.3,391.7,865.9,382.2z"/>
	</g>
</g>
</svg>
