<?xml version="1.0" encoding="utf-8"?>
<!-- Generator: Adobe Illustrator 19.0.0, SVG Export Plug-In . SVG Version: 6.00 Build 0)  -->
<svg version="1.1" xmlns="http://www.w3.org/2000/svg" xmlns:xlink="http://www.w3.org/1999/xlink" x="0px" y="0px"
	 viewBox="0 0 1600 1200" style="enable-background:new 0 0 1600 1200;" xml:space="preserve">
<style type="text/css">
	.st0{fill:#E8E8E8;}
	.st1{fill:#EC615B;}
	.st2{fill:#5222D0;}
	.st3{fill:#161616;}
	.st4{opacity:0.15;fill:#6D6C6C;}
	.st5{opacity:0.13;fill:#6D6C6C;}
	.st6{fill:#FFFFFF;}
	.st7{fill:#FFFFFF;stroke:#161616;stroke-width:2;stroke-miterlimit:10;}
	.st8{fill:#161616;stroke:#161616;stroke-width:2;stroke-miterlimit:10;}
	.st9{opacity:0.23;fill:#6D6C6C;}
	.st10{opacity:0.2;fill:#6D6C6C;}
	.st11{opacity:0.21;fill:#6D6C6C;}
	.st12{opacity:0.18;fill:#6D6C6C;}
	.st13{opacity:0.17;fill:#6D6C6C;}
	.st14{opacity:0.12;fill:#6D6C6C;}
	.st15{opacity:8.000000e-002;fill:#6D6C6C;}
	.st16{opacity:0.1;fill:#6D6C6C;}
	.st17{opacity:0.29;fill:#6D6C6C;}
	.st18{opacity:0.33;fill:#6D6C6C;}
</style>
<g id="background">
	<g>
		<g>
			<path class="st0" d="M734.2,1008.5c0-37.2,0-74.5,0-111.7c0-1.9-3-1.9-3,0c0,37.2,0,74.5,0,111.7
				C731.2,1010.5,734.2,1010.5,734.2,1008.5L734.2,1008.5z"/>
		</g>
	</g>
	<g>
		<g>
			<path class="st0" d="M733.5,896.6c56.9,0,113.7,0,170.6,0c1.9,0,1.9-3,0-3c-56.9,0-113.7,0-170.6,0
				C731.6,893.6,731.6,896.6,733.5,896.6L733.5,896.6z"/>
		</g>
	</g>
	<g>
		<g>
			<path class="st0" d="M902.6,897.7c0,35.2,0,70.5,0,105.7c0,1.9,3,1.9,3,0c0-35.2,0-70.5,0-105.7
				C905.6,895.8,902.6,895.7,902.6,897.7L902.6,897.7z"/>
		</g>
	</g>
	<g>
		<g>
			<path class="st0" d="M744.8,910.7c-3.2-2.5-0.9-7.7,3.2-6.4c1.9,0.6,3.2,2.7,2.2,4.6c-1.1,2.1-4,2.3-5.4,0.4
				c-1.1-1.5-3.7,0-2.6,1.5c2.3,3,6.7,3.9,9.5,1c2.8-2.8,2.2-7.5-1-9.6c-2.8-1.9-7-1.6-9.1,1.2c-2.1,2.8-1.7,7.1,1.1,9.3
				C744.2,914,746.3,911.9,744.8,910.7L744.8,910.7z"/>
		</g>
	</g>
	<g>
		<g>
			<path class="st0" d="M885.6,908.2c-2.6-4.7,4.2-9.6,7.3-4.6c2.9,4.7-3.8,8.5-7.1,4.9c-1.3-1.4-3.4,0.7-2.1,2.1
				c2.6,2.8,7,3.1,10.1,0.9c3.3-2.3,3.7-6.7,1.4-9.9c-2.3-3.2-6.6-4.4-9.9-2c-3.1,2.3-4.3,6.7-2.3,10.1
				C883.9,911.4,886.5,909.9,885.6,908.2L885.6,908.2z"/>
		</g>
	</g>
	<g>
		<g>
			<path class="st0" d="M752.7,919.4c37.7,0,75.3,0,113,0c1.9,0,1.9-3,0-3c-37.7,0-75.3,0-113,0
				C750.8,916.4,750.8,919.4,752.7,919.4L752.7,919.4z"/>
		</g>
	</g>
	<g>
		<g>
			<path class="st0" d="M755.8,925.6c25.8,0,51.6,0,77.4,0c1.9,0,1.9-3,0-3c-25.8,0-51.6,0-77.4,0
				C753.9,922.6,753.9,925.6,755.8,925.6L755.8,925.6z"/>
		</g>
	</g>
	<g>
		<g>
			<path class="st0" d="M842,926.3c8.1,0,16.2,0,24.3,0c1.9,0,1.9-3,0-3c-8.1,0-16.2,0-24.3,0C840,923.3,840,926.3,842,926.3
				L842,926.3z"/>
		</g>
	</g>
	<g>
		<g>
			<path class="st0" d="M1278.8,580.4c53.3,0,106.6,0,159.8,0c1.9,0,1.9-3,0-3c-53.3,0-106.6,0-159.8,0
				C1276.9,577.4,1276.9,580.4,1278.8,580.4L1278.8,580.4z"/>
		</g>
	</g>
	<g>
		<g>
			<path class="st0" d="M1363.9,577.7c0,12.4,0,24.8,0,37.3c0,1.9,3,1.9,3,0c0-12.4,0-24.8,0-37.3
				C1366.9,575.8,1363.9,575.8,1363.9,577.7L1363.9,577.7z"/>
		</g>
	</g>
	<g>
		<g>
			<path class="st0" d="M1318.3,618.3c40,0,80.1,0,120.1,0c1.9,0,1.9-3,0-3c-40,0-80.1,0-120.1,0
				C1316.4,615.3,1316.4,618.3,1318.3,618.3L1318.3,618.3z"/>
		</g>
	</g>
	<g>
		<g>
			<path class="st0" d="M1407.1,620.3c0,12.3,0,24.5,0,36.8c0,1.9,3,1.9,3,0c0-12.3,0-24.5,0-36.8
				C1410.1,618.4,1407.1,618.4,1407.1,620.3L1407.1,620.3z"/>
		</g>
	</g>
	<g>
		<g>
			<path class="st0" d="M645.8,443.6c-3.3-5-1.5-11.7,4.3-13.9c5.4-2,11.7,1.2,13.3,6.8c1.5,5.1-2.1,10.8-7.2,12.2
				c-6.2,1.7-11.9-3.6-12.2-9.6c-0.1-1.9-3.1-1.9-3,0c0.3,7.4,6.8,14,14.5,12.8c7.3-1.1,12.8-9,10.7-16.2
				c-2.1-7.2-10.1-11.6-17.2-8.9c-7.5,2.8-10.3,11.6-5.9,18.3C644.2,446.7,646.8,445.2,645.8,443.6L645.8,443.6z"/>
		</g>
	</g>
	<g>
		<g>
			<path class="st0" d="M629.2,424.4c3.3-5.6,8.1-9.9,14.3-12c1.8-0.6,1-3.5-0.8-2.9c-6.9,2.3-12.5,7.1-16.1,13.4
				C625.6,424.6,628.2,426.1,629.2,424.4L629.2,424.4z"/>
		</g>
	</g>
	<g>
		<g>
			<path class="st0" d="M640.7,402.6c0.7,2.8,1.5,5.5,2.2,8.3c0.5,1.9,3.4,1.1,2.9-0.8c-0.7-2.8-1.5-5.5-2.2-8.3
				C643.1,400,640.2,400.8,640.7,402.6L640.7,402.6z"/>
		</g>
	</g>
	<g>
		<g>
			<path class="st0" d="M643.1,402c3.3-0.3,6.6-0.6,9.9-0.7c0.4,0,1.9-0.3,2.2-0.1c0.4,0.3,0.4,1.8,0.5,2.2c0.3,1.7,0.5,3.4,0.7,5.1
				c0.2,1.9,3.3,1.9,3,0c-0.3-2.4-0.6-4.8-0.9-7.2c-0.2-1.2-0.5-2.3-1.7-2.9c-1.7-0.8-4.1-0.2-5.9-0.1c-2.6,0.1-5.1,0.4-7.7,0.6
				C641.2,399.2,641.2,402.2,643.1,402L643.1,402z"/>
		</g>
	</g>
	<g>
		<g>
			<path class="st0" d="M627.1,422.6c-2.1-0.8-6.7-3.8-8.4-1.1c-1,1.6-0.8,4.4-1.1,6.2c-0.5,3.1-1,6.2-1.5,9.4
				c-0.1,0.7,0.1,1.3,0.7,1.7c2.3,1.4,4.5,2,7.2,1.6c1.9-0.2,1.9-3.2,0-3c-2.1,0.3-3.8-0.1-5.7-1.2c0.2,0.6,0.5,1.1,0.7,1.7
				c0.6-3.8,1.2-7.6,1.8-11.4c0.1-0.9,0.3-1.8,0.4-2.7c0.2-1.1-0.9-0.5,0-0.2c1.7,0.5,3.4,1.3,5.1,1.9
				C628.1,426.2,628.9,423.3,627.1,422.6L627.1,422.6z"/>
		</g>
	</g>
	<g>
		<g>
			<path class="st0" d="M622.8,439.9c0.1,6.1,2.6,11.8,7.3,15.8c1.5,1.2,3.6-0.9,2.1-2.1c-4.1-3.5-6.3-8.3-6.4-13.7
				C625.7,438,622.7,438,622.8,439.9L622.8,439.9z"/>
		</g>
	</g>
	<g>
		<g>
			<path class="st0" d="M630.5,454.4c-2.9,2.2-7.9,4.8-4.6,8.8c3.3,4,8.9,7,13.4,9.3c1.7,0.9,3.2-1.7,1.5-2.6
				c-3.2-1.6-6.2-3.4-9-5.6c-1.2-0.9-4.3-2.7-3.4-4.5c0.5-1.2,3.2-2.5,4.2-3.3C634.1,455.4,632,453.3,630.5,454.4L630.5,454.4z"/>
		</g>
	</g>
	<g>
		<g>
			<path class="st0" d="M641.2,472.3c1.8-2.5,3.4-5,4.9-7.7c1-1.7-1.6-3.2-2.6-1.5c-1.5,2.7-3.2,5.2-4.9,7.7
				C637.4,472.3,640.1,473.8,641.2,472.3L641.2,472.3z"/>
		</g>
	</g>
	<g>
		<g>
			<path class="st0" d="M643.9,463.3c1.1,2.9,4.3,3.1,7.1,3.5c4,0.7,7.9,0.8,11.7-0.5c1.8-0.6,1-3.5-0.8-2.9c-2.4,0.8-4.9,1-7.5,0.8
				c-1.2-0.1-7.1-0.4-7.7-1.8C646.1,460.8,643.2,461.5,643.9,463.3L643.9,463.3z"/>
		</g>
	</g>
	<g>
		<g>
			<path class="st0" d="M660.1,465.3c0.7,2.4,1.1,7.1,3.1,8.8c1.6,1.4,4.6,0.2,6.2-0.2c3.4-0.8,6.7-2,9.9-3.4c2.1-1,4.4-1.6,4.7-4.1
				c0.2-1.9-2.8-1.9-3,0c-0.1,0.6-5.8,2.6-6.1,2.7c-1.6,0.6-3.2,1.1-4.8,1.5c-1.9,0.5-3.7,1.5-5.2-0.5c-1-1.3-1.3-4.2-1.7-5.7
				C662.4,462.6,659.5,463.4,660.1,465.3L660.1,465.3z"/>
		</g>
	</g>
	<g>
		<g>
			<path class="st0" d="M683.9,466.4c-0.9-3.3-2.3-6.4-4.4-9.1c-1.2-1.5-3.8,0-2.6,1.5c1.9,2.5,3.3,5.3,4.1,8.4
				C681.5,469.1,684.4,468.3,683.9,466.4L683.9,466.4z"/>
		</g>
	</g>
	<g>
		<g>
			<path class="st0" d="M677.4,459.1c2.2-0.2,3.1-1.9,3.8-3.8c1.2-3.1,2.2-6.3,2.9-9.6c0.4-1.9-2.5-2.7-2.9-0.8
				c-0.4,1.9-0.9,3.8-1.5,5.7c-0.2,0.8-1.4,5.4-2.3,5.5C675.5,456.3,675.5,459.3,677.4,459.1L677.4,459.1z"/>
		</g>
	</g>
	<g>
		<g>
			<path class="st0" d="M657.5,410.4c4.4,0.9,8,3.2,10.9,6.6c1.2,1.5,3.4-0.6,2.1-2.1c-3.2-3.8-7.4-6.4-12.2-7.4
				C656.4,407.2,655.6,410.1,657.5,410.4L657.5,410.4z"/>
		</g>
	</g>
	<g>
		<g>
			<path class="st0" d="M670.3,415.7c1.1-1.4,2.1-2.9,3.2-4.3c0.6-0.9,1.3-1.7,1.9-2.6c0.9-0.4,1.6-0.1,2.1,0.9
				c2.8,1.9,5.2,5.5,7.5,8c-0.1-0.6-0.2-1.2-0.2-1.8c-1.5,3-3.4,5.7-5.8,8c-1.4,1.4,0.7,3.5,2.1,2.1c2.6-2.6,4.7-5.4,6.3-8.7
				c0.3-0.6,0.2-1.3-0.2-1.8c-2.2-2.3-4.4-4.7-6.5-7c-1.1-1.2-2.3-3-4-3.3c-3.8-0.6-7.1,6.6-8.8,8.9
				C666.6,415.7,669.2,417.2,670.3,415.7L670.3,415.7z"/>
		</g>
	</g>
	<g>
		<g>
			<path class="st0" d="M677,426.5c0.8,1.1,1.3,2.3,1.6,3.6c0.5,1.9,3.4,1.1,2.9-0.8c-0.4-1.5-1-3-1.9-4.3c-0.5-0.7-1.3-1-2.1-0.5
				C676.9,424.8,676.6,425.8,677,426.5L677,426.5z"/>
		</g>
	</g>
	<g>
		<g>
			<path class="st0" d="M681,430.7c3-0.4,5.9-1,8.8-1.8c1.9-0.5,1.1-3.4-0.8-2.9c-2.9,0.8-5.9,1.4-8.8,1.8
				C678.3,428.1,679.1,431,681,430.7L681,430.7z"/>
		</g>
	</g>
	<g>
		<g>
			<path class="st0" d="M688,428.6c1.4,4.8,2.1,9.7,2.3,14.8c0.1,1.9,3.1,1.9,3,0c-0.2-5.3-1-10.5-2.4-15.6
				C690.3,425.9,687.4,426.7,688,428.6L688,428.6z"/>
		</g>
	</g>
	<g>
		<g>
			<path class="st0" d="M690.5,443.1c-2.4,1-4.8,1.1-7.3,0.2c-1.8-0.6-2.6,2.3-0.8,2.9c2.9,1,6,0.9,8.9-0.2
				C693.1,445.3,692.3,442.4,690.5,443.1L690.5,443.1z"/>
		</g>
	</g>
	<g>
		<g>
			<path class="st0" d="M576.3,409.9c-12.9-0.8-19.4-15.2-12.6-25.9c5.3-8.5,18.1-10.7,26.1-4.9c7.6,5.6,9.5,17.7,3.8,25.2
				c-6,7.9-17.8,8.7-25.4,2.9c-1.5-1.2-3,1.4-1.5,2.6c9.2,7,23.8,5.1,30.2-4.8c6.4-9.9,2.6-24.7-8-30c-10.6-5.2-24.5-0.5-29.2,10.4
				c-5.4,12.7,3,26.7,16.7,27.6C578.2,413,578.2,410,576.3,409.9L576.3,409.9z"/>
		</g>
	</g>
	<g>
		<g>
			<path class="st0" d="M532.9,411.2c-4.2-10.7-4.7-22-0.8-32.8c0.7-1.8-2.2-2.6-2.9-0.8c-4.1,11.3-3.6,23.3,0.8,34.4
				C530.7,413.8,533.6,413,532.9,411.2L532.9,411.2z"/>
		</g>
	</g>
	<g>
		<g>
			<path class="st0" d="M517.2,371.3c4.5,1.9,8.9,3.9,13.4,5.8c1.8,0.8,3.3-1.8,1.5-2.6c-4.5-1.9-8.9-3.9-13.4-5.8
				C517,368,515.4,370.5,517.2,371.3L517.2,371.3z"/>
		</g>
	</g>
	<g>
		<g>
			<path class="st0" d="M517.9,367.7c2.9-4.6,5.8-9.8,9.5-13.9c1-1.1,2.5-3.1,4.2-2.9c0.8,0.1,2.3,1.4,3,1.8c2.5,1.5,5,3,7.5,4.5
				c1.7,1,3.2-1.6,1.5-2.6c-3.5-2.1-6.9-4.5-10.6-6.3c-1.8-0.9-3.1-1.3-4.9-0.3c-2.3,1.4-4.1,5.2-5.6,7.3c-2.5,3.6-4.9,7.2-7.3,10.9
				C514.3,367.8,516.9,369.3,517.9,367.7L517.9,367.7z"/>
		</g>
	</g>
	<g>
		<g>
			<path class="st0" d="M529.9,412.3c-2.6,1.6-7.8,3.5-9.6,6c-0.8,1.1-0.8,1.9-0.4,3.2c1,2.7,5.4,6,7.3,8.1c3.5,3.8,7,7.6,10.5,11.4
				c0.3,0.4,1,0.6,1.5,0.4c4.2-1.4,7.3-3.9,9.5-7.7c1-1.7-1.6-3.2-2.6-1.5c-1,1.7-2.4,3.7-4.2,4.7c-2.3,1.2-2.9,0.8-4.7-0.8
				c-2.9-2.4-5.3-5.8-7.9-8.6c-1.3-1.4-2.6-2.9-4-4.3c-0.5-0.5-2.7-2.5-2.7-2.9c0-0.8,8-4.9,8.7-5.3
				C533.1,413.9,531.6,411.3,529.9,412.3L529.9,412.3z"/>
		</g>
	</g>
	<g>
		<g>
			<path class="st0" d="M548.4,434.9c8.1,6.1,18,8.6,28,6.6c1.9-0.4,1.1-3.3-0.8-2.9c-9.2,1.8-18.2-0.7-25.6-6.3
				C548.4,431.1,546.9,433.7,548.4,434.9L548.4,434.9z"/>
		</g>
	</g>
	<g>
		<g>
			<path class="st0" d="M576,440.4c-0.1,5.9-2.1,15.2,6.4,14.6c8.8-0.7,17.9-4.3,25.8-8c1.7-0.8,0.2-3.4-1.5-2.6
				c-5.6,2.6-11.4,4.7-17.3,6.2c-3,0.7-6.5,2.3-8.9,0.2c-2.4-2.1-1.4-7.3-1.4-10.4C579,438.4,576,438.4,576,440.4L576,440.4z"/>
		</g>
	</g>
	<g>
		<g>
			<path class="st0" d="M609.1,445.8c-1.4-5-3.1-9.9-5-14.7c-0.7-1.8-3.6-1-2.9,0.8c1.9,4.8,3.6,9.7,5,14.7
				C606.7,448.4,609.6,447.6,609.1,445.8L609.1,445.8z"/>
		</g>
	</g>
	<g>
		<g>
			<path class="st0" d="M601.6,431.3c4.7,1.8,9.5-4.2,12.5-7.1c4.3-4.1,7.9-8.7,9.9-14.4c0.6-1.8-2.3-2.6-2.9-0.8
				c-1.5,4.4-4.1,8-7.3,11.3c-2.1,2.1-8.2,9.3-11.4,8.1C600.6,427.7,599.8,430.6,601.6,431.3L601.6,431.3z"/>
		</g>
	</g>
	<g>
		<g>
			<path class="st0" d="M621.2,411.9c2.8,1.1,5.6,2.2,8.4,3.4c1.6,0.6,4,2.1,5.8,1.7c3.5-0.8,5.2-7.1,6.4-9.9
				c2.1-4.9,3.8-9.9,5-15.1c0.7-2.8,2.5-7.1-0.5-8.9c-1.6-1-3.1,1.6-1.5,2.6c1.1,0.7-1.8,9.3-2.2,10.6c-1.1,3.7-2.5,7.4-4.1,10.9
				c-0.7,1.5-1.3,3.4-2.3,4.6c-1.6,2-1.5,1.9-4.2,1.3c-3.4-0.8-6.9-2.7-10.1-4C620.2,408.3,619.4,411.2,621.2,411.9L621.2,411.9z"/>
		</g>
	</g>
	<g>
		<g>
			<path class="st0" d="M647.1,383.3c-5.4-2.4-10.9-3.7-16.8-3.8c-1.9,0-1.9,3,0,3c5.3,0.1,10.4,1.2,15.3,3.4
				C647.3,386.6,648.8,384.1,647.1,383.3L647.1,383.3z"/>
		</g>
	</g>
	<g>
		<g>
			<path class="st0" d="M630,382.3c2.1-3.1-0.5-6.6-2.2-9.3c-2.6-4.4-5.7-8.5-8.9-12.5c-1.2-1.5-3.3,0.6-2.1,2.1
				c2.3,2.8,4.5,5.8,6.6,8.9c1.3,2,5.6,7,4.1,9.3C626.4,382.4,629,383.9,630,382.3L630,382.3z"/>
		</g>
	</g>
	<g>
		<g>
			<path class="st0" d="M544.5,357.4c5.8-4.9,12.8-7.3,20.4-7.5c1.9-0.1,1.9-3.1,0-3c-8.4,0.2-16.1,3-22.5,8.4
				C540.9,356.5,543.1,358.6,544.5,357.4L544.5,357.4z"/>
		</g>
	</g>
	<g>
		<g>
			<path class="st0" d="M564.6,347.4c-1.2-4.4-2.7-8.7-3.7-13.2c-1.3-5.5,6.3-4.5,10-4.8c3.5-0.3,10.1-2.2,12.3,1.2
				c2.2,3.5,2.8,9.3,3.2,13.2c0.2,1.9,3.2,1.9,3,0c-0.6-6.2-2.3-12-4.9-17.6c-0.2-0.4-0.8-0.8-1.3-0.7c-5.1,0.4-10.1,0.8-15.2,1.2
				c-2.6,0.2-6.7-0.3-9,1.4c-1.8,1.4-1.7,3.7-1.4,5.7c0.7,4.8,2.7,9.7,4,14.4C562.2,350,565.1,349.3,564.6,347.4L564.6,347.4z"/>
		</g>
	</g>
	<g>
		<g>
			<path class="st0" d="M587.3,348.2c2.2,0.1,4.3,0.7,6.3,1.6c1.7,0.8,3.3-1.8,1.5-2.6c-2.5-1.1-5.1-1.8-7.8-2
				C585.4,345.1,585.4,348.1,587.3,348.2L587.3,348.2z"/>
		</g>
	</g>
	<g>
		<g>
			<path class="st0" d="M595.7,348.3c2.6-4.4,4.9-9,6.9-13.7c0.8-1.8-1.8-3.3-2.6-1.5c-2,4.7-4.3,9.3-6.9,13.7
				C592.2,348.4,594.8,350,595.7,348.3L595.7,348.3z"/>
		</g>
	</g>
	<g>
		<g>
			<path class="st0" d="M601.9,336.1c7.9,3.3,15.3,7.6,22.3,12.7c1.6,1.2,3-1.5,1.5-2.6c-7.1-5.3-14.8-9.6-23-13
				C600.9,332.4,600.1,335.3,601.9,336.1L601.9,336.1z"/>
		</g>
	</g>
	<g>
		<g>
			<path class="st0" d="M624.2,349.6c-1.3,4.2-3.8,7.7-7.6,10.1c-1.6,1-0.1,3.6,1.5,2.6c4.4-2.8,7.5-6.9,8.9-11.9
				C627.7,348.5,624.8,347.7,624.2,349.6L624.2,349.6z"/>
		</g>
	</g>
	<g>
		<g>
			<path class="st0" d="M1310.5,911.8c2.7,29,7.5,57.7,14.4,86c0.5,1.9,3.4,1.1,2.9-0.8c-6.8-28-11.6-56.5-14.3-85.2
				C1313.3,909.8,1310.3,909.8,1310.5,911.8L1310.5,911.8z"/>
		</g>
	</g>
	<g>
		<g>
			<path class="st0" d="M1312,912.3c14.2,3.8,29.9,2.5,44.4,2.6c16,0.1,32,0,48-0.2c1.9,0,1.9-3,0-3c-15.4,0.2-30.7,0.3-46.1,0.2
				c-14.9-0.1-31.1,1.4-45.6-2.5C1310.9,908.9,1310.1,911.8,1312,912.3L1312,912.3z"/>
		</g>
	</g>
	<g>
		<g>
			<path class="st0" d="M1403.6,912.9c-0.7,29-4.8,57.7-12.1,85.8c-0.5,1.9,2.4,2.7,2.9,0.8c7.4-28.3,11.5-57.4,12.2-86.6
				C1406.6,911,1403.6,911,1403.6,912.9L1403.6,912.9z"/>
		</g>
	</g>
	<g>
		<g>
			<path class="st0" d="M1324.7,998.5c4.5,2.8,9.5,3.7,14.7,4.2c7.4,0.7,14.8,1,22.2,1.2c7.2,0.2,14.4,0.1,21.6-0.2
				c4.5-0.2,9-0.6,12.2-4.2c1.3-1.4-0.8-3.6-2.1-2.1c-3.7,4.2-10.8,3.3-15.9,3.5c-5.9,0.1-11.8,0.1-17.6-0.1
				c-10.5-0.3-24.2,0.7-33.4-4.9C1324.6,994.9,1323.1,997.5,1324.7,998.5L1324.7,998.5z"/>
		</g>
	</g>
	<g>
		<g>
			<path class="st0" d="M1313.7,911.7c30.1,4.8,60.6-0.1,90.8,3.5c1.9,0.2,1.9-2.8,0-3c-29.9-3.5-60.2,1.4-90-3.4
				C1312.6,908.5,1311.8,911.4,1313.7,911.7L1313.7,911.7z"/>
		</g>
	</g>
	<g>
		<g>
			<path class="st0" d="M1314.4,941c5.4,11.7,11.2,23.1,17.7,34.3c5.6,9.7,11.6,19.1,19.6,27c1.4,1.4,3.5-0.8,2.1-2.1
				c-8.2-8.2-14.3-18-20-28c-6.1-10.6-11.6-21.5-16.7-32.6C1316.2,937.7,1313.6,939.2,1314.4,941L1314.4,941z"/>
		</g>
	</g>
	<g>
		<g>
			<path class="st0" d="M1320.7,911.8c15,31.8,33,62.2,53.6,90.7c1.1,1.5,3.7,0.1,2.6-1.5c-20.7-28.5-38.6-58.9-53.6-90.7
				C1322.5,908.5,1319.9,910.1,1320.7,911.8L1320.7,911.8z"/>
		</g>
	</g>
	<g>
		<g>
			<path class="st0" d="M1346.7,914.7c12,27.3,27.1,53,45.1,76.7c1.2,1.5,3.8,0,2.6-1.5c-18-23.7-33.1-49.4-45.1-76.7
				C1348.6,911.4,1346,912.9,1346.7,914.7L1346.7,914.7z"/>
		</g>
	</g>
	<g>
		<g>
			<path class="st0" d="M1367.9,914.2c8,17.8,17.9,34.6,29.6,50.2c1.1,1.5,3.7,0,2.6-1.5c-11.7-15.6-21.6-32.4-29.6-50.2
				C1369.7,911,1367.1,912.5,1367.9,914.2L1367.9,914.2z"/>
		</g>
	</g>
	<g>
		<g>
			<path class="st0" d="M1388.6,916c3.9,7.9,8.2,15.6,12.9,23.1c1,1.6,3.6,0.1,2.6-1.5c-4.7-7.5-9-15.2-12.9-23.1
				C1390.3,912.8,1387.7,914.3,1388.6,916L1388.6,916z"/>
		</g>
	</g>
	<g>
		<g>
			<path class="st0" d="M1337.5,910.3c-12.5-9.4-21.7-22.2-26.7-37c-0.2,0.6-0.5,1.1-0.7,1.7c1.9-1,3.8-2,5.7-3
				c0.9-0.5,0.9-1.6,0.3-2.4c-9.3-11.3-7.2-29.6-8.2-43.4c-1.2-16.1-2.9-32.1-5-48.1c-0.8,0.4-1.5,0.9-2.3,1.3
				c19.6,13,31.5,33.8,40.1,55.1c9.7,24,18.2,49.9,17.6,76.1c0,1.9,3,1.9,3,0c0.6-27.4-8.4-54.8-18.9-79.8
				c-8.8-21-20.9-41.2-40.3-54c-0.9-0.6-2.4,0.2-2.3,1.3c2.4,18,4.2,36,5.4,54.1c0.9,13.3-0.3,28.6,8.6,39.6
				c0.1-0.8,0.2-1.6,0.3-2.4c-1.9,1-3.8,2-5.7,3c-0.6,0.3-0.9,1.1-0.7,1.7c5.3,15.6,15,29,28.1,38.8
				C1337.5,914,1339,911.4,1337.5,910.3L1337.5,910.3z"/>
		</g>
	</g>
	<g>
		<g>
			<path class="st0" d="M1355.4,864.2c2.8-6.3,5.7-12.7,8.5-19c1.3-2.9,2.6-5.8,3.9-8.6c1-2.2,4.6-12.7,8.9-8
				c0.8,0.9,2.2,0.4,2.5-0.7c4.2-12.6,13.8-21.8,22.5-31.3c9.2-10,17.8-20.6,25.6-31.6c-0.9-0.3-1.9-0.5-2.8-0.8
				c-0.2,40-1.3,85.9-33.7,114.4c-0.9,0.8-0.3,2.2,0.7,2.5c9,3,2.7,13.7-0.9,18.3c-3.3,4.2-7.1,8-11.1,11.5
				c-1.5,1.3,0.7,3.4,2.1,2.1c6.2-5.4,14.1-12.6,16.8-20.7c1.9-5.7-0.1-12.1-6-14.1c0.2,0.8,0.4,1.7,0.7,2.5
				c33-29.1,34.4-75.8,34.6-116.6c0-1.6-2-1.9-2.8-0.8c-8.7,12.2-18.2,23.6-28.4,34.5c-8.2,8.7-16.2,17.6-20,29.1
				c0.8-0.2,1.7-0.4,2.5-0.7c-4.8-5.2-10,0.7-12.1,5.1c-4.8,10.3-9.3,20.7-14,31.1C1352,864.4,1354.6,866,1355.4,864.2L1355.4,864.2
				z"/>
		</g>
	</g>
	<g>
		<g>
			<path class="st0" d="M1310.2,798.1c18.6,36.1,31.7,74.8,39,114.8c0.3,1.9,3.2,1.1,2.9-0.8c-7.3-40.2-20.6-79.2-39.3-115.5
				C1311.9,794.9,1309.3,796.4,1310.2,798.1L1310.2,798.1z"/>
		</g>
	</g>
	<g>
		<g>
			<path class="st0" d="M1362.8,908.5c10.6-33.2,29-63,47.3-92.5c1-1.6-1.6-3.2-2.6-1.5c-18.4,29.7-36.9,59.7-47.6,93.2
				C1359.4,909.5,1362.2,910.3,1362.8,908.5L1362.8,908.5z"/>
		</g>
	</g>
	<g>
		<g>
			<path class="st0" d="M1390.9,803.8c-5.5,19.1-8.9,38.6-10.4,58.5c-0.1,1.9,2.9,1.9,3,0c1.5-19.5,4.9-38.8,10.3-57.7
				C1394.3,802.8,1391.5,802,1390.9,803.8L1390.9,803.8z"/>
		</g>
	</g>
	<g>
		<g>
			<path class="st0" d="M1306.9,836.6c14.4,7.2,25.7,18.7,32.6,33.3c0.8,1.7,3.4,0.2,2.6-1.5c-7.1-14.9-18.9-27-33.7-34.3
				C1306.7,833.2,1305.2,835.8,1306.9,836.6L1306.9,836.6z"/>
		</g>
	</g>
	<g>
		<g>
			<path class="st0" d="M1331.3,816.5c-1.1,8.1-1.8,16.3-2.2,24.5c-0.1,1.9,2.9,1.9,3,0c0.4-8.2,1.2-16.3,2.2-24.5
				C1334.6,814.5,1331.6,814.6,1331.3,816.5L1331.3,816.5z"/>
		</g>
	</g>
	<g>
		<g>
			<path class="st0" d="M1413.4,779.7c-4,11.6-6.4,23.6-7.2,35.8c-0.1,1.9,2.9,1.9,3,0c0.8-12,3.2-23.7,7.1-35
				C1417,778.7,1414.1,777.9,1413.4,779.7L1413.4,779.7z"/>
		</g>
	</g>
	<g>
		<g>
			<path class="st0" d="M343.1,595.6c11,5,23.7,8.6,35.2,3.2c10.5-4.9,17.4-15.5,28.3-19.5c14-5,27.4,5.6,40.4,9.2
				c13.4,3.7,27.6,2.6,40.4-2.6c1.8-0.7,1-3.6-0.8-2.9c-13.4,5.5-28.3,6.3-42.1,1.6c-11.2-3.8-22.2-11.3-34.5-9.2
				c-10.2,1.7-17.4,9.8-25.2,15.8c-5.3,4.1-11.1,7-17.9,7.3c-7.7,0.3-15.3-2.4-22.2-5.5C342.9,592.2,341.4,594.8,343.1,595.6
				L343.1,595.6z"/>
		</g>
	</g>
	<g>
		<g>
			<path class="st0" d="M425.3,558.8c9.6,5.4,20.5,7.8,31.5,6.7c11.8-1.2,20.9-6.8,30.8-12.9c21.7-13.3,48.7-15.2,72.2-5.6
				c1.8,0.7,2.6-2.2,0.8-2.9c-20.4-8.4-43.8-8.3-64.1,0.4c-11.4,4.9-20.8,13.7-33,16.7c-12.4,3.1-25.6,1.1-36.7-5.1
				C425.1,555.3,423.6,557.9,425.3,558.8L425.3,558.8z"/>
		</g>
	</g>
	<g>
		<g>
			<path class="st0" d="M650.8,646.3c46.9,0,93.9,0,140.8,0c1.9,0,1.9-3,0-3c-46.9,0-93.9,0-140.8,0
				C648.9,643.3,648.9,646.3,650.8,646.3L650.8,646.3z"/>
		</g>
	</g>
	<g>
		<g>
			<path class="st0" d="M698,671.5c0-9,0-18,0-27c0-1.9-3-1.9-3,0c0,9,0,18,0,27C695,673.5,698,673.5,698,671.5L698,671.5z"/>
		</g>
	</g>
	<g>
		<g>
			<path class="st0" d="M747.9,642.1c0-11.2,0-22.4,0-33.5c0-1.9-3-1.9-3,0c0,11.2,0,22.4,0,33.5C744.9,644,747.9,644,747.9,642.1
				L747.9,642.1z"/>
		</g>
	</g>
	<g>
		<g>
			<path class="st0" d="M705.5,602.7c24.5,0,49.1,0,73.6,0c1.9,0,1.9-3,0-3c-24.5,0-49.1,0-73.6,0
				C703.6,599.7,703.6,602.7,705.5,602.7L705.5,602.7z"/>
		</g>
	</g>
	<g>
		<g>
			<path class="st1" d="M849.9,374.6c-16.9-18.4,14.8-54.1,32.9-32c7.4,9,8.3,22.5,2.5,32.5c-6,10.5-21.2,14.5-30.1,5.2
				c-1.3-1.4-3.5,0.7-2.1,2.1c7,7.3,18.6,8,27,2.6c9.5-6.1,13.2-18.4,11.7-29.2c-1.4-9.8-7.9-20-17.7-22.9
				c-10.5-3-20.9,4.4-26.5,12.9c-6.1,9.4-7.7,22.2,0.3,30.9C849.1,378.1,851.2,376,849.9,374.6L849.9,374.6z"/>
		</g>
	</g>
	<g>
		<g>
			<path class="st1" d="M885.1,409.8c-1.1-2.6,0-5.8,2.3-7.4c2.7-1.9,6.1-0.7,7.8,1.9c3.6,5.5-3.4,10.9-8.4,7.7
				c-1.6-1.1-3.1,1.5-1.5,2.6c3.5,2.3,8.2,1.7,11.3-1.1c3.4-3.1,3.3-8.2,0.5-11.7c-6.7-8.1-18.4,0.4-14.6,9.5
				C883.2,413,885.8,411.5,885.1,409.8L885.1,409.8z"/>
		</g>
	</g>
	<g>
		<g>
			<path class="st1" d="M241.6,989.7c-0.6-3.9,2.4-7.4,6.1-7.9c3.3-0.4,5.3,2.2,7.6,3.9c2.4,1.8,5.6,3.4,8.7,2
				c3.6-1.8,2.7-6.9,6.6-8.5c6.3-2.7,11.4,3.7,14.8,8c0.8,1,2.6,0.2,2.6-1.1c-0.3-8.8,14.3-3.2,19-3.3c1.9,0,1.9-3,0-3
				c-5.5,0.1-11-3.1-16.5-1.1c-3.4,1.2-5.7,3.8-5.6,7.4c0.9-0.4,1.7-0.7,2.6-1.1c-3.8-4.8-8.4-10.1-15.2-9.5c-2,0.2-4,0.9-5.5,2.3
				c-2.3,2.1-2.5,7.7-6.7,7.1c-3.2-0.5-5.5-4.6-8.5-5.8c-2.2-0.9-4.6-0.8-6.8,0.2c-4.4,1.9-6.8,6.3-6,11
				C239,992.4,241.9,991.6,241.6,989.7L241.6,989.7z"/>
		</g>
	</g>
	<g>
		<g>
			<path class="st1" d="M237.3,976.5c1.5-4,3.5-8.9,8.4-9.1c3.1-0.1,6.3,1.9,9,3.1c4,1.6,8.2,2.5,11.7-0.6c4.2-3.7,6-13.1,12.9-7.5
				c3.4,2.8,5.9,6.3,10.7,6.6c0.9,0,1.4-0.7,1.5-1.5c0.4-4.5,3.7-8,8.2-8.5c1.9-0.2,1.9-3.2,0-3c-6.3,0.8-10.6,5.2-11.2,11.5
				c0.5-0.5,1-1,1.5-1.5c-5.8-0.3-8.2-7.8-14-8.5c-6-0.8-7.7,5.6-10.8,9.3c-5.3,6.2-13.7-2.6-20.2-2.3c-6.2,0.3-8.9,6.2-10.7,11.3
				C233.7,977.5,236.6,978.3,237.3,976.5L237.3,976.5z"/>
		</g>
	</g>
	<g>
		<g>
			<path class="st2" d="M602.9,804c-4.5-7.7,3.5-18.1,12-13.4c9.7,5.3,4,19.4-6.5,17.3c-1.9-0.4-2.7,2.5-0.8,2.9
				c13.1,2.6,21.5-14.6,9.7-22.3c-11.1-7.2-23.3,6.1-17,17C601.3,807.2,603.9,805.7,602.9,804L602.9,804z"/>
		</g>
	</g>
	<g>
		<g>
			<path class="st2" d="M622.5,823.7c-0.2-3,1.4-6.9,5-6.7c1.6,0.1,3.4,1.1,3.5,2.8c0.1,1.6-1.5,3.3-3.1,3c-1.9-0.4-2.7,2.5-0.8,2.9
				c6.3,1.3,9.4-7.5,3.9-10.7c-6.1-3.6-11.9,2.7-11.5,8.7C619.6,825.7,622.6,825.7,622.5,823.7L622.5,823.7z"/>
		</g>
	</g>
</g>
<g id="ground">
	<g>
		<g>
			<path class="st3" d="M610.8,1011.6c92.2,0,184.4,0,276.6,0c25.9,0,51.7,0,77.6,0c1.9,0,1.9-3,0-3c-92.2,0-184.4,0-276.6,0
				c-25.9,0-51.7,0-77.6,0C608.9,1008.6,608.9,1011.6,610.8,1011.6L610.8,1011.6z"/>
		</g>
	</g>
	<g>
		<g>
			<path class="st3" d="M812.5,1025.7c83.5,0,167,0,250.5,0c23.6,0,47.2,0,70.9,0c1.9,0,1.9-3,0-3c-83.5,0-167,0-250.5,0
				c-23.6,0-47.2,0-70.9,0C810.6,1022.7,810.6,1025.7,812.5,1025.7L812.5,1025.7z"/>
		</g>
	</g>
	<g>
		<g>
			<path class="st3" d="M1058.8,1009.2c100.4,0,200.8,0,301.2,0c28.6,0,57.2,0,85.8,0c1.9,0,1.9-3,0-3c-100.4,0-200.8,0-301.2,0
				c-28.6,0-57.2,0-85.8,0C1056.9,1006.2,1056.9,1009.2,1058.8,1009.2L1058.8,1009.2z"/>
		</g>
	</g>
	<g>
		<g>
			<path class="st3" d="M1274.6,1024.5c59.8,0,119.6,0,179.4,0c1.9,0,1.9-3,0-3c-59.8,0-119.6,0-179.4,0
				C1272.7,1021.5,1272.7,1024.5,1274.6,1024.5L1274.6,1024.5z"/>
		</g>
	</g>
	<g>
		<g>
			<path class="st3" d="M202.7,1032.7c73.3,0,146.6,0,219.9,0c20.9,0,41.8,0,62.7,0c1.9,0,1.9-3,0-3c-73.3,0-146.6,0-219.9,0
				c-20.9,0-41.8,0-62.7,0C200.8,1029.7,200.8,1032.7,202.7,1032.7L202.7,1032.7z"/>
		</g>
	</g>
	<g>
		<g>
			<path class="st3" d="M296.5,1050.3c64.1,0,128.2,0,192.3,0c1.9,0,1.9-3,0-3c-64.1,0-128.2,0-192.3,0
				C294.6,1047.3,294.6,1050.3,296.5,1050.3L296.5,1050.3z"/>
		</g>
	</g>
	<g>
		<g>
			<path class="st3" d="M641.3,1057.3c76.6,0,153.2,0,229.9,0c1.9,0,1.9-3,0-3c-76.6,0-153.2,0-229.9,0
				C639.4,1054.3,639.4,1057.3,641.3,1057.3L641.3,1057.3z"/>
		</g>
	</g>
	<g>
		<g>
			<path class="st3" d="M480.6,1104.2c68.8,0,137.6,0,206.4,0c1.9,0,1.9-3,0-3c-68.8,0-137.6,0-206.4,0
				C478.7,1101.2,478.7,1104.2,480.6,1104.2L480.6,1104.2z"/>
		</g>
	</g>
	<g>
		<g>
			<path class="st3" d="M961.5,1071.4c61,0,122,0,182.9,0c1.9,0,1.9-3,0-3c-61,0-122,0-182.9,0
				C959.5,1068.4,959.5,1071.4,961.5,1071.4L961.5,1071.4z"/>
		</g>
	</g>
</g>
<g id="shadows">
	<path class="st4" d="M890.4,1057.6c-4,24.5,48.6,51.9,75.6,66c65.5,34.2,186.3,63.6,268.2-6.4c14.6-12.5,48.3-45.5,62.8-109.6
		C972.8,1002.9,894.9,1029.8,890.4,1057.6z"/>
	<path class="st5" d="M954.3,1089.5c0.7,12,23.9,20.4,38.3,25.5c47,16.9,90.9,2,120.3-8.5c67.2-23.9,143.3-76.7,135.1-95.8
		C1233.6,976.9,951.9,1046.9,954.3,1089.5z"/>
	<path class="st4" d="M617,1006.5c-55.8,56.3-111.7,112.5-167.5,168.8c-60.5-20-121.1-40.1-181.6-60.1
		C384.2,1078.9,500.6,1042.7,617,1006.5z"/>
</g>
<g id="robot">
	<path class="st6" d="M389.5,755.3c-2.6,5.5,0.2,12.8,5.8,26.9c3,7.6,6,13.7,8.2,17.8c7.7-2.9,15.4-5.8,23.1-8.7
		c-2.3-2.6-5.7-7.1-8.2-13.5c-6.2-16.1,0.5-27.4-5.3-31.8C407.5,741.9,393.5,746.7,389.5,755.3z"/>
	<path class="st7" d="M469,1079.3c8,5.7,24.2-11.9,33.5-6.1c4.2,2.6,2.2,7.1,6.9,10.1c5,3.3,10.6,0.2,25-3.6
		c17.5-4.6,26.5-6.9,33.1-2.4c5.8,3.9,6.4,10.9,9.3,10.5c2.6-0.4,5.1-6.7,3.2-10.9c-3.8-8.2-24-6.4-27.8-6.1
		c-19.5,1.8-27.5,10.3-34.3,5.6c-6.2-4.3-2.4-13.4-8.9-16.9c-4.6-2.5-7.8,1.6-23.8,5.2c-11.6,2.6-17.5,2.2-19,6.1
		C465.2,1073.4,466.3,1077.5,469,1079.3z"/>
	<path class="st7" d="M546,1037.8c8.2,3.4,13.9-1.4,22.6-2.4c18.4-2.2,25.5,15.3,38.3,10.9c9-3.1,15-15,12.9-17.7
		c-0.9-1.2-3.3-0.9-5.2-0.4c-0.2,1.4-1.7,11.1-8.1,13.3c-3.4,1.2-6.8-0.2-12.9-2.8c-7.3-3.1-8-5-12.9-6.9c-4.5-1.7-6.4-0.9-17.7-0.8
		c-16.7,0.2-23.2-1.2-23.8,0.8C538.7,1033.4,542.4,1036.3,546,1037.8z"/>
	<g>
		<g>
			<path class="st3" d="M531.3,1052.2c12-1.9,23.7-3.6,34.4-9.6c9.1-5.1,16.8-12.4,22.7-21c1.1-1.6-1.5-3.1-2.6-1.5
				c-5.9,8.6-13.7,15.7-22.9,20.6c-10.1,5.4-21.2,6.8-32.3,8.6C528.6,1049.6,529.4,1052.5,531.3,1052.2L531.3,1052.2z"/>
		</g>
	</g>
	<path class="st8" d="M304.9,676.6c-4,3.2-8,6.4-12,9.5c10.1,34.4,20.1,68.7,30.2,103.1c47.2-15.7,94.4-31.4,141.6-47.1
		c0.8-3.1,1.6-6.2,2.5-9.2C413,714.1,358.9,695.4,304.9,676.6z"/>
	<path class="st8" d="M297.1,853.7c15.2-9.8,30.5-19.6,45.7-29.3c36.8,89.5,73.5,179.1,110.3,268.6c-16,7.8-32.1,15.6-48.1,23.5
		c-21.6-38.2-44-82.9-64.5-133.7C321.8,936.5,307.8,893.1,297.1,853.7z"/>
	<path class="st7" d="M340.6,824.4c7.1,30,15.9,61.8,27,95c22.9,68.8,50.3,128.4,77.4,178.3c62.6-34.4,125.1-68.8,187.7-103.2
		c-21.2-47.3-42.1-101.8-59.8-163c-10.2-35.3-18.3-69.1-24.6-100.9C479,761.9,409.8,793.1,340.6,824.4z"/>
	<g>
		<g>
			<path class="st3" d="M436.7,931.1c6.5,23.1,15.9,45.1,27.9,65.8c1,1.7,3.6,0.2,2.6-1.5c-12-20.5-21.2-42.3-27.6-65.1
				C439.1,928.5,436.2,929.3,436.7,931.1L436.7,931.1z"/>
		</g>
	</g>
	<g>
		<g>
			<path class="st3" d="M438.3,930c33.3-15.7,66.9-30.7,100.9-44.9c1.8-0.7,1-3.6-0.8-2.9c-34.2,14.3-68.1,29.3-101.7,45.2
				C435,928.3,436.5,930.8,438.3,930L438.3,930z"/>
		</g>
	</g>
	<g>
		<g>
			<path class="st3" d="M538.3,885c7.7,21.9,16.4,43.4,26,64.5c0.8,1.8,3.4,0.2,2.6-1.5c-9.6-20.9-18.1-42.1-25.7-63.8
				C540.6,882.4,537.7,883.2,538.3,885L538.3,885z"/>
		</g>
	</g>
	<g>
		<g>
			<path class="st3" d="M467.4,998c5.6-4,11.6-7,18.2-8.9c1.8-0.5,1.1-3.4-0.8-2.9c-6.8,2-13.2,5.1-18.9,9.2
				C464.3,996.5,465.8,999.1,467.4,998L467.4,998z"/>
		</g>
	</g>
	<g>
		<g>
			<path class="st3" d="M479.7,988c0.6-7,3.1-14.2,9.1-18.4c6-4.2,13.8-4.1,19.2,1c9.2,8.8,11.3,25.2,11.2,37.2c0,1.9,3,1.9,3,0
				c0.1-13.7-2.9-37.1-17.8-43.1c-15.4-6.2-26.6,9.9-27.7,23.3C476.6,989.9,479.6,989.9,479.7,988L479.7,988z"/>
		</g>
	</g>
	<g>
		<g>
			<path class="st3" d="M487.8,986.7c0.4-6.6,8.9-13.8,14.7-8.9c3.7,3.1,5.4,8.6,6.4,13.2c2.2,9.8,0.9,20-0.9,29.8
				c-0.3,1.9,2.5,2.7,2.9,0.8c2.5-13.6,4.9-31.5-4.1-43.4c-3-3.9-7.7-6.6-12.5-4.4c-4.6,2-9.2,8-9.5,13.1
				C484.7,988.6,487.7,988.6,487.8,986.7L487.8,986.7z"/>
		</g>
	</g>
	<g>
		<g>
			<path class="st3" d="M507.6,1021.5c1.5,3.7,5.6,3.2,8,0.6c3.6-3.8,5.7-9.4,6.6-14.5c0.3-1.9-2.6-2.7-2.9-0.8
				c-0.5,2.9-1.3,5.6-2.6,8.2c-0.4,0.8-5,8.5-6.2,5.6C509.8,1018.9,506.9,1019.7,507.6,1021.5L507.6,1021.5z"/>
		</g>
	</g>
	<g>
		<g>
			<path class="st3" d="M505.9,967.3c4.4-6,9.5-12.2,16.7-15.1c8.2-3.2,14.8-0.8,20.7,5.2c3.6,3.6,6.9,6.3,12.2,6.8
				c4.4,0.4,8.7-0.1,12.2,3.3c2.8,2.7,4.4,6.5,5.8,10c0.7,1.8,3.6,1,2.9-0.8c-2.3-5.7-5.3-12.4-11.6-14.6
				c-5.2-1.7-10.6,0.1-15.3-3.3c-3.1-2.2-5.3-5.4-8.4-7.7c-14.2-10.5-29.5,3.5-37.7,14.6C502.2,967.4,504.8,968.9,505.9,967.3
				L505.9,967.3z"/>
		</g>
	</g>
	<g>
		<g>
			<path class="st3" d="M511.4,970.9c4.9-6.5,16.8-18.1,24.7-9.7c3.6,3.8,5.8,8.6,11.5,9.3c4.8,0.6,9.2-2,13.7,1
				c3.6,2.4,3.9,7,7.3,9.4c3.4,2.4,8.2,0.6,7.7-3.9c-0.2-1.9-3.2-1.9-3,0c-2.6,1.8-4.3,1.4-5.1-1.4c-0.5-1.1-1.1-2.1-1.7-3.1
				c-0.7-1-1.4-1.8-2.4-2.6c-2.1-1.8-4.9-2.9-7.7-3c-4.6-0.2-9,2-13-1.6c-2-1.8-3.4-4.3-5.2-6.3c-9.5-10.3-23.2,2.2-29.4,10.3
				C507.7,970.9,510.3,972.4,511.4,970.9L511.4,970.9z"/>
		</g>
	</g>
	<g>
		<g>
			<path class="st3" d="M513.3,974.3c7.4-5.4,15.4-9.6,24.1-12.6c1.8-0.6,1-3.5-0.8-2.9c-8.9,3-17.2,7.3-24.8,12.9
				C510.2,972.8,511.7,975.4,513.3,974.3L513.3,974.3z"/>
		</g>
	</g>
	<g>
		<g>
			<path class="st3" d="M546.3,958.6c7-2.7,13.9-5.7,20.5-9.2c1.7-0.9,0.2-3.5-1.5-2.6c-6.4,3.3-13,6.3-19.8,8.9
				C543.7,956.4,544.5,959.3,546.3,958.6L546.3,958.6z"/>
		</g>
	</g>
	<g>
		<g>
			<path class="st3" d="M512.5,957.3c6-20.1,17.4-39,35.9-49.8c1.7-1,0.2-3.6-1.5-2.6c-19.2,11.2-31,30.7-37.3,51.6
				C509.1,958.4,512,959.2,512.5,957.3L512.5,957.3z"/>
		</g>
	</g>
	<g>
		<g>
			<path class="st3" d="M521.1,950.8c6.7-14.5,14.7-29.3,28.9-37.7c1.7-1,0.2-3.6-1.5-2.6c-14.7,8.7-23.1,23.8-30,38.8
				C517.7,951,520.3,952.5,521.1,950.8L521.1,950.8z"/>
		</g>
	</g>
	<g>
		<g>
			<path class="st3" d="M458.3,978.5c7.7-0.6,15.4-1.4,23.2-0.3c0.9,0.1,1.4-1.3,0.4-1.4c-7.9-1.1-15.7-0.4-23.5,0.2
				C457.4,977.1,457.4,978.6,458.3,978.5L458.3,978.5z"/>
		</g>
	</g>
	<g>
		<g>
			<path class="st3" d="M454.8,972.8c9.6-2.4,19.2-2.2,28.8,0.5c0.9,0.3,1.3-1.2,0.4-1.4c-9.8-2.8-19.7-3-29.6-0.5
				C453.4,971.6,453.8,973.1,454.8,972.8L454.8,972.8z"/>
		</g>
	</g>
	<g>
		<g>
			<path class="st3" d="M511.2,955.1c-1.3,2.5-2.7,4.9-4,7.4c-0.5,0.8,0.8,1.6,1.3,0.8c1.3-2.5,2.7-4.9,4-7.4
				C512.9,955,511.6,954.2,511.2,955.1L511.2,955.1z"/>
		</g>
	</g>
	<g>
		<g>
			<path class="st3" d="M550.5,915.3c2.5,8.1,1.9,15.8-1.2,23.6c-1,2.5-2.3,5.2-2.2,8c0.1,2.9,2.1,4.8,2.5,7.6
				c0.1,1,1.6,0.5,1.4-0.4c-0.3-1.8-0.5-1.8-1-3.4c-1.2-3.7-1.6-4.8-0.5-8.4c1.1-3.3,2.7-6.3,3.4-9.7c1.3-6,0.9-12-1-17.8
				C551.6,914,550.2,914.4,550.5,915.3L550.5,915.3z"/>
		</g>
	</g>
	<g>
		<g>
			<path class="st3" d="M555.7,928.6c1.7,8-7.8,17.3-0.8,24.3c0.7,0.7,1.7-0.4,1.1-1.1c-6.3-6.3,2.8-16.1,1.2-23.7
				C556.9,927.2,555.5,927.6,555.7,928.6L555.7,928.6z"/>
		</g>
	</g>
	<g>
		<g>
			<path class="st3" d="M463.7,989.7c4.5-1.4,9-2,13.6-1.8c1,0,1-1.5,0-1.5c-4.8-0.1-9.4,0.5-14,1.9
				C462.3,988.5,462.7,989.9,463.7,989.7L463.7,989.7z"/>
		</g>
	</g>
	<g>
		<g>
			<path class="st3" d="M460.8,986.9c5.8-1.2,11.6-1.9,17.5-1.9c1,0,1-1.5,0-1.5c-6.1,0.1-12,0.7-17.9,2
				C459.4,985.7,459.8,987.1,460.8,986.9L460.8,986.9z"/>
		</g>
	</g>
	<g>
		<g>
			<path class="st3" d="M487.9,986.9c5.7-3.2,11.6-5.9,17.6-8.3c0.9-0.3,0.5-1.8-0.4-1.4c-6.2,2.4-12.2,5.2-18,8.4
				C486.3,986.1,487,987.4,487.9,986.9L487.9,986.9z"/>
		</g>
	</g>
	<g>
		<g>
			<path class="st3" d="M486.7,986.4c6.4-2.8,12.7-5.5,19.1-8.3c0.9-0.4,0.1-1.7-0.8-1.3c-6.4,2.8-12.7,5.5-19.1,8.3
				C485,985.5,485.8,986.8,486.7,986.4L486.7,986.4z"/>
		</g>
	</g>
	<g>
		<g>
			<path class="st3" d="M487.1,987.2c6.4-2.9,12.8-5.9,19.3-8.8c0.9-0.4,0.1-1.7-0.8-1.3c-6.4,2.9-12.8,5.9-19.3,8.8
				C485.4,986.3,486.2,987.6,487.1,987.2L487.1,987.2z"/>
		</g>
	</g>
	<g>
		<g>
			<path class="st3" d="M482.1,930.2c-4.2,13.2-3.1,27.2,3.2,39.6c0.4,0.9,1.7,0.1,1.3-0.8c-6.1-12-7.1-25.6-3.1-38.5
				C483.9,929.6,482.4,929.2,482.1,930.2L482.1,930.2z"/>
		</g>
	</g>
	<g>
		<g>
			<path class="st3" d="M482.9,930.5c1.6-0.5,3.1-0.6,4.7-0.4c1,0.1,0.9-1.4,0-1.5c-1.7-0.2-3.5-0.1-5.1,0.5
				C481.6,929.4,482,930.8,482.9,930.5L482.9,930.5z"/>
		</g>
	</g>
	<g>
		<g>
			<path class="st3" d="M486.2,929c-2.3,12.9-3.4,26.2,3.5,37.9c0.5,0.8,1.8,0.1,1.3-0.8c-6.7-11.3-5.6-24.3-3.4-36.8
				C487.8,928.5,486.3,928.1,486.2,929L486.2,929z"/>
		</g>
	</g>
	<g>
		<g>
			<path class="st3" d="M481.7,926.4c-1-0.8-2-1.7-2.9-2.5c-0.7-0.6-1.8,0.4-1.1,1.1c1,0.8,2,1.7,2.9,2.5
				C481.4,928.1,482.5,927,481.7,926.4L481.7,926.4z"/>
		</g>
	</g>
	<g>
		<g>
			<path class="st3" d="M483.9,923.2c-0.3-0.8-0.7-1.6-1-2.5c-0.1-0.4-0.5-0.6-0.9-0.5c-0.4,0.1-0.7,0.5-0.5,0.9
				c0.3,0.8,0.7,1.6,1,2.5c0.1,0.4,0.5,0.6,0.9,0.5C483.7,924.1,484.1,923.6,483.9,923.2L483.9,923.2z"/>
		</g>
	</g>
	<g>
		<g>
			<path class="st3" d="M488,925.1c0.1-1,0.6-2,1.5-2.6c0.8-0.6,0-1.9-0.8-1.3c-1.2,0.9-2,2.1-2.2,3.5c-0.1,0.4,0.1,0.8,0.5,0.9
				C487.4,925.7,487.9,925.5,488,925.1L488,925.1z"/>
		</g>
	</g>
	<g>
		<g>
			<path class="st3" d="M490.1,927.9c0.8,0.7,1.7,0.9,2.7,0.7c0.9-0.2,0.5-1.7-0.4-1.4c-0.4,0.1-0.9,0-1.2-0.3
				C490.4,926.2,489.3,927.3,490.1,927.9L490.1,927.9z"/>
		</g>
	</g>
	<g>
		<g>
			<path class="st3" d="M465.4,779.5c2.5,6.6,5.1,13.2,7.6,19.8c0.3,0.9,1.8,0.5,1.4-0.4c-2.5-6.6-5.1-13.2-7.6-19.8
				C466.5,778.2,465.1,778.6,465.4,779.5L465.4,779.5z"/>
		</g>
	</g>
	<g>
		<g>
			<path class="st3" d="M466.3,779c18.1-7.5,36.1-15.3,53.8-23.5c0.9-0.4,0.1-1.7-0.8-1.3c-17.7,8.2-35.5,16-53.5,23.4
				C465,777.9,465.4,779.4,466.3,779L466.3,779z"/>
		</g>
	</g>
	<g>
		<g>
			<path class="st3" d="M474.8,800c18-7.7,35.5-16.4,52.6-26c0.8-0.5,0.1-1.8-0.8-1.3c-17.1,9.6-34.6,18.3-52.6,26
				C473.2,799.1,474,800.4,474.8,800L474.8,800z"/>
		</g>
	</g>
	<g>
		<g>
			<path class="st3" d="M520,755.1c2.9,5.7,5.3,11.5,7.4,17.5c0.3,0.9,1.8,0.5,1.4-0.4c-2.1-6.1-4.6-12.1-7.6-17.9
				C520.9,753.5,519.6,754.3,520,755.1L520,755.1z"/>
		</g>
	</g>
	<g>
		<g>
			<path class="st3" d="M500.2,783.1c8.2-3.4,15.9-7.6,23.4-12.4c0.8-0.5,0.1-1.8-0.8-1.3c-7.3,4.8-15,8.8-23,12.2
				C498.9,782,499.3,783.4,500.2,783.1L500.2,783.1z"/>
		</g>
	</g>
	<g>
		<g>
			<path class="st3" d="M618.5,992c-1.7-0.3-2.9-2-2.1-3.7c0.9-1.8,3.3-1.8,4.7-0.6c1.2,1.1,1.7,2.9,0.5,4.2
				c-0.9,0.9-2.6,1.3-3.7,0.4c-0.7-0.6-1.8,0.5-1.1,1.1c1.8,1.4,4.3,1.1,5.9-0.5c1.9-2,1-5-1-6.5c-2.2-1.6-5.5-1.2-6.7,1.4
				c-1.2,2.5,0.4,5.2,3.1,5.7C619.1,993.6,619.5,992.2,618.5,992L618.5,992z"/>
		</g>
	</g>
	<g>
		<g>
			<path class="st3" d="M448.8,1087.3c-2.5-0.9-2.4-4-0.9-5.8c0.6-0.7,1.5-1.3,2.3-1.7c1.7-0.8,2.7,0.8,3.2,2.2
				c0.7,1.9,0.8,4.5-1,5.9c-1.5,1.1-3.9,1.2-4.9-0.5c-0.5-0.8-1.8-0.1-1.3,0.8c1.4,2.5,4.8,2.7,7,1c2.9-2.2,2.4-6.7,0.6-9.5
				c-2-3.2-5.9-1.1-7.7,1.4c-1.8,2.6-1,6.5,2.1,7.5C449.4,1089,449.7,1087.6,448.8,1087.3L448.8,1087.3z"/>
		</g>
	</g>
	<g>
		<g>
			<path class="st3" d="M351.8,830.4c-1.4,0.5-1.6-1.2-1.3-2.1c0.3-0.7,0.8-1.2,1.4-1.6c1.3-0.7,3-0.6,3.9,0.6c0.8,1,1,2.7-0.1,3.5
				c-1,0.8-2.5,0.6-3.4-0.4c-0.6-0.8-1.7,0.3-1.1,1.1c1.4,1.8,4.4,1.7,5.9,0c1.6-1.9,0.8-4.9-1.2-6.2c-2.2-1.3-5.2-0.4-6.5,1.7
				c-0.7,1.1-1,2.7-0.2,3.8c0.7,1,1.8,1.4,2.9,1C353.1,831.5,352.7,830.1,351.8,830.4L351.8,830.4z"/>
		</g>
	</g>
	<g>
		<g>
			<path class="st3" d="M538.2,748.5c-1.2-1.4-2.1-3.6-1.1-5.3c0.7-1.2,2.5-2,3.7-1.2c1.3,0.9,1.6,3.1,1,4.5
				c-0.7,1.7-2.9,2.6-4.3,1.2c-0.7-0.7-1.8,0.4-1.1,1.1c1.7,1.7,4.7,1.4,6.1-0.6c1.5-2,1.4-5.6-0.6-7.2c-1.8-1.5-4.5-0.7-5.8,1
				c-1.8,2.4-0.7,5.5,1,7.6C537.8,750.3,538.9,749.2,538.2,748.5L538.2,748.5z"/>
		</g>
	</g>
	<g>
		<g>
			<path class="st3" d="M430.5,933.3c6.9,22.9,17.5,44.3,28.2,65.6c0.4,0.9,1.7,0.1,1.3-0.8c-10.7-21.2-21.3-42.4-28.1-65.2
				C431.6,932,430.2,932.4,430.5,933.3L430.5,933.3z"/>
		</g>
	</g>
	<g>
		<g>
			<path class="st3" d="M428.7,925.1c15.1-7,30.2-14,45.2-21.1c0.9-0.4,0.1-1.7-0.8-1.3c-15.1,7.1-30.1,14.1-45.2,21.1
				C427.1,924.2,427.9,925.5,428.7,925.1L428.7,925.1z"/>
		</g>
	</g>
	<g>
		<g>
			<path class="st3" d="M451.5,909.6c8.3-3.5,16.2-7.5,23.8-12.3c0.8-0.5,0.1-1.8-0.8-1.3c-7.5,4.7-15.3,8.7-23.5,12.1
				C450.2,908.6,450.6,910,451.5,909.6L451.5,909.6z"/>
		</g>
	</g>
	<g>
		<g>
			<path class="st3" d="M460,777.9c1.8,4.9,3.7,9.8,5.5,14.7c0.3,0.9,1.8,0.5,1.4-0.4c-1.8-4.9-3.7-9.8-5.5-14.7
				C461.1,776.6,459.7,777,460,777.9L460,777.9z"/>
		</g>
	</g>
	<g>
		<g>
			<path class="st3" d="M520.8,1048.2c26-15.3,52.3-30.2,78.8-44.6c0.8-0.5,0.1-1.8-0.8-1.3c-26.5,14.4-52.8,29.3-78.8,44.6
				C519.2,1047.4,520,1048.7,520.8,1048.2L520.8,1048.2z"/>
		</g>
	</g>
	<g>
		<g>
			<path class="st3" d="M530.6,1040.8c1.6,2.2,3.2,4.5,4.8,6.7c0.6,0.8,1.9,0,1.3-0.8c-1.6-2.2-3.2-4.5-4.8-6.7
				C531.4,1039.3,530.1,1040,530.6,1040.8L530.6,1040.8z"/>
		</g>
	</g>
	<g>
		<g>
			<path class="st3" d="M582.5,1012c1.6,2.4,3.2,4.8,4.8,7.2c0.5,0.8,1.8,0,1.3-0.8c-1.6-2.4-3.2-4.8-4.8-7.2
				C583.2,1010.4,581.9,1011.2,582.5,1012L582.5,1012z"/>
		</g>
	</g>
	<path class="st7" d="M304.7,677.6c9.4,33.1,18.7,66.1,28.1,99.2c44.9-14.7,89.8-29.3,134.7-44c-9.2-30.2-18.4-60.5-27.6-90.7
		C394.9,653.9,349.8,665.8,304.7,677.6z"/>
	<g>
		<g>
			<path class="st3" d="M388.8,766.1c1.9,10.7,5.2,20.9,10,30.7c0.9,1.7,3.4,0.2,2.6-1.5c-4.7-9.5-7.9-19.5-9.7-30
				C391.3,763.4,388.4,764.2,388.8,766.1L388.8,766.1z"/>
		</g>
	</g>
	<g>
		<g>
			<path class="st3" d="M411.3,759.4c1.8,9.9,3.8,19.8,9.5,28.3c1.1,1.6,3.7,0.1,2.6-1.5c-5.6-8.3-7.5-18-9.2-27.6
				C413.8,756.7,411,757.5,411.3,759.4L411.3,759.4z"/>
		</g>
	</g>
	<g>
		<g>
			<path class="st3" d="M394.6,777.8c3-6.1,13.4-10.5,19.9-10c1.4,0.1,1.4-2.1,0-2.3c-4.7-0.4-8.9,1.5-13,3.5
				c-3.6,1.8-6.9,3.8-8.8,7.6C392,778,394,779.1,394.6,777.8L394.6,777.8z"/>
		</g>
	</g>
	<g>
		<g>
			<path class="st3" d="M397.3,787.8c2.3-3.2,5.6-5.1,9.2-6.5c3-1.2,7.6-3.4,10.8-1.8c1.3,0.6,2.4-1.3,1.1-1.9c-4-2-8.6,0-12.5,1.6
				c-4.2,1.7-7.8,3.8-10.5,7.5C394.5,787.8,396.4,789,397.3,787.8L397.3,787.8z"/>
		</g>
	</g>
	<g>
		<g>
			<path class="st3" d="M333.3,695.6c10.4,3.6,20.8,7.3,31.2,10.9c1.8,0.6,2.6-2.3,0.8-2.9c-10.4-3.6-20.8-7.3-31.2-10.9
				C332.3,692,331.5,694.9,333.3,695.6L333.3,695.6z"/>
		</g>
	</g>
	<g>
		<g>
			<path class="st3" d="M340.8,714.4c7-8.7,14.3-17.1,21.7-25.3c1.3-1.4-0.8-3.6-2.1-2.1c-7.5,8.2-14.7,16.7-21.7,25.3
				C337.5,713.7,339.6,715.9,340.8,714.4L340.8,714.4z"/>
		</g>
	</g>
	<g>
		<g>
			<path class="st3" d="M407.7,675.6c9.1,5.5,18.3,10.8,27.5,16.1c1.7,1,3.2-1.6,1.5-2.6c-9.2-5.3-18.4-10.6-27.5-16.1
				C407.6,672,406,674.6,407.7,675.6L407.7,675.6z"/>
		</g>
	</g>
	<g>
		<g>
			<path class="st3" d="M429.9,668.3c-7.1,8.1-13.9,16.5-20.5,25.1c-1.2,1.5,1.4,3,2.6,1.5c6.4-8.4,13.1-16.5,20-24.5
				C433.3,669,431.1,666.9,429.9,668.3L429.9,668.3z"/>
		</g>
	</g>
	<g>
		<g>
			<path class="st3" d="M375.2,728.1c13.2-3.9,26.4-7.7,39.7-11.6c1.8-0.5,1.1-3.4-0.8-2.9c-13.2,3.9-26.4,7.7-39.7,11.6
				C372.6,725.8,373.4,728.7,375.2,728.1L375.2,728.1z"/>
		</g>
	</g>
	<g>
		<g>
			<path class="st3" d="M338.9,769.6c-1.1-0.7-1.4-2.4-0.6-3.4c0.9-1.1,2.7-1,3.6,0c0.9,1,0.6,2.9-0.5,3.7c-1.2,0.8-2.7,0.4-3.6-0.7
				c-0.6-0.7-1.7,0.3-1.1,1.1c1.4,1.7,4.3,2.1,6,0.5c1.6-1.5,1.7-4.3,0.1-5.8c-1.6-1.5-4.4-1.3-5.7,0.4c-1.4,1.8-0.8,4.4,1.1,5.6
				C339,771.4,339.7,770.1,338.9,769.6L338.9,769.6z"/>
		</g>
	</g>
	<g>
		<g>
			<path class="st3" d="M439.3,735.9c0.6,1.3,1.1,2.7,1.7,4c0.4,0.9,1.8,0.5,1.4-0.4c-0.6-1.3-1.1-2.7-1.7-4
				C440.3,734.7,438.9,735,439.3,735.9L439.3,735.9z"/>
		</g>
	</g>
	<g>
		<g>
			<path class="st3" d="M440.2,736.5c8.4-2.9,16.7-5.7,25.1-8.6c0.9-0.3,0.5-1.8-0.4-1.4c-8.4,2.9-16.7,5.7-25.1,8.6
				C438.9,735.3,439.3,736.8,440.2,736.5L440.2,736.5z"/>
		</g>
	</g>
	<path class="st9" d="M453.6,775.2c-7.3,14.2-16.9,35.9-23.9,63.5c-10.1,39.7-23.6,92.8,1.8,141.7c25.2,48.4,75.3,66.9,93.8,72.7
		c-26.1,14.4-52.1,28.8-78.2,43.2c-20-34.8-40.9-75.9-59.8-123.3c-22-55-36.4-105.9-46.1-149.9C378.8,807.2,416.2,791.2,453.6,775.2
		z"/>
	<path class="st10" d="M437.6,929.5c9.5,22.3,18.9,44.6,28.4,66.9c33.4-16.2,66.7-32.4,100.1-48.6c-9-21.7-18-43.3-26.9-65
		C505.3,898.3,471.4,913.9,437.6,929.5z"/>
	<path class="st11" d="M493.9,969.9c5.9-1.8,11.4,2.1,12.5,2.9c7.1,5.2,8.1,14.7,9.1,25c0.6,5.5,0.8,13.9-1,24.1
		c-1.8,0.3-3.5,0.6-5.3,1c1-3.5,8.7-32.2-3.8-43.3c-1.3-1.1-4.9-4.3-9.1-3.8c-7.9,0.9-11.5,13.4-12.5,13
		C482.7,988.2,484.2,972.8,493.9,969.9z"/>
	<path class="st9" d="M507.8,968.4c-0.6-0.5,4.6-11.6,15.4-14.4c1.4-0.4,7.3-1.8,13.5,1c6.8,3,5.8,7.4,12,10.6
		c7.3,3.7,11.4-0.9,17.8,2.9c6.8,4,8,13.5,7.2,14c-1,0.5-5.1-11.6-13.5-12.5c-3.2-0.3-5,1.2-10.6,0.5c-2.4-0.3-4.5-0.6-6.7-1.9
		c-4.2-2.5-3.8-5.6-7.2-8.2c-3.8-2.9-8.8-2.2-11.1-1.9C514.2,959.7,508.4,969,507.8,968.4z"/>
	<path class="st10" d="M376,660c-2.6,2.6-19.5,20.1-17.3,45.7c1.9,22.2,17.3,41.8,39.5,50c-21.3,6.6-42.7,13.2-64,19.7
		c-9.3-32.7-18.6-65.4-27.9-98.2C329.5,671.6,352.7,665.8,376,660z"/>
</g>
<g id="girl">
	<g id="leg_right">
		<path class="st3" d="M1082.9,1041.8c17.3-11.7,34.5-23.4,51.8-35.1c10.5,0.8,26.4,1,45.1-2.9c20-4.2,45.6-13.7,44.7-19.6
			c-0.1-0.9-1-2.6-12.9-5.4c-17.7-4.2-31.7-4.2-41.8-4.6c-8-0.3-19.7-1.1-34.2-3.3c-21.6,12.7-43.1,25.3-64.7,38
			C1074.8,1019.8,1078.8,1030.8,1082.9,1041.8z"/>
		<path class="st1" d="M1038.7,816.3c-9.4,8.6-8.5,19.5-14,36.1c-5.6,17-15,31-59.7,71.5c-69.4,62.9-86.3,65.1-92.1,90.6
			c-5.3,23.4,2.2,50.7,19.2,67.1c22.5,21.6,55.4,18.1,79.6,15.5c60.8-6.6,105-40.7,128.2-62.6c-1.7-13.5-3.4-27-5.2-40.5
			c10.3-10.5,23.7-27.2,32.4-50.9c21.4-58.3-3.7-111.4-9.6-123.1C1089.6,809.1,1055.9,800.7,1038.7,816.3z"/>
		<path class="st12" d="M1076.5,806.3c-5.5,23.1-13.7,40.7-20.1,52.3c-10.5,19-21.6,31.9-32.7,44.5c-12,13.8-18.3,19-37.1,37.1
			c-56.5,54.4-58.8,64.4-59.4,70.5c-0.7,8.7,0.7,27.6,29.2,52.7c18.2-14.3,34.3-22.7,45.3-27.7c27.8-12.7,41.5-11.8,68.5-27.2
			c11.5-6.5,21.9-12.3,32.3-23.2c27.9-29.3,31.1-66.6,32.3-79.9c3.5-40.7-10.7-72.2-18.1-86.1C1103.3,815,1089.9,810.6,1076.5,806.3
			z"/>
		<path class="st13" d="M1112.2,972.6c-34.2,10.2-78.1,28.2-121.6,61.6c-12.9,9.9-24.3,20.1-34.3,30c34.6-5.5,70.4-12.3,107.4-20.7
			c12.4-2.8,24.5-5.7,36.5-8.7c-2-13.4-4-26.9-6-40.3C1100.2,987.1,1106.2,979.8,1112.2,972.6z"/>
		<path class="st14" d="M1098.6,813.4c6.9,9.4,17.2,26,22.4,49.1c6.1,27.3,1.8,49.1-0.5,60c-9.7,45.5-37.9,75-51.2,87.2
			c8.6-4.1,21.7-11.7,33.8-25.1c17.4-19.1,23.1-39.2,26.2-50.7c13.7-50.6-5.4-97.4-12.5-112.8
			C1110.6,818.5,1104.6,815.9,1098.6,813.4z"/>
	</g>
	<g id="leg_left">
		<path class="st3" d="M1134,1053.9c17.3-11.7,34.5-23.4,51.8-35.1c10.5,0.8,26.4,1,45.1-2.9c20-4.2,45.6-13.7,44.7-19.6
			c-0.1-0.9-1-2.6-12.9-5.4c-17.7-4.2-31.7-4.2-41.8-4.6c-8-0.3-19.7-1.1-34.2-3.3c-21.6,12.7-43.1,25.3-64.7,38
			C1126,1031.9,1130,1042.9,1134,1053.9z"/>
		<path class="st1" d="M1089.9,828.4c-8.6,11.3,4.8,26.2,0.2,49.4c-4.5,22.6-22.2,33.2-63.9,62.9c-85.5,61.1-94.2,76.2-97.7,90.2
			c-5.3,21.1-0.6,46.8,14.7,62.8c21.2,22.1,55.5,18.1,79.6,15.5c60.8-6.6,105-40.7,128.2-62.6c-1.7-13.5-3.4-27-5.2-40.5
			c10.3-10.5,23.7-27.2,32.4-50.9c21.4-58.3-3.7-111.4-9.6-123.1C1115.7,814.8,1096.6,819.5,1089.9,828.4z"/>
		<path class="st12" d="M1127.7,818.4c4,6.3,46.4,73.7,20.4,120.1c-9.5,17-29.9,34-34.5,37.9c-18.4,15.4-31.9,20.8-44.2,28.3
			c-18.2,11-41.5,31.1-61.7,70.8c18.2-14.3,34.3-22.7,45.3-27.7c27.8-12.7,41.5-11.8,68.5-27.2c11.5-6.5,21.9-12.3,32.3-23.2
			c27.9-29.3,31.1-66.6,32.3-79.9c3.5-40.7-10.7-72.2-18.1-86.1C1154.5,827,1141.1,822.7,1127.7,818.4z"/>
		<path class="st13" d="M1163.4,984.6c-34.2,10.2-78.1,28.2-121.6,61.6c-12.9,9.9-24.3,20.1-34.3,30c34.6-5.5,70.4-12.3,107.4-20.7
			c12.4-2.8,24.5-5.7,36.5-8.7c-2-13.4-4-26.9-6-40.3C1151.4,999.2,1157.4,991.9,1163.4,984.6z"/>
		<path class="st14" d="M1149.8,825.5c6.9,9.4,17.2,26,22.4,49.1c6.1,27.3,1.8,49.1-0.5,60c-9.7,45.5-37.9,75-51.2,87.2
			c8.6-4.1,21.7-11.7,33.8-25.1c17.4-19.1,23.1-39.2,26.2-50.7c13.7-50.6-5.4-97.4-12.5-112.8C1161.8,830.6,1155.8,828,1149.8,825.5
			z"/>
	</g>
	<g id="hand_right">
		<path class="st7" d="M1079.6,586.3c-5.5-2.7-14.8,5.6-18.6,9c-18.3,16.4-22,35.6-34.1,66.5c-3.9,9.9-9.9,24.2-18.6,41.3
			c-9.7,10.6-23.9,23.7-43.1,35.3c-11.6,7-22.7,12-32.3,15.6c-5.7-1.8-16.8-4.5-29.9-1.8c-8,1.6-16.6,3.4-21,10.2
			c-7.8,12.1,2.6,32.8,15.6,43.1c4.1,3.3,11,8.7,19.8,7.8c11.3-1.2,21.4-12.6,24.5-28.7c17.3-3.5,52.5-13.1,84.4-42.5
			c7.1-6.6,24.8-24,38.3-52.1c11.2-23.2,13.5-41.1,17.4-70.6C1085.2,594.9,1083.3,588.2,1079.6,586.3z"/>
		<path class="st15" d="M1076.7,585.3c-4.9,0-5.9,27.5-14,54.6c-11.3,38-32.8,63.1-42.5,74.3c-10.8,12.3-42.9,48.1-97.1,62.9
			c-16.9,4.6-31.5,6-41.9,6.3c1.4,3.8,8.3,21.4,25.4,27.3c3.2,1.1,9.1,3.1,15.9,1.3c10.6-2.8,18.7-13.8,21-27.9
			c19-4.4,57.5-16,88.2-47.6c13.5-13.8,22.3-28.2,24.8-32.4c10.8-18.2,15.2-33,20.3-50.2c9.1-30.5,7.9-44.2,6.3-52.7
			C1082.5,598.3,1080.1,585.3,1076.7,585.3z"/>
		<path class="st4" d="M1075.4,650c-1.3-0.5-7.2,20.1-27.9,48.9c-10.7,14.8-24.2,33.5-47,49.5c-14.4,10.1-34.1,18.8-73.6,36.2
			c-20,8.8-31.5,13.3-31.1,19c0.4,5.8,12.7,11.1,22.9,9.5c11.5-1.8,21.2-12.6,23.5-27.3c10.5-3.1,24.7-8.1,40.6-15.9
			c6.6-3.2,28.9-14.2,45.7-28.6C1069.1,706.5,1077.5,650.9,1075.4,650z"/>
	</g>
	<g id="torso">
		<path class="st7" d="M1077.7,578.4c-22.7,14.9-29.8,39.9-37.2,65.7c-1.5,5.1-7.5,27.3-7.9,58.6c-0.3,30.5,5.1,38.8,5.7,64.3
			c0.4,17.1-1.4,41.7-12.1,72.2c8.2,7.9,33,29.5,72.2,35c40.8,5.8,71.7-9.6,81.5-15c0.9-11.7,2.1-29.9,2.1-52.2
			c0.1-94.3-20.2-143.7,9.3-177.9c3.9-4.5,10.6-10.9,21.4-16.4c-7.7-8.8-42-46.3-91.5-45.7C1111.8,567,1094.4,567.4,1077.7,578.4z"
			/>
		<path class="st16" d="M1142.1,569.5c-11.7,23.2-25.6,58.5-26.4,102.2c-0.8,41.1,10.6,59.3,7.5,95.9c-2.1,25.2-11.3,61-44.2,102.8
			c7.4,2.3,16.1,4.3,25.8,5.2c34.3,3.1,61.8-9,75.8-16.7c2.2-28.3,2.1-51.1,1.7-66c-1.3-45.4-5.2-80.4-5.2-80.4
			c-2-14.3-2.1-26.5-1.7-35.6c0.6-13,1-20.7,4.6-29.9c2.5-6.3,8.2-17.4,21.8-27.6c3.8-2.1,7.7-4.2,11.5-6.3
			c-9.8-12.2-27.6-30.5-55.1-39.6C1152.6,571.6,1147.2,570.3,1142.1,569.5z"/>
		<path class="st14" d="M1213.3,612.5c-7.8-7.1-15.7-14.2-23.5-21.2c-25.9,26.3-37.3,51.4-42.5,71.8c-4.7,18.6-1.5,22.5-3.4,88.4
			c-1.5,51.9-4,67.4-12.6,83.8c-9.8,18.8-23.6,31.2-33.3,38.5c8.6,1.8,21.7,3.4,37.3,1.1c20.5-3,35.5-11.3,43.6-16.7
			c1.8-25.5,2.1-47.5,1.7-64.9c-1.6-83.3-17.3-124.6,8-159C1196.5,623.6,1206,616.8,1213.3,612.5z"/>
	</g>
	<g id="tools">
		<path class="st7" d="M881.6,753.6c17.3,35.4,34.5,70.8,51.8,106.2c30.8-18.1,61.5-36.3,92.3-54.4c-16.1-32.2-32.2-64.4-48.3-96.6
			C945.5,723.7,913.6,738.7,881.6,753.6z"/>
		<ellipse class="st7" cx="948.8" cy="776.1" rx="27.2" ry="27.6"/>
		<path class="st7" d="M980.4,779.7c-4.4,7.1-3.5,16,1.7,21.3c6.3,6.5,15.6,4.5,16.1,4.4c11.6,22.1,23.2,44.1,34.8,66.2
			c5.9-2.3,11.9-4.6,17.8-7c-13.6-21.6-27.3-43.2-40.9-64.9c0.5-0.4,7.9-5.8,7.4-14.4c-0.4-7.7-7.1-14.6-16.1-15.7
			c4,4.3,4.8,10.3,2.2,14.8c-3,5.3-9.2,5.6-9.6,5.7C988.2,790.5,982.6,786.3,980.4,779.7z"/>
		<g>
			<g>
				<path class="st3" d="M933.9,761.2c0,0.1,0,0.2,0,0.3c0,0.8,0.7,1.5,1.5,1.5c0.8,0,1.5-0.7,1.5-1.5c0-0.1,0-0.2,0-0.3
					c0-0.8-0.7-1.5-1.5-1.5C934.6,759.7,933.9,760.3,933.9,761.2L933.9,761.2z"/>
			</g>
		</g>
		<ellipse class="st7" cx="992.6" cy="777.9" rx="11.6" ry="11.8"/>
		<g>
			<g>
				<path class="st3" d="M929.9,756.9c1.4,1.5,3,3,4.5,4.4c1.5,1.3,3.6-0.9,2.1-2.1c-1.6-1.4-3.1-2.8-4.5-4.4
					C930.7,753.4,928.6,755.5,929.9,756.9L929.9,756.9z"/>
			</g>
		</g>
		<g>
			<g>
				<path class="st3" d="M922.9,785.4c2.6-1,5-2.2,7.4-3.7c1.6-1.1,0.1-3.7-1.5-2.6c-2.1,1.4-4.3,2.5-6.6,3.4
					C920.3,783.2,921.1,786.1,922.9,785.4L922.9,785.4z"/>
			</g>
		</g>
		<g>
			<g>
				<path class="st3" d="M938.4,801c1.7-2.1,3.4-4.3,4.9-6.6c1.1-1.6-1.5-3.1-2.6-1.5c-1.4,2.1-2.9,4.1-4.4,6
					C935.1,800.3,937.2,802.5,938.4,801L938.4,801z"/>
			</g>
		</g>
		<g>
			<g>
				<path class="st3" d="M960.9,791.9c2.3,0.7,4.4,1.8,6.2,3.3c1.5,1.2,3.6-0.9,2.1-2.1c-2.2-1.9-4.7-3.3-7.6-4.1
					C959.9,788.4,959.1,791.3,960.9,791.9L960.9,791.9z"/>
			</g>
		</g>
		<g>
			<g>
				<path class="st3" d="M967.1,774.6c1.7-1,3.5-1.8,5.3-2.5c1.8-0.6,1-3.5-0.8-2.9c-2.1,0.7-4.1,1.7-6,2.8
					C963.9,772.9,965.4,775.5,967.1,774.6L967.1,774.6z"/>
			</g>
		</g>
		<g>
			<g>
				<path class="st3" d="M957.7,750c-0.7,1.4-1.4,2.8-2.1,4.1c-0.9,1.7,1.7,3.2,2.6,1.5c0.7-1.4,1.4-2.8,2.1-4.1
					C961.1,749.8,958.6,748.3,957.7,750L957.7,750z"/>
			</g>
		</g>
		<g>
			<g>
				<path class="st3" d="M981,776.9c1.6,0.2,3.2,0.3,4.8,0.5c0.8,0.1,1.5-0.7,1.5-1.5c0-0.9-0.7-1.4-1.5-1.5
					c-1.6-0.2-3.2-0.3-4.8-0.5c-0.8-0.1-1.5,0.7-1.5,1.5C979.5,776.3,980.2,776.8,981,776.9L981,776.9z"/>
			</g>
		</g>
		<g>
			<g>
				<path class="st3" d="M991.4,766.9c0.3,0.9,0.6,1.8,0.9,2.7c0.3,0.8,1,1.3,1.8,1c0.7-0.2,1.3-1.1,1-1.8c-0.3-0.9-0.6-1.8-0.9-2.7
					c-0.3-0.8-1-1.3-1.8-1C991.7,765.3,991.1,766.1,991.4,766.9L991.4,766.9z"/>
			</g>
		</g>
		<g>
			<g>
				<path class="st3" d="M988.5,788.7c0.8-1.4,1.7-2.7,2.7-3.9c0.5-0.6,0.6-1.5,0-2.1c-0.5-0.5-1.6-0.6-2.1,0
					c-1.2,1.4-2.3,2.9-3.2,4.5C985,788.8,987.6,790.4,988.5,788.7L988.5,788.7z"/>
			</g>
		</g>
		<g>
			<g>
				<path class="st3" d="M998.8,777.8c1.6,0.2,3.1-0.2,4.6-0.8c0.7-0.3,0.9-1.4,0.5-2.1c-0.4-0.8-1.3-0.9-2.1-0.5
					c-1,0.4-2.1,0.5-3.1,0.4c-0.8-0.1-1.5,0.8-1.5,1.5C997.3,777.2,998,777.7,998.8,777.8L998.8,777.8z"/>
			</g>
		</g>
		<g>
			<g>
				<path class="st3" d="M995.7,785.1c0.8,1,1.6,2,2.4,3c0.5,0.6,1.6,0.5,2.1,0c0.6-0.6,0.5-1.5,0-2.1c-0.8-1-1.6-2-2.4-3
					c-0.5-0.6-1.6-0.5-2.1,0C995,783.6,995.2,784.5,995.7,785.1L995.7,785.1z"/>
			</g>
		</g>
		<g>
			<g>
				<path class="st3" d="M879.6,754.7c16.1,35.6,33.2,70.8,51.3,105.4c0.9,1.7,3.5,0.2,2.6-1.5c-18.2-34.6-35.3-69.8-51.3-105.4
					C881.4,751.5,878.8,753,879.6,754.7L879.6,754.7z"/>
			</g>
		</g>
		<g>
			<g>
				<path class="st3" d="M879,754.2c15.9,36.1,33.1,71.5,51.7,106.2c0.9,1.7,3.5,0.2,2.6-1.5c-18.6-34.7-35.9-70.2-51.7-106.2
					C880.8,750.9,878.2,752.5,879,754.2L879,754.2z"/>
			</g>
		</g>
		<g>
			<g>
				<path class="st3" d="M936.3,847.9c-2-0.7-2-3.7-0.8-5.1c1.2-1.3,3.5-1.6,4.8-0.2c3,3-1.1,7-4.4,5.3c-0.9-0.4-1.6,0.9-0.8,1.3
					c2.3,1.2,5.3,0.7,6.9-1.5c1.5-2.1,0.8-5.3-1.4-6.7c-2.2-1.4-5.4-0.6-6.7,1.6c-1.4,2.3-0.7,5.9,2,6.9
					C936.8,849.6,937.2,848.2,936.3,847.9L936.3,847.9z"/>
			</g>
		</g>
		<g>
			<g>
				<path class="st3" d="M936.5,845.9c1,0,1-1.5,0-1.5C935.5,844.4,935.5,845.9,936.5,845.9L936.5,845.9z"/>
			</g>
		</g>
		<g>
			<g>
				<path class="st3" d="M938.9,843.7c0-0.1,0-0.1,0-0.2c0-1-1.5-1-1.5,0c0,0.1,0,0.1,0,0.2C937.4,844.6,938.9,844.6,938.9,843.7
					L938.9,843.7z"/>
			</g>
		</g>
		<g>
			<g>
				<path class="st3" d="M938,846.2c0,0.1,0,0.1,0,0.2c0,1,1.5,1,1.5,0c0-0.1,0-0.1,0-0.2C939.5,845.2,938,845.2,938,846.2
					L938,846.2z"/>
			</g>
		</g>
		<g>
			<g>
				<path class="st3" d="M881.2,753.1c16.2-7.6,32.5-15.2,48.7-22.9c15.7-7.3,31.2-15.3,47.3-21.6c0.9-0.3,0.5-1.8-0.4-1.4
					c-15.6,6.2-30.7,13.8-45.9,20.9c-16.8,7.9-33.7,15.8-50.5,23.7C879.6,752.2,880.3,753.5,881.2,753.1L881.2,753.1z"/>
			</g>
		</g>
		<g>
			<g>
				<path class="st3" d="M891.2,757.3c-2.3-1.1,0.5-4.4,2.4-2.8c1.8,1.6-0.3,4.3-2.3,3.1c-0.8-0.5-1.6,0.8-0.8,1.3
					c1.6,0.9,3.7,0.5,4.8-1c1-1.5,0.5-3.7-0.9-4.8c-1.5-1.1-3.6-0.6-4.7,0.8c-1.2,1.5-0.8,3.8,0.9,4.6
					C891.3,759,892.1,757.7,891.2,757.3L891.2,757.3z"/>
			</g>
		</g>
		<g>
			<g>
				<path class="st3" d="M984.8,767.5c-4.9,2.7-7.1,8-5.6,13.4c0.3,0.9,1.7,0.5,1.4-0.4c-1.4-4.8,0.6-9.4,4.9-11.7
					C986.4,768.3,985.6,767,984.8,767.5L984.8,767.5z"/>
			</g>
		</g>
		<g>
			<g>
				<path class="st3" d="M980.5,776.9c0.8-6.7,8.9-14.5,15.6-9.5c0.8,0.6,1.5-0.7,0.8-1.3c-7.7-5.7-16.9,3.1-17.9,10.8
					C978.9,777.9,980.4,777.8,980.5,776.9L980.5,776.9z"/>
			</g>
		</g>
		<g>
			<g>
				<path class="st3" d="M923.5,788.3c-5.4-14.8-0.7-33.3,16.1-37.5c0.9-0.2,0.5-1.7-0.4-1.4c-17.6,4.4-22.8,23.8-17.2,39.4
					C922.4,789.6,923.9,789.2,923.5,788.3L923.5,788.3z"/>
			</g>
		</g>
		<g>
			<g>
				<path class="st3" d="M920.1,773.5c0.1,11.4,3.9,24.1,16.3,27.2c0.9,0.2,1.3-1.2,0.4-1.4c-11.6-3-15.1-15.1-15.2-25.8
					C921.6,772.5,920.1,772.5,920.1,773.5L920.1,773.5z"/>
			</g>
		</g>
		<g>
			<g>
				<path class="st3" d="M920,782.4c2.9,13.2,13.9,22.1,27.4,22.3c1,0,1-1.5,0-1.5c-12.8-0.2-23.2-8.7-25.9-21.2
					C921.3,781.1,919.8,781.5,920,782.4L920,782.4z"/>
			</g>
		</g>
		<path class="st12" d="M977.2,785.4c0.7,1.6,4.6,9.7,13.9,12.9c5.6,1.9,10.6,1.1,12.9,0.5c1.8,3.6,3.6,7.1,5.5,10.7
			c10.4,20.1,21,39.7,31.7,58.8c-2.7,1.3-5.5,2.6-8.2,3.8c-11.8-22.3-23.5-44.7-35.3-67c-1.8,0.4-6.7,1.2-11.5-1.4
			C980.1,800.5,976.6,793.3,977.2,785.4z"/>
		<path class="st17" d="M979.9,798c6.2,2.1,12.4,4.2,18.6,6.3c13.8,21.3,27.5,42.7,41.3,64c-2.4,0.6-4.7,1.3-7.1,1.9
			c-11.7-21.4-23.3-42.8-35-64.3c-1.6,0.2-5.6,0.7-10.1-1.4C983.2,802.6,980.8,799.3,979.9,798z"/>
		<path class="st13" d="M927.2,757c-2.4,1.2-17,9.1-21.1,26.3c-0.3,1.1-4.8,21.7,6.8,31.2c10.6,8.6,31.8,5.9,46.8-11.2
			c-2.3-0.1-16.5-1.2-26.3-13.4C922.1,775.5,926.7,758.6,927.2,757z"/>
		<path class="st12" d="M926.9,758.6c-1.2,1.4-13.4,15.9-8.5,33.1c0.7,2.4,5.1,17.5,18.6,20.2c9.8,2,19.3-3.6,24.1-10.7
			c7.8-11.6,3.4-28.5-7.1-37.2C942.9,755,928.7,758.2,926.9,758.6z"/>
	</g>
	<g id="hand_left">
		<path class="st7" d="M1188.8,619.4c3.8-4.1,11.6-12.6,18.8-10.8c13.7,3.3,15.4,40.3,16,51.3c1.1,23.3-1.3,62-25.1,110.6
			c-11,13-26.3,28.8-46.8,43.9c-23.7,17.5-46.4,28.2-63.8,34.9c-8.8,7.9-16.8,13.5-22.7,17.1c-8.6,5.4-13,8.1-19.6,9.2
			c-3.4,0.6-14.8,2.5-25.3-4.8c-10-7-12.4-17.6-12.9-20.3c-1.6-7.9,0-14.4,1-17.6c10.8-1.9,21.5-3.8,32.3-5.7
			c-19.7-3.1-23.8-5.6-23.8-7.3c0-3.6,16.2-7.7,30.9-7c13.6,0.6,24.3,5.3,31,8.9c15.4-13.9,28.1-24.8,37-32.2
			c12.7-10.6,19.8-16,29.3-25.7c10.5-10.7,18-20.4,22.7-26.9c0.4-19.5,1.4-36,2.4-48.5C1173.7,644.7,1178.7,630.3,1188.8,619.4z"/>
		<g>
			<g>
				<path class="st3" d="M1006.6,841.7c9.8,4.8,20.7,4.6,30.5-0.2c1.7-0.8,0.2-3.4-1.5-2.6c-8.8,4.2-18.7,4.4-27.5,0.2
					C1006.4,838.3,1004.8,840.9,1006.6,841.7L1006.6,841.7z"/>
			</g>
		</g>
		<g>
			<g>
				<path class="st3" d="M1006.7,850c8.6,8.8,20.9,9.3,32.1,5.8c1.8-0.6,1-3.5-0.8-2.9c-10.2,3.2-21.3,3.1-29.1-5
					C1007.5,846.5,1005.3,848.6,1006.7,850L1006.7,850z"/>
			</g>
		</g>
		<g>
			<g>
				<path class="st3" d="M1012.4,864.6c9.9,6.1,22.3,6.1,32.3,0c1.6-1,0.1-3.6-1.5-2.6c-9,5.5-20.2,5.5-29.2,0
					C1012.3,861,1010.7,863.6,1012.4,864.6L1012.4,864.6z"/>
			</g>
		</g>
		<path class="st13" d="M1202,609.5c0.9,5.5,1.8,11.1,2.7,16.7c1.6,10.2,3.1,20.3,4.5,30.3c0,0,4.1,40.2-11.7,79.6
			c-14,34.8-38.3,54.3-62.8,74c-22.2,17.8-43.1,34.7-75.5,39.3c-22.1,3.2-40.8-0.6-52.6-4.1c0.2,3.4,1.2,10.1,5.6,16.8
			c2.1,3.1,8.6,12,19.9,14.3c3.1,0.6,8.8,1.2,19.9-3.1c7.9-3,21.3-9.5,34.7-24c17.2-6.3,31-13.4,41.3-19.4
			c7.7-4.5,27.1-16.3,48.5-36.2c9.4-8.8,16.8-16.9,21.9-23c5.9-11.3,12.1-25.5,16.8-42.4c7.5-26.3,7.8-45.7,8.2-70.9
			c0,0,0.2-10.6-4.6-31.6c-1.9-8.3-4-15-9.2-16.8C1206.8,608,1203.9,608.7,1202,609.5z"/>
		<path class="st13" d="M1013,864.1c5.2,1.4,13.6,3.1,23.4,1.6c10.6-1.6,14.2-5.4,35.1-14.6c13.8-6.1,13.9-5.1,25.4-10.4
			c13-6,22.3-11.5,29.6-15.9c27.7-16.7,54.3-37.4,65-45.9c-14.7,15.9-35.8,35.1-64.4,51.7c-14.2,8.3-27.8,14.5-40,19.2
			c-3.2,3.4-8.4,8.4-15.6,13.3c-10.5,7.2-20.8,14.3-33.8,13.3C1034.2,876.2,1023.7,874.8,1013,864.1z"/>
	</g>
	<g id="head">
		<path class="st2" d="M1002.4,439.1c-7.5,2.7-14.8,16.8-9.9,72.8c-9.7,30.1-3.7,61,15.8,78.7c14.7,13.3,32.3,14.7,35.7,14.9
			c23.1,1.4,46.5-11.5,55.6-30.3c1.6-3.2,4.7-9.9,4.1-18.5c-1.1-15-12.9-25.1-17.2-28.9C1044.3,490,1020.2,432.7,1002.4,439.1z"/>
		<path class="st7" d="M1080.2,544.5c-0.1,6.5,7.5,10.2,12.7,24.3c2.5,6.9,3.3,13,3.5,16.7c3.7,0.8,14.4,2.5,25.9-3
			c8.1-3.9,12.9-9.6,15.2-12.7c-8.1-16.2-16.2-32.4-24.3-48.7C1085.9,530.9,1080.3,539,1080.2,544.5z"/>
		<path class="st7" d="M1004.4,432.2c-8.7,18.5-4.8,37.4-2.1,50c2.6,12.4,10.2,36.6,32.5,55.9c15.5,13.4,31.6,18.7,40.4,21
			c7.7-3.3,19.5-9.4,30.6-20.8c11.4-11.7,16.5-23.3,21.3-34.1c9-20.7,15.2-34.9,12.8-52.8c-2.6-20.4-15.8-42.1-36.8-52.8
			C1067,380.1,1019.4,400.5,1004.4,432.2z"/>
		<g>
			<g>
				<path class="st3" d="M1037.7,471.5c1.5,6.8,3.2,13.6,5.2,20.3c1.9,6.5,3.7,13.8,6.7,19.9c4.3,8.7,12.2-6.7,14.1-10.2
					c0.9-1.7-1.6-3.2-2.6-1.5c-0.8,1.5-6.3,11.6-7.8,11.2c-2.6-0.7-4.8-11.4-5.5-13.7c-2.8-8.8-5.2-17.7-7.2-26.7
					C1040.1,468.9,1037.2,469.7,1037.7,471.5L1037.7,471.5z"/>
			</g>
		</g>
		<g>
			<g>
				<path class="st3" d="M1006.3,478.2c7.2,0,14.3-1,21.3-2.8c1.9-0.5,1.1-3.4-0.8-2.9c-6.7,1.8-13.6,2.7-20.5,2.7
					C1004.4,475.2,1004.3,478.2,1006.3,478.2L1006.3,478.2z"/>
			</g>
		</g>
		<g>
			<g>
				<path class="st3" d="M1060.5,464.1c6.1-7.3,16.2-9.2,24.4-4c1.6,1,3.1-1.6,1.5-2.6c-9.2-5.9-21-3.9-28,4.4
					C1057.2,463.4,1059.3,465.6,1060.5,464.1L1060.5,464.1z"/>
			</g>
		</g>
		<g>
			<g>
				<path class="st3" d="M1019.5,490.7c-1.2-0.3-2.2-4.6-1.1-5.2c1.1-0.5,1.1,2.1,1.1,2.5c0.1,0.9,0,2.4,0.3,3.3c0,0.2,0,0.3,0,0.5
					c0.2-0.1,0.4-0.3,0.6-0.4c0-0.1-0.9-1-1.1-1.3c-0.4-0.7-0.5-1.5-0.4-2.3c0-0.3,0.1-0.5,0.2-0.8c-0.4,0-0.8,0-1.3,0
					c-0.1,0.1,0.4,1.3,0.4,1.5c0.1,0.4,0.2,1.2,0.4,1.5c0.1,0.2,0.1,0.4,0.2,0.6c0.9,0,1.3-0.4,1-1c-0.3-1.9-3.2-1.1-2.9,0.8
					c0.3,1.7,1.7,3.6,3.7,2.7c2.2-1,1-3.8,0.5-5.4c-0.5-1.6-1.1-4.2-3.4-3.3c-1.8,0.7-2,3.2-1.8,4.8c0.3,1.8,1.3,3.7,2.9,4.7
					c1.9,1.2,3.9,0,4-2.1c0-1.2-0.2-2.5-0.3-3.8c-0.1-1.2-0.1-2.5-0.6-3.6c-0.7-1.7-2.5-2.7-4.3-1.9c-4.1,1.7-3.2,10.2,1.1,11.1
					C1020.6,494,1021.4,491.1,1019.5,490.7L1019.5,490.7z"/>
			</g>
		</g>
		<g>
			<g>
				<path class="st3" d="M1073.3,478.5c-1-0.6-1.2-1.7-1.3-2.8c0-0.3-0.1-2.7,0-2.7c0.2-0.1,0.9,2.6,1,3.2c0.2,1.5,0.1,3-0.2,4.5
					c0.8-0.2,1.7-0.4,2.5-0.7c-1.9-1.6-3-4-2.5-6.5c-0.2,0.3-0.5,0.6-0.7,0.9c0.2-0.1,0.4,2.6,0.4,2.9c0.1,0.8,0.3,1.5,0.8,2.2
					c1,1.6,3.6,0.1,2.6-1.5c-1.1-1.7-0.1-3.8-1.6-5.4c-1-1.1-2.9-1.8-4.1-0.6c-1.1,1.1-0.6,4-0.2,5.3c0.6,1.9,1.6,3.5,3.1,4.8
					c0.8,0.7,2.3,0.5,2.5-0.7c0.6-2.9,0.5-5.9-0.5-8.7c-0.7-1.9-2.3-4-4.5-2.8c-1.9,1.1-1.9,3.8-1.7,5.7c0.2,2.2,0.9,4.2,2.8,5.4
					C1073.4,482.1,1074.9,479.5,1073.3,478.5L1073.3,478.5z"/>
			</g>
		</g>
		<g>
			<g>
				<path class="st3" d="M1081.3,495.9c1.9,0,1.9-3,0-3C1079.3,492.9,1079.3,495.9,1081.3,495.9L1081.3,495.9z"/>
			</g>
		</g>
		<g>
			<g>
				<path class="st3" d="M1090.2,486.1c0.1,0,0.2,0,0.3,0c0.8,0,1.5-0.7,1.5-1.5c0-0.8-0.7-1.5-1.5-1.5c-0.1,0-0.2,0-0.3,0
					c-0.8,0-1.5,0.7-1.5,1.5C1088.7,485.4,1089.3,486.1,1090.2,486.1L1090.2,486.1z"/>
			</g>
		</g>
		<g>
			<g>
				<path class="st3" d="M1088.4,493.8c0,0.1,0,0.2,0,0.3c0,0.8,0.7,1.5,1.5,1.5c0.8,0,1.5-0.7,1.5-1.5c0-0.1,0-0.2,0-0.3
					c0-0.8-0.7-1.5-1.5-1.5C1089,492.3,1088.4,493,1088.4,493.8L1088.4,493.8z"/>
			</g>
		</g>
		<g>
			<g>
				<path class="st3" d="M1050.1,531.7c8.9-2.5,17.3,0.7,25.5,4.1c1.8,0.7,2.6-2.2,0.8-2.9c-8.7-3.6-17.7-6.8-27.1-4.1
					C1047.5,529.4,1048.3,532.3,1050.1,531.7L1050.1,531.7z"/>
			</g>
		</g>
		<path class="st2" d="M989,465.8c-10.3-27.5,9.6-55.2,12.2-58.8c1.9-2.5,23.5-30.8,59.2-30c15.6,0.3,27.4,6,33.5,9.6
			c8.8,0.6,25.5,3,42.2,14.4c30.1,20.4,36,53.6,37,60.1c7.8,7.1,18.8,18.6,27.9,35.3c2.7,5,7.1,13.1,9.9,23.3
			c1.9,7.3,13.3,49.4-13.6,71.9c-15.5,13-38.8,15.4-56.4,7.5c-17.9-8-27.2-25.5-28.4-27.8c-0.8-1.5-1.3-2.7-1.7-3.5
			c-16.2-36.5,9.6-73.4,11.3-75.7c0.8-0.3,11-4.2,13.1-13.9c1.8-8.2-2.4-18.9-9.1-19.6c-4.4-0.5-9.2,3.5-12.2,9.1
			c-7.4-3.7-16.4-9-25.7-16.5c-12.5-10.2-21-20.9-26.6-29.2c-10.4,3.1-31.4,11.1-48.8,31.3c-8,9.3-13,18.7-16.1,26.1
			C994.4,476.3,991.3,471.8,989,465.8z"/>
		<path class="st5" d="M1046.7,427.5c8.8,4.7,27,16.2,39.3,38.5c5,9.1,15.3,27.7,11.3,52c-3.6,21.8-16.8,35.7-22.1,40.8
			c2.8-1.2,6.7-2.4,11.6-3c4.3-0.5,8-0.2,10.8,0.2c2.5,3.8,5.2,8.7,7.6,14.6c2.5,6.2,3.9,11.9,4.7,16.5c4.1-1.3,8.2-2.5,12.3-3.8
			c0.8,1.5,2,3.6,3.9,5.8c8.9,10.8,22.2,12.8,27.6,13.6c16,2.4,28.4-3.3,33-5.4c0,0,9.5-4.5,16.3-11.3c15-14.8,16.2-49.4,0.8-85.4
			c-0.9,3.5-4.8,16.9-17.9,25.2c-13.9,8.8-32.8,8.6-46.6-1.6c-15.7-11.6-16.6-30.1-16.7-32.6c1.7-0.5,4.6-1.7,7.4-4.3
			c0.6-0.5,5.7-5.6,5.7-13.4c0-4.8-1.9-14.4-8.5-15.6c-4.7-0.9-10.3,2.7-13,8.9c-9.3-4.5-21.9-11.9-34.2-23.8
			c-8-7.7-13.9-15.4-18.3-22c-3.2,0.9-6.8,2.1-10.5,3.8C1049.5,426.1,1048.1,426.8,1046.7,427.5z"/>
		<path class="st4" d="M1121.8,492.2c-2.6,2.1-6.5,5.7-10,11c-8,11.9-6.4,20.8-13.3,34.5c-2,4.1-5.5,9.9-11.6,16.3
			c4.9-1.3,9.8-2.7,14.8-4c1.1,4.5,2.4,9.1,3.8,13.8c2.4,8.1,4.9,15.7,7.6,22.9c2.7-1.1,5.3-2.3,8-3.4c-3.5-4.2-8.6-11.1-11.9-20.8
			c-5.5-16.1-2.9-30-1.3-37.9C1110.7,510,1117,499.1,1121.8,492.2z"/>
		<path class="st18" d="M1033.7,538.1c1.3,2,6.1,9.7,4,19c-2.6,11.4-13.9,18.1-23.7,19c-9.8,1-17.2-3.9-19.4-5.5
			c1.6,4.2,4.5,10.4,9.9,16.4c14.9,16.6,40.7,22.6,62.3,15.4c14.7-4.9,23.9-14.7,28.5-20.5c-0.3-3.2-1-7.1-2.4-11.4
			c-2.2-6.7-5.4-11.7-8-15c-2.9,1.5-5.7,3-8.6,4.6c-5.7-1.1-13.5-3.2-22-7.5C1044.9,548,1038.2,542.4,1033.7,538.1z"/>
		<g>
			<g>
				<path class="st3" d="M1087.2,555.8c5.7-3.2,10.8-7,15.5-11.4c1.4-1.3-0.7-3.5-2.1-2.1c-4.5,4.3-9.5,7.9-14.9,11
					C1084,554.1,1085.5,556.7,1087.2,555.8L1087.2,555.8z"/>
			</g>
		</g>
		<g>
			<g>
				<path class="st3" d="M1088.5,557.2c5.6-4.6,10.9-9.5,16-14.6c1.4-1.4-0.8-3.5-2.1-2.1c-5.1,5.1-10.5,10-16,14.6
					C1084.9,556.4,1087,558.5,1088.5,557.2L1088.5,557.2z"/>
			</g>
		</g>
	</g>
</g>
</svg>
