<?xml version="1.0" encoding="utf-8"?>
<!-- Generator: Adobe Illustrator 19.0.0, SVG Export Plug-In . SVG Version: 6.00 Build 0)  -->
<svg version="1.1" xmlns="http://www.w3.org/2000/svg" xmlns:xlink="http://www.w3.org/1999/xlink" x="0px" y="0px"
	 viewBox="0 0 1600 1200" style="enable-background:new 0 0 1600 1200;" xml:space="preserve">
<style type="text/css">
	.st0{fill:#E8E8E8;}
	.st1{fill:none;stroke:#E8E8E8;stroke-width:2;stroke-miterlimit:10;}
	.st2{fill:#161616;}
	.st3{fill:#191919;}
	.st4{fill:#FFFFFF;stroke:#191919;stroke-width:2;stroke-miterlimit:10;}
	.st5{opacity:0.47;fill:#6C6D6D;}
	.st6{opacity:0.37;fill:#6C6D6D;}
	.st7{opacity:0.42;fill:#6C6D6D;}
	.st8{opacity:0.5;fill:#6C6D6D;}
	.st9{opacity:0.29;fill:#6C6D6D;}
	.st10{opacity:0.24;fill:#6C6D6D;}
	.st11{opacity:0.4;fill:#6C6D6D;}
	.st12{opacity:0.44;fill:#6C6D6D;}
	.st13{fill:#AF4545;}
	.st14{opacity:0.28;}
	.st15{fill:#681225;}
	.st16{opacity:0.36;fill:#6C6D6D;}
	.st17{opacity:0.49;fill:#6C6D6D;}
	.st18{fill:#EC615B;}
	.st19{opacity:0.25;fill:#681225;}
	.st20{opacity:0.28;fill:#681225;}
	.st21{fill:#FFFFFF;stroke:#161616;stroke-width:2;stroke-miterlimit:10;}
	.st22{fill:#5222D0;}
	.st23{fill:#161616;stroke:#161616;stroke-width:2;stroke-miterlimit:10;}
	.st24{opacity:0.22;fill:#6D6C6C;}
	.st25{fill:#321693;}
</style>
<g id="background_n2">
	<g>
		<g>
			<path class="st0" d="M1468.4,679.6c-11.1,95.3-22.1,190.5-33.2,285.8c-3.2,27.1-6.3,54.2-9.5,81.4c-0.2,1.9,2.8,1.9,3,0
				c11.1-95.3,22.1-190.5,33.2-285.8c3.2-27.1,6.3-54.2,9.5-81.4C1471.6,677.7,1468.6,677.7,1468.4,679.6L1468.4,679.6z"/>
		</g>
	</g>
	<g>
		<g>
			<path class="st0" d="M1470.8,681.2c2-10.2,19.7-9.2,26.4-5c6.5,4.1,4.4,12.4,3.7,18.8c-0.7,6.6-1.4,13.2-2.1,19.8
				c-2.8,26.8-5.6,53.5-8.4,80.3c-5.6,53.2-11.2,106.4-16.8,159.5c-3.1,29.7-6.2,59.5-9.4,89.2c-0.2,1.9,2.8,1.9,3,0
				c12.4-117.6,24.9-235.2,37.1-352.8c0.5-5.2,1.2-10.7-2.5-14.9c-3.1-3.5-7.9-4.9-12.3-5.5c-7.8-1-19.7,0.3-21.6,9.7
				C1467.5,682.3,1470.4,683.1,1470.8,681.2L1470.8,681.2z"/>
		</g>
	</g>
	<g>
		<g>
			<path class="st0" d="M1458.8,757.2c-19.8-4.1-22.6,23.3-29.4,35.2c-9.6,16.6-26.9,28.1-45.9,30.5c-1.5,0.2-2.2,2.5-0.4,2.9
				c6.4,1.6,7.6,9.4,8.2,14.9c0.6,5.7,0.7,11.5,0.2,17.2c-1.2,12.4-5.1,24.3-11.4,35c-1,1.7,1.6,3.2,2.6,1.5
				c2.5-4.2,8.5-3.6,11.8-0.6c3.8,3.5,3.8,9.4,3.3,14.1c-1,8.2-4.1,15.8-2,24.1c0.3,1.3,2,1.4,2.7,0.4
				c10.5-14.7,25.1-25.8,42.1-31.9c1.8-0.6,1-3.5-0.8-2.9c-17.8,6.4-32.9,17.9-43.9,33.3c0.9,0.1,1.8,0.2,2.7,0.4
				c-3-12.1,7.6-26.8-0.7-37.9c-4.2-5.7-13.9-7-17.9-0.4c0.9,0.5,1.7,1,2.6,1.5c7.4-12.7,11.7-27,12.1-41.7
				c0.3-9.2,0.7-27-10.9-29.8c-0.1,1-0.3,2-0.4,2.9c16.1-2,31-10,41.6-22.3c5.1-5.9,9-12.7,11.7-20.1c3.4-9.5,7.7-26.2,21.3-23.4
				C1459.9,760.5,1460.7,757.6,1458.8,757.2L1458.8,757.2z"/>
		</g>
	</g>
	<g>
		<g>
			<path class="st0" d="M1479,686.3c3.8,2.7,8.6,3.3,12.9,1.6c1.8-0.7,1-3.6-0.8-2.9c-3.7,1.4-7.4,1-10.6-1.3
				C1479,682.6,1477.5,685.2,1479,686.3L1479,686.3z"/>
		</g>
	</g>
	<g>
		<g>
			<path class="st0" d="M1480.5,692.4c1.9,3.2,6,4.8,9.5,3.4c1.8-0.7,1-3.6-0.8-2.9c-2.3,0.9-4.9,0.2-6.1-2
				C1482.1,689.2,1479.6,690.7,1480.5,692.4L1480.5,692.4z"/>
		</g>
	</g>
	<g>
		<g>
			<path class="st0" d="M1347.4,1052.6c16.9-1.8,35.6-6.2,52.4-1.8c7.6,2,15,5,22.7,6.9c8.5,2.1,17.3,3.3,25.9,4.6
				c1.9,0.3,2.7-2.6,0.8-2.9c-8.7-1.3-17.4-2.6-25.9-4.6c-8.3-2-16.1-5.4-24.4-7.3c-16.5-4-34.8,0.3-51.4,2.1
				C1345.5,1049.8,1345.5,1052.9,1347.4,1052.6L1347.4,1052.6z"/>
		</g>
	</g>
	<g>
		<g>
			<path class="st0" d="M1438,1051.6c12.8,1,24.9-2.9,37.2-5.7c13.8-3.1,27.8-4.2,41.9-3.3c1.9,0.1,1.9-2.9,0-3
				c-13.1-0.8-26.1,0-38.9,2.6c-13.3,2.7-26.3,7.5-40.1,6.4C1436,1048.4,1436,1051.4,1438,1051.6L1438,1051.6z"/>
		</g>
	</g>
	<g>
		<g>
			<path class="st0" d="M1356.5,578c-13.3,84.6-26.6,169.2-40,253.9c-3.8,24-7.6,48.1-11.4,72.1c-0.3,1.9,2.6,2.7,2.9,0.8
				c13.3-84.6,26.6-169.2,40-253.9c3.8-24,7.6-48.1,11.4-72.1C1359.7,576.9,1356.8,576.1,1356.5,578L1356.5,578z"/>
		</g>
	</g>
	<g>
		<g>
			<path class="st0" d="M1328.2,582.7c-15.3,84.5-30.1,169.1-44.4,253.7c-4,23.9-8,47.7-12,71.6c-0.3,1.9,2.6,2.7,2.9,0.8
				c14.1-84.7,28.6-169.3,43.6-253.9c4.2-23.8,8.5-47.6,12.8-71.5C1331.5,581.6,1328.6,580.8,1328.2,582.7L1328.2,582.7z"/>
		</g>
	</g>
	<g>
		<g>
			<path class="st0" d="M1330.3,581.8c5.1-10.8,18.5-13.1,26.8-4.4c1.3,1.4,3.5-0.7,2.1-2.1c-9.6-10-25.6-7.5-31.5,5.1
				C1326.9,582,1329.5,583.5,1330.3,581.8L1330.3,581.8z"/>
		</g>
	</g>
	<g>
		<g>
			<path class="st0" d="M1317.5,626.7c-3.5,14-18.2,19.8-30.5,23.9c-11.3,3.8-23,7.9-30.3,17.9c-1,1.4,0.9,2.6,2.1,2.1
				c8.6-3.7,6.2,11,5.3,14.6c-1.3,4.8-3.2,9.4-5.6,13.7c-0.5,0.8-0.1,2,0.9,2.2c5.5,1.2,2.6,9.5,1.4,12.9c-2,5.6-4.1,11.1-6.1,16.7
				c-4.1,11.1-8.1,22.2-12.2,33.3c-0.4,1.2,0.8,2.1,1.8,1.8c1.9-0.4,3.2-1.3,4.6-2.6c1.3-1.2,2.7-2.7,4.4-3.3c1.9-0.6,4-0.2,6-0.1
				c5.7,0.2,11.4-0.5,16.7-2.5c10.2-3.8,18.7-11.2,23.7-20.9c0.9-1.7-1.7-3.2-2.6-1.5c-5.3,10.3-14.8,17.9-26,20.8
				c-5.7,1.5-11,0.4-16.6,1c-4.9,0.5-6.5,5.3-11,6.2c0.6,0.6,1.2,1.2,1.8,1.8c5.4-14.8,10.9-29.6,16.3-44.4c2-5.5,8.5-20-1.4-22.2
				c0.3,0.7,0.6,1.5,0.9,2.2c4-7.1,8.5-17,7.2-25.4c-0.8-5.4-5.6-9.3-11-7c0.7,0.7,1.4,1.4,2.1,2.1c15.1-20.5,54.1-14.2,61.2-42.5
				C1320.8,625.6,1318,624.8,1317.5,626.7L1317.5,626.7z"/>
		</g>
	</g>
	<g>
		<g>
			<path class="st0" d="M1239.7,916c11.8,1.3,22.1-6.9,34-5.2c10.9,1.5,20.8,7.4,32,6.9c1.9-0.1,1.9-3.1,0-3
				c-11.4,0.5-21.5-5.7-32.6-7c-11.7-1.3-21.8,6.6-33.4,5.3C1237.8,912.8,1237.8,915.8,1239.7,916L1239.7,916z"/>
		</g>
	</g>
	<g>
		<g>
			<path class="st0" d="M1302.1,725.5c-1.9,4-4.2,7.7-7,11.2c-1.2,1.5,0.9,3.6,2.1,2.1c3-3.6,5.5-7.5,7.4-11.8
				C1305.5,725.3,1302.9,723.8,1302.1,725.5L1302.1,725.5z"/>
		</g>
	</g>
	<g>
		<g>
			<path class="st0" d="M878.8,896.3c39.6-9.8,80.9-2.8,120.9-0.3c42,2.6,84.1,3,126.2,2.6c23.9-0.2,47.7-0.7,71.6-1.1
				c1.9,0,1.9-3,0-3c-42.7,0.8-85.5,1.6-128.2,1c-21.2-0.3-42.4-1-63.5-2.2c-20.5-1.2-40.9-3.3-61.4-4.4
				c-22.2-1.2-44.6-0.9-66.3,4.5C876.2,893.8,877,896.7,878.8,896.3L878.8,896.3z"/>
		</g>
	</g>
	<g>
		<g>
			<path class="st0" d="M1208.5,948.4c30.7,4.5,60.9-3.7,91.4-5.9c31.7-2.3,63.4,2.4,94.3,9.7c1.9,0.4,2.7-2.4,0.8-2.9
				c-29.8-7-60.5-11.7-91.3-10c-31.5,1.7-62.8,10.9-94.4,6.3C1207.4,945.2,1206.6,948.1,1208.5,948.4L1208.5,948.4z"/>
		</g>
	</g>
	<g>
		<g>
			<path class="st0" d="M206.9,895.7c37-3.6,73.8-1.2,110.2,6.3c16.9,3.5,33.9,7.2,51.3,7c16.9-0.2,33.7-3.4,50.3-6.2
				c20-3.4,40.3-6.3,60.5-3c1.9,0.3,2.7-2.6,0.8-2.9c-34.3-5.7-67.7,6.2-101.6,8.7c-19,1.4-37.3-1.7-55.8-5.5
				c-17.5-3.6-35-6.6-52.9-8c-20.9-1.6-41.9-1.4-62.8,0.7C205,892.8,205,895.8,206.9,895.7L206.9,895.7z"/>
		</g>
	</g>
	<g>
		<g>
			<path class="st0" d="M97.1,655c30-7.7,60.1-15.4,90.8-19.8c30.6-4.4,61.1-4.5,91.7-0.6c58.9,7.6,117.3,21.9,174.7,37.1
				c112.9,30.1,223.5,68.2,336.3,98.7c63.7,17.2,128.1,32,193.4,41.3c1.9,0.3,2.7-2.6,0.8-2.9c-117.2-16.8-230.8-50.9-343.8-85.4
				c-112.8-34.5-226.2-70.5-343-89.2c-33.6-5.4-67.1-7.4-101.1-3.3c-34.1,4.1-67.5,12.6-100.7,21.1C94.4,652.6,95.2,655.5,97.1,655
				L97.1,655z"/>
		</g>
	</g>
	<g>
		<g>
			<path class="st0" d="M684.8,739.2c69.9,0.3,139.1-10.8,207.5-24.4c68.8-13.7,137.2-30,206.8-39.9c39.6-5.7,79.5-9.1,119.5-8.9
				c1.9,0,1.9-3,0-3c-69.9-0.4-139.1,10.7-207.5,24.2c-68.8,13.7-137.2,30-206.8,40c-39.6,5.7-79.5,9.2-119.5,9
				C682.8,736.2,682.8,739.2,684.8,739.2L684.8,739.2z"/>
		</g>
	</g>
	<g>
		<g>
			<path class="st0" d="M1371.6,682.1c22.1,7.6,43.5,17.1,63.9,28.5c1.7,0.9,3.2-1.6,1.5-2.6c-20.7-11.5-42.3-21.1-64.7-28.8
				C1370.6,678.6,1369.8,681.5,1371.6,682.1L1371.6,682.1z"/>
		</g>
	</g>
	<g>
		<g>
			<path class="st0" d="M60.7,790.8c11,19.6,15.3,42.1,12.6,64.4c-0.1,0.8,0.8,1.5,1.5,1.5c3.4-0.2,9.3,0,11.8,2.8
				c2.3,2.5,0,5.3-1.5,7.4c-2,2.8-4.6,5.7-4.6,9.3c0,2,0.8,3.6,1.5,5.4c1.6,3.7,2.5,7.2,3.2,11.2c0.9,5.4,1.9,10.6,4.1,15.6
				c8.6,19.8,28.1,32.4,45.8,43.4c1.6,1,3.2-1.6,1.5-2.6c-19.6-12.2-42.3-26.8-47.4-51c-1.3-6.2-2.1-12.1-4.5-18.1
				c-2.7-6.4,2.2-9.3,4.9-14.4c5.1-9.3-7.6-12.4-14.7-12c0.5,0.5,1,1,1.5,1.5c2.8-22.8-1.8-45.8-13-65.9
				C62.4,787.6,59.8,789.1,60.7,790.8L60.7,790.8z"/>
		</g>
	</g>
	<g>
		<g>
			<path class="st0" d="M65.9,791c10.2,6,20.5,12.1,30.7,18.1c4.1,2.4,12,6.3,10.2,12c-1,3.2-4.6,4.5-4.5,8.2c0,1,0.9,1.7,1.9,1.4
				c8-2.1,11.3,7.3,14.4,12.6c2.6,4.4,6.4,7.5,10,11.1c7.2,7.3,13,15.8,17.4,25c9.1,19,11.7,40.9,7,61.4c-0.4,1.9,2.5,2.7,2.9,0.8
				c5.1-22.4,1.9-46.1-8.7-66.5c-5.4-10.5-12.7-19.1-21.1-27.3c-6.7-6.5-10.3-23.3-22.7-20.1c0.6,0.5,1.3,1,1.9,1.4
				c-0.1-2.3,3.2-4,4.3-5.8c0.7-1.3,1-2.5,0.9-4c-0.3-3.9-3.7-7.2-6.7-9.5c-5.4-4.1-11.8-7.2-17.7-10.6c-6.2-3.7-12.5-7.4-18.7-11.1
				C65.7,787.4,64.2,790,65.9,791L65.9,791z"/>
		</g>
	</g>
	<g>
		<g>
			<path class="st0" d="M83.1,819.4c26.4,36.3,46,77.1,57.8,120.3c0.5,1.9,3.4,1.1,2.9-0.8c-11.9-43.5-31.5-84.6-58.1-121
				C84.6,816.3,82,817.8,83.1,819.4L83.1,819.4z"/>
		</g>
	</g>
	<g>
		<g>
			<path class="st0" d="M124.4,842.8c1.4-33.7,28.3-59.7,30.8-93.3c-1,0.1-2,0.3-2.9,0.4c2.7,8.4,5.4,16.8,8.2,25.2
				c1.7,5.1,11.9,28,0.4,27.7c-1.5,0-2,2-0.8,2.8c4.5,2.9,3.6,8.9,3.9,13.6c0.2,4,1.1,7.4,2.7,11.1c5.2,11.5,6.3,22.7,4.6,35.1
				c-1.6,11.5-4.8,22.7-7.6,33.9c-3,12.2-6,24.5-9,36.7c-0.5,1.9,2.4,2.7,2.9,0.8c3.3-13.5,6.7-27,10-40.6c3-12.1,6.4-24.2,7.4-36.7
				c0.4-5.5,0.3-11.1-0.7-16.6c-1.1-6.2-4.2-11.3-6.1-17.2c-2.4-7.4,1.2-17.9-6.5-22.8c-0.3,0.9-0.5,1.9-0.8,2.8
				c10.5,0.3,8.9-11.9,6.8-18.4c-4.1-12.7-8.3-25.5-12.4-38.2c-0.5-1.6-2.8-1.3-2.9,0.4c-2.4,33.5-29.4,59.5-30.8,93.3
				C121.3,844.7,124.3,844.7,124.4,842.8L124.4,842.8z"/>
		</g>
	</g>
	<g>
		<g>
			<path class="st0" d="M153.8,776.9c-5.8,25.8-10.1,52-12.8,78.3c-0.2,1.9,2.8,1.9,3,0c2.7-26.1,7-51.9,12.7-77.5
				C157.1,775.8,154.2,775,153.8,776.9L153.8,776.9z"/>
		</g>
	</g>
	<g>
		<g>
			<path class="st0" d="M101.3,890.4c10.8,2,20.4,7.1,28.1,14.9c1.4,1.4,3.5-0.7,2.1-2.1c-8-8.2-18.1-13.6-29.4-15.7
				C100.2,887.2,99.4,890.1,101.3,890.4L101.3,890.4z"/>
		</g>
	</g>
	<g>
		<g>
			<path class="st0" d="M116.2,865.3c1-8.1,2.1-16.1,3.1-24.2c0.2-1.9-2.8-1.9-3,0c-1,8.1-2.1,16.1-3.1,24.2
				C113,867.2,116,867.2,116.2,865.3L116.2,865.3z"/>
		</g>
	</g>
	<g>
		<g>
			<path class="st0" d="M138.2,807.1c3.1,4.1,5.2,8.5,6.3,13.5c0.4,1.9,3.3,1.1,2.9-0.8c-1.2-5.2-3.4-10-6.6-14.2
				C139.6,804.1,137,805.5,138.2,807.1L138.2,807.1z"/>
		</g>
	</g>
	<g>
		<g>
			<path class="st0" d="M923.3,832.6c0.6,6.4,0.4,12.8-0.3,19.2c-0.1,0.6,0.5,1.4,1.1,1.4c2.7,0.4,5.4,0.8,8.2,1.1
				c-0.3-0.7-0.6-1.5-0.9-2.2c-1,2.4-3.9,6.2-2.5,8.8c0.9,1.6,3.2,2.1,4.1,4c1.1,2.3,0.8,5,1.8,7.3c4,8.6,19.1,3.4,21.5,12.5
				c0.5,1.9,3.4,1.1,2.9-0.8c-2-7.8-10.6-7.1-16.8-9.2c-6.6-2.2-4.5-8.3-7.6-13c-0.7-1-2.7-1.8-3.1-2.6c-0.4-0.8,1.7-4.3,2.3-5.5
				c0.3-0.8,0.2-2.1-0.9-2.2c-2.7-0.4-5.4-0.8-8.2-1.1c0.4,0.5,0.7,1,1.1,1.4c0.8-6.4,0.9-12.8,0.3-19.2
				C926.1,830.7,923.1,830.7,923.3,832.6L923.3,832.6z"/>
		</g>
	</g>
	<g>
		<g>
			<path class="st0" d="M926.6,836.2c8.5,3.9,17.8,7.1,25.6,12.3c10,6.7,11.4,16.6,11.3,27.9c0,1.9,3,1.9,3,0
				c0-10.2-0.7-20.4-8.9-27.5c-8.2-7.2-19.7-10.8-29.5-15.3C926.4,832.8,924.9,835.4,926.6,836.2L926.6,836.2z"/>
		</g>
	</g>
	<g>
		<g>
			<path class="st0" d="M935.1,851.8c11.1,7.3,19.5,17.5,24.8,29.7c0.8,1.8,3.3,0.2,2.6-1.5c-5.4-12.7-14.3-23.2-25.8-30.7
				C935,848.2,933.5,850.8,935.1,851.8L935.1,851.8z"/>
		</g>
	</g>
	<g>
		<g>
			<path class="st0" d="M964.1,853.7c-0.8-3.1-2.2-7-0.6-10c1.3-2.4,3.8-2.9,5.9-4.3c3.1-2,3.8-6.7,5.3-9.7c1-2,2.9-5.9,4.9-7.1
				c2.9-1.8,5.3,1.4,6.1,4.2c0.8,2.8,0.3,5.5-0.7,8.2c-0.5,1.3-1.3,2.4-1.2,3.9c0.1,1.1,0.4,1.7,1,2.7c1.7,2.6,3.5,4.3,3.8,7.7
				c0.4,5.8-2.6,10.8-6.2,15.1c-5.5,6.6-12.2,12-14.6,20.6c-0.5,1.9,2.4,2.7,2.9,0.8c3.6-12.6,18.2-18.7,20.6-31.8
				c0.9-4.8-0.4-8.1-2.4-12.3c-1.9-4.1-0.8-5.4-0.1-9.2c0.4-2.1,0.3-4.4-0.3-6.5c-0.8-3.1-3.6-7.8-7.4-7.7c-3.8,0-7.1,6.5-8.6,9.2
				c-1.5,2.7-2.3,7-4.6,8.9c-1.8,1.5-3.9,1.7-5.6,3.4c-3.8,4.1-2.5,9.9-1.2,14.7C961.8,856.3,964.7,855.6,964.1,853.7L964.1,853.7z"
				/>
		</g>
	</g>
	<g>
		<g>
			<path class="st0" d="M976.8,840.6c-5.2,11.6-9.7,23.5-13.3,35.7c-0.6,1.9,2.3,2.6,2.9,0.8c3.5-11.9,7.9-23.6,13-34.9
				C980.2,840.4,977.6,838.8,976.8,840.6L976.8,840.6z"/>
		</g>
	</g>
	<g>
		<g>
			<path class="st0" d="M186,879c29.1-9.7,60.8-8.8,89.3,2.7c1.8,0.7,2.6-2.2,0.8-2.9c-29-11.6-61.3-12.5-90.9-2.7
				C183.4,876.8,184.2,879.7,186,879L186,879z"/>
		</g>
	</g>
	<ellipse class="st1" cx="1176.8" cy="233" rx="81.5" ry="80.3"/>
	<g>
		<g>
			<path class="st0" d="M205.6,395.1c-6.3-10.2,8.7-18.5,17.2-17.8c10.5,0.9,19.9,7,30.5,7.6c17.3,1.1,31.8-10.6,46.9-17
				c9.3-3.9,18.6-5.3,28.4-2.8c9.6,2.5,18.3,7.4,27.8,10.1c8.3,2.4,16.4,2.5,24.8,0.3c9.4-2.4,18.1-6.9,27.6-9.2
				c10.2-2.5,19.1-0.8,27.8,4.8c7.3,4.7,14,10.9,22.5,13.5c9,2.8,24.7-0.6,29.1,10.1c4.6,11.1-12.1,15.5-19.7,16.5
				c-11.8,1.4-23.8,1.7-35.6,0.7c-11.5-0.9-22.7-3.7-34.2-4c-10.6-0.3-19.6,2.6-28.7,7.9c-9.6,5.7-18.7,10.6-30.1,11.8
				c-24.3,2.6-48.1-6.6-72.3-6.3c-13.6,0.1-27.8,3.7-41.2-0.1c-11.2-3.2-22.5-13.7-19.8-26.2c0.4-1.9-2.5-2.7-2.9-0.8
				c-1.9,9,2.1,17.2,9,23c8.5,7.1,19.1,8.9,29.9,8.7c13.1-0.3,25.8-2.1,38.9-0.8c12.2,1.3,24.3,3.8,36.5,5.2
				c11.2,1.2,22.9,1.4,33.8-1.9c11.6-3.6,20.6-12.3,32.2-15.7c13.2-3.9,27.1-0.2,40.4,1.5c13.4,1.7,27,1.9,40.4,0.6
				c8.3-0.8,18-2.1,24-8.6c5.1-5.6,3.8-13.4-2.1-17.9c-8.9-6.8-21.2-3.4-31-8.1c-9-4.3-16.1-11.9-25.5-15.7
				c-20.7-8.4-39.4,9.2-59.8,9.9c-11.4,0.4-21.8-5.1-32.1-9.1c-9.5-3.6-19.1-5.7-29.1-3.4c-10.6,2.4-19.9,8.2-29.5,13
				c-12.1,6-23.4,9-36.7,4.9c-10.5-3.2-21.9-8.8-32.5-2.8c-6.9,3.9-12.2,12-7.5,19.6C204,398.3,206.6,396.8,205.6,395.1L205.6,395.1
				z"/>
		</g>
	</g>
	<g>
		<g>
			<path class="st0" d="M721.1,253.5c8-16.5,29.9-4.1,41.5-0.4c15,4.8,27.4-2,40.8-8.2c8.3-3.9,16.5-6.2,25.7-5.7
				c9.4,0.6,18.6,3.2,27.9,4.5c17.7,2.4,34.2-3.2,51.4-6.1c9.2-1.5,18.6-1.8,27.8-0.8c4.7,0.5,9.4,1.3,14,2.5
				c4.3,1.1,9.6,2.1,13.4,4.4c11.6,6.9-3.8,18.5-11,20.6c-7.4,2.2-15.3,1.7-22.8,0.4c-8.7-1.5-17.3-4-26.1-4.3
				c-8.3-0.4-15.8,1.8-23.4,4.8c-8.8,3.5-17.2,6.9-26.8,7c-9.4,0.1-18.9-1.2-28.3-1.7c-21.6-1-43.3-0.5-64.8,1.5
				c-10.3,1-20.8,3.4-31.1,3.5c-5.1,0.1-10.5-1-14.3-4.6c-2.2-2.2-3.8-5.1-3.3-8.3c0.6-3.9,3.8-7.6,8.2-6.9c1.9,0.3,2.7-2.6,0.8-2.9
				c-6.1-0.9-11.3,3.5-12.1,9.6c-0.8,6.6,4.6,12.2,10.4,14.5c9,3.6,19.5,0.7,28.7-0.4c11.4-1.4,22.8-2.4,34.3-2.9
				c11.5-0.5,22.9-0.7,34.4-0.3c11.4,0.3,22.8,1.6,34.2,2c10.4,0.3,19.4-2.7,28.9-6.5c11.1-4.4,21.1-6.3,33-4.3
				c15.9,2.6,34.4,9,49.2-0.9c5.1-3.4,10.3-9.9,8.5-16.4c-2-7.5-13.9-9.3-20.1-10.8c-9.6-2.3-19.5-3.3-29.4-2.9
				c-10.6,0.5-20.9,2.9-31.2,5.1c-11.6,2.5-22.9,3.8-34.7,1.9c-10-1.6-20-4.5-30.3-4.2c-21.4,0.5-38.4,21-60.4,14.4
				c-9.4-2.8-18.1-8.4-28.3-8.2c-7.1,0.2-14.2,3-17.4,9.7C717.7,253.7,720.3,255.2,721.1,253.5L721.1,253.5z"/>
		</g>
	</g>
	<g>
		<g>
			<path class="st0" d="M1165.2,403.8c25.3-14.1,55.2-7,82.7-7.6c13.7-0.3,25.9-3.4,38.9-7.6c7.4-2.4,14.7-4.1,22.5-4.1
				c7.7-0.1,15.3,0.9,23,1.3c6.5,0.3,13.1,0.3,19.4-1.3c3.1-0.7,6-2,9-2.7c6.8-1.5,10,3.5,10.2,9.7c0.4,15.3-15,23.8-28.1,26.1
				c-15.8,2.7-32.2,0.7-48.1,0.2c-15.1-0.4-29.8,1-44.7,3.7c-17.2,3.1-34.5,7-52.1,6.6c-8.3-0.2-16.6-1.3-24.5-3.9
				c-3.9-1.3-8-2.9-11.5-5.2c-3.7-2.4-9.1-10.7-1.5-12.3c1.9-0.4,1.1-3.3-0.8-2.9c-4.3,0.9-6.6,5.3-5.8,9.6c1.2,6,7.9,9.3,13,11.5
				c14.6,6.4,30.9,7.2,46.6,5.7c18.6-1.7,36.6-6.7,55.2-8.8c19.2-2.2,38.4,0.2,57.7,0.1c14.4-0.1,31.3-1.6,41.3-13.4
				c3.8-4.5,6.4-10.2,6.5-16.2c0.1-4.8-1.4-11.1-6.3-13.1c-6.3-2.6-13.9,2.2-20.1,3.2c-9.1,1.4-18.5,0.2-27.6-0.4
				c-8.1-0.6-16.2-0.7-24.2,1.1c-8.9,2-17.3,5.7-26.2,7.8c-34.8,8.2-73.1-7.8-105.8,10.5C1162,402.2,1163.5,404.8,1165.2,403.8
				L1165.2,403.8z"/>
		</g>
	</g>
	<g>
		<g>
			<path class="st0" d="M125.1,1014.5c37.1-10.6,74.7-21.1,113.3-24.3c19.4-1.6,39-1.3,58.3,2c18.5,3.2,35.9,9.5,52.9,17.2
				c18.7,8.3,37,17.6,56.5,23.7c1.8,0.6,2.6-2.3,0.8-2.9c-36.2-11.4-68.3-33-105.8-40.2c-37.2-7.2-75.4-3-112.1,4.8
				c-21.8,4.7-43.3,10.7-64.7,16.8C122.5,1012.1,123.3,1015,125.1,1014.5L125.1,1014.5z"/>
		</g>
	</g>
	<g>
		<g>
			<path class="st0" d="M355.1,1007.2c28.9-3.5,57.6-6.1,86.6-2.7c28.6,3.4,56.5,11.6,82.5,24c1.7,0.8,3.3-1.8,1.5-2.6
				c-25.4-12.1-52.5-20.3-80.4-23.9c-30.2-4-60.1-1.4-90.2,2.2C353.2,1004.4,353.2,1007.4,355.1,1007.2L355.1,1007.2z"/>
		</g>
	</g>
	<g>
		<g>
			<path class="st0" d="M482.5,1027.6c14.4,4.2,28.7,8.6,43.1,12.5c12.4,3.3,25.3,5.4,37.8,1.1c1.8-0.6,1-3.5-0.8-2.9
				c-13.1,4.6-26.7,1.6-39.7-2.1c-13.2-3.7-26.4-7.7-39.6-11.5C481.5,1024.2,480.7,1027.1,482.5,1027.6L482.5,1027.6z"/>
		</g>
	</g>
	<g>
		<g>
			<path class="st0" d="M360.5,1034.2c31.3,1.5,60.7,21.4,92.5,14.2c1.9-0.4,1.1-3.3-0.8-2.9c-31.3,7.1-60.8-12.8-91.7-14.3
				C358.6,1031.1,358.6,1034.1,360.5,1034.2L360.5,1034.2z"/>
		</g>
	</g>
	<g>
		<g>
			<path class="st0" d="M80.3,1040.6c23.3-6.6,46.6-13.2,69.9-19.8c1.9-0.5,1.1-3.4-0.8-2.9c-23.3,6.6-46.6,13.2-69.9,19.8
				C77.6,1038.2,78.4,1041.1,80.3,1040.6L80.3,1040.6z"/>
		</g>
	</g>
	<g>
		<g>
			<path class="st0" d="M141.6,1034.9c21.3-5.7,42.9-10.5,64.6-14.3c1.9-0.3,1.1-3.2-0.8-2.9c-21.7,3.9-43.3,8.6-64.6,14.3
				C138.9,1032.6,139.7,1035.4,141.6,1034.9L141.6,1034.9z"/>
		</g>
	</g>
</g>
<g id="background">
	<g>
		<g>
			<path class="st2" d="M595.2,949.8c77.4,0,154.8,0,232.3,0c5.8,0,5.8-9,0-9c-77.4,0-154.8,0-232.3,0
				C589.4,940.8,589.4,949.8,595.2,949.8L595.2,949.8z"/>
		</g>
	</g>
	<g>
		<g>
			<path class="st2" d="M857.1,951.5c15.9,0,31.8,0,47.8,0c5.8,0,5.8-9,0-9c-15.9,0-31.8,0-47.8,0
				C851.3,942.5,851.3,951.5,857.1,951.5L857.1,951.5z"/>
		</g>
	</g>
	<g>
		<g>
			<path class="st2" d="M936.1,949.8c7.1,0,14.3,0,21.4,0c5.8,0,5.8-9,0-9c-7.1,0-14.3,0-21.4,0
				C930.3,940.8,930.3,949.8,936.1,949.8L936.1,949.8z"/>
		</g>
	</g>
	<g>
		<g>
			<path class="st2" d="M924.6,1023.9c72.2,0,144.5,0,216.7,0c20.5,0,41.1,0,61.6,0c5.8,0,5.8-9,0-9c-72.2,0-144.5,0-216.7,0
				c-20.5,0-41.1,0-61.6,0C918.8,1014.9,918.8,1023.9,924.6,1023.9L924.6,1023.9z"/>
		</g>
	</g>
	<g>
		<g>
			<path class="st2" d="M1226,1022.3c15.4,0,30.7,0,46.1,0c5.8,0,5.8-9,0-9c-15.4,0-30.7,0-46.1,0
				C1220.2,1013.3,1220.2,1022.3,1226,1022.3L1226,1022.3z"/>
		</g>
	</g>
	<g>
		<g>
			<path class="st2" d="M1295.2,1023.9c6,0,12.1,0,18.1,0c5.8,0,5.8-9,0-9c-6,0-12.1,0-18.1,0
				C1289.4,1014.9,1289.4,1023.9,1295.2,1023.9L1295.2,1023.9z"/>
		</g>
	</g>
	<g>
		<g>
			<path class="st2" d="M274.1,174.7c5,2.7,9.6,6,13.8,9.9c1.4,1.3,3.5-0.8,2.1-2.1c-4.3-4.1-9.1-7.5-14.4-10.3
				C273.9,171.2,272.4,173.8,274.1,174.7L274.1,174.7z"/>
		</g>
	</g>
	<g>
		<g>
			<path class="st2" d="M294.3,167.6c-1.9-4.3-3.8-8.5-5.7-12.8c-0.8-1.8-3.4-0.2-2.6,1.5c1.9,4.3,3.8,8.5,5.7,12.8
				C292.5,170.9,295.1,169.4,294.3,167.6L294.3,167.6z"/>
		</g>
	</g>
	<g>
		<g>
			<path class="st2" d="M307.2,160.7c-1.8-5.3-2.4-10.6-1.6-16.2c0.2-1.9-2.8-1.9-3,0c-0.7,5.8-0.2,11.5,1.8,17
				C304.9,163.3,307.8,162.5,307.2,160.7L307.2,160.7z"/>
		</g>
	</g>
	<g>
		<g>
			<path class="st2" d="M649.7,218.2c3.7,1.7,7.8,1.8,11.5-0.3c5.1-2.9,5.3-7.8,6.5-13c0.4-1.9,1-4.2,2.5-5.5
				c3.1-2.7,4.2-0.8,6.7-0.1c1.6,0.4,3.1,0.5,4.6-0.2c2.9-1.3,10.1-15,13.4-10.5c1.2,1.5,3.8,0,2.6-1.5c-2.4-3.1-5.8-2.8-8.9-0.7
				c-2.1,1.4-3.1,3.4-4.4,5.4c-0.7,1.2-1.6,2.8-2.7,3.7c-3.1,2.3-4.3,0.3-7-0.2c-4.2-0.8-7.4,2-8.9,5.8c-1.3,3.1-1,6.6-2.2,9.8
				c-2,4.9-7.4,7.1-12.2,4.8C649.4,214.8,647.9,217.4,649.7,218.2L649.7,218.2z"/>
		</g>
	</g>
	<g>
		<g>
			<path class="st2" d="M664.7,227.8c3.3,2.4,7.1,0.8,9.6-2c4.4-5.2,1.3-14,8.2-17.3c5.1-2.5,11-1.4,15.9-4.9
				c4.3-3.1,6.6-7.9,7-13.1c0.1-1.9-2.9-1.9-3,0c-0.4,6.1-4.4,11.1-10.3,12.8c-3.8,1.1-8,0.9-11.5,2.7c-2.9,1.5-4.6,4.1-5.4,7.2
				c-0.6,2.1-0.7,4.4-1.2,6.5c-0.8,3-3.8,8.4-7.7,5.5C664.7,224.1,663.2,226.7,664.7,227.8L664.7,227.8z"/>
		</g>
	</g>
</g>
<g id="leg_r">
	<path class="st3" d="M676.4,836.9c9.6,8.2,19.4,16.4,29.4,24.6c9.6,7.9,19.2,15.7,28.7,23.2c4.3,13.2,2.4,21.1-0.3,25.8
		c-4.7,8.3-12.3,8.4-24.8,20.4c-6.4,6.1-13.8,13.3-12.4,17.5c1.7,5.1,16.7,7.5,70-1.5c11-22.8,22-45.6,33-68.4
		c-24.1-25-48.3-50.1-72.4-75.1C710.5,814.6,693.5,825.8,676.4,836.9z"/>
	<path class="st4" d="M568.2,600.4c-10.9,26.3,0.4,55.5,18.2,101.2c7.4,19,15.1,33.3,19.1,40.6c7.9,14.5,12.5,20.8,44.8,66.3
		c25.7,36.2,28.2,39.9,35.7,42.3c25.8,8.3,67.6-12.9,68-40.6c0.3-19.4-19.9-33.4-23.2-35.7c-12.3-17.3-20-33.1-24.9-44.8
		c-8.5-20.5-17.6-42.3-15.8-69.7c1.6-23.6,9.5-25,9.1-45.6c-0.1-3.2-1.3-41.7-24.9-57.2C643.5,537.1,584,562.4,568.2,600.4z"/>
	<path class="st5" d="M697.9,604.9c1.6,4.4,0.3,12.7-2.3,29.2c-2.9,18.4-5,19.5-6,29.2c-1.7,16.2,2.4,28.3,10.2,51.4
		c2.1,6.1,6.5,15.8,15.3,35.2c6.1,13.4,9.1,19.4,15.8,25c5.4,4.5,7.6,4.3,12,8.8c6.3,6.5,10.5,16.2,10.7,25
		c0.4,19.9-19.1,35.9-36.1,41.2c-15,4.7-28.3,1.1-34.3-0.9c-11.8-14-28.1-34.2-45.9-59.8c-23.1-33.2-36-51.6-45.9-77.4
		c-12-31.2-31.1-80.9-6.5-109.4C614,568.9,689.5,582.3,697.9,604.9z"/>
	<path class="st6" d="M632.1,648c12.3,9.7,10.4,26.4,13,51c3,28.3,10.6,54.7,18.1,71.4c21.5,48,63.6,64.6,57.5,76.5
		c-3.4,6.6-19.8,8.2-31.5,4.6c-4.3-1.3-7.6-3.2-9.7-4.6c-18.5-24-32.8-44.5-42.6-58.9c-50.4-73.8-55.7-97.9-51.4-117.7
		c1.2-5.5,4.3-20,16.2-25.9C611.2,639.5,624,641.6,632.1,648z"/>
	<path class="st5" d="M664.4,646.9c-7,15-14.7,25.2-20.2,31.7c-13.7,16-24.2,20.4-31.7,35.6c-5.2,10.7-6.1,20.9-6.2,27.3
		c-3.1-4.9-6.2-10.2-9.2-15.8c-6.7-12.7-11.7-24.7-15.4-35.6C609.3,675.7,636.8,661.3,664.4,646.9z"/>
</g>
<g id="leg_l">
	<path class="st3" d="M482.8,828.4c9.6,8.2,19.4,16.4,29.4,24.6c9.6,7.9,19.2,15.7,28.7,23.2c-3.2,3.6-8.2,9.1-14.3,15.7
		c-11.3,12.1-14.3,14.6-17.8,20.5c-1.7,2.9-11.1,19-6.1,25.3c6.6,8.3,36.9-3.2,56.7-15.7c12.1-7.7,31.5-22.9,47.1-51.9
		c-24.1-25-48.3-50.1-72.4-75.1C516.9,806.1,499.8,817.3,482.8,828.4z"/>
	<path class="st4" d="M572.4,590.1c-16,9.9-28.9,19.7-73,60c-71.5,65.2-78.3,76.5-80.4,92c-3.5,25.7,7.1,53.8,26.5,71.6
		c4.8,4.4,24.3,22.2,51.2,19.8c22.5-2,52.5-18.3,51.2-40.8c-0.8-14.7-14.8-28.4-33.6-34.9c38.6-35.2,73.9-57.2,100-71.1
		c32.7-17.4,53.5-23.5,62.9-45.4c11.6-27.1,1.3-67.6-22.7-79.1C633.5,552.2,608.9,567.5,572.4,590.1z"/>
	<path class="st7" d="M621.9,579c0,18.5-3,43.3-17.4,66.5c-33,52.8-93.6,49.6-109,97.2c-1.8,5.7-8.3,32,4.7,46.6
		c7.2,8,18.4,10.3,21.5,21.1c1.8,6.2,0,12.2-1.8,16.4c13.9-3.1,24.6-13.8,26.9-26.9c3.6-20.7-16.3-34.1-17.8-35.1
		c-6.3-4.1-12.5-5.4-16.4-5.9c43.5-41.1,82.6-64.4,111.6-78.3c20-9.6,44.2-19.2,53.7-42.8c8-20,2-41.3-4.1-55.5
		C656.5,581.1,639.2,580.1,621.9,579z"/>
	<path class="st8" d="M641.5,605c1.7,9.3,2.9,23.3-2.7,37.8c-9.4,24.3-31.8,33.8-56,50.1c-17.5,11.7-41.5,30.8-66.5,61.5
		c7.4-6,17.7-14.1,30.3-23.3c23.6-17.2,36.7-26.7,55.8-36.9c28.4-15,42.6-22.5,43.4-22.9c3.2-1.4,10-4.3,16.9-10.7
		c2-1.9,7.8-7.5,12.4-17.3c1.7-3.7,15.7-32.8,3.6-43.3C671.3,593.4,655.6,595.5,641.5,605z"/>
</g>
<g id="hand_r">
	<path class="st4" d="M592.4,329.5c11.9-2.4,30-4.7,51.8-2.5c18.9,1.9,53.6,5.3,80.7,31.4c7.2,7,20,19.6,24.6,39.9
		c5.7,25.2-4.4,46.8-8.5,54.4c-16.6,30.8-42.6,30.7-54.4,59.5c-1.1,2.7-4.3,10.9-11.9,18.7c-8.3,8.4-19.9,14.2-22.1,11.9
		c-1-1.1-0.5-4.2,5.9-13.6c-1.6,1-8.2,5.2-16.1,3.4c-10.9-2.4-18.2-14.6-16.1-22.9c0.5-2.1,1.9-5.3,18.7-15.3
		c7.7-4.6,11.6-6.9,18.7-10.2c18.3-8.5,51.5-37.5,46.7-64.6c-2.8-15.6-17.6-27.3-29.7-32.3c-24.1-9.8-39.8,6.2-58.6-1.7
		C611.1,380.9,598.3,367.8,592.4,329.5z"/>
	<path class="st9" d="M602.2,345.8c9.5,0,23.7,0.8,40.4,4.4c22.8,5,43,11.4,61.8,28.4c15.8,14.3,18.7,34.6,19.6,40.9
		c0.8,5.8,3.7,25.7-7.1,44c-6.9,11.6-13.8,13.4-35.1,31.1c-10.8,9-14.8,18.3-28,25.8c-13.2,7.5-18.4,5.3-20,4.4
		c-7.2-3.8-7.5-14.9-7.6-16.4c2.4-2.3,6.2-5.7,11.1-9.3c16.2-12,23.5-11.4,37.3-20c5.4-3.4,21.7-13.9,30.7-33.3
		c2.6-5.6,6.1-13.6,4.9-24c-1.3-11-7.2-18.3-9.3-20.9c-12.6-15.2-32.1-17.4-36-17.8c-20.7-1.9-29.5,8.9-43.6,1.8
		c-6.2-3.1-9.8-7.9-11.6-10.2C601,362.9,601.8,349.6,602.2,345.8z"/>
	<path class="st10" d="M614.7,378.7c0.5-5.8,23.4-8.8,39.1-8.9c15.7-0.1,33.4-0.2,47.6,12.4c8.2,7.2,11.4,15.3,12,16.9
		c9,23.2-7,45.9-8.9,48.4c2.1-3.2,8.9-14.4,6.2-28.4c-2.7-14.5-13.7-22.4-19.1-26.2c-3.2-2.3-13.9-9.7-28.9-10.2
		c-17.1-0.5-24.6,8.5-38.2,3.6C623.9,386,614.4,382.5,614.7,378.7z"/>
</g>
<g id="hand_l">
	<path class="st4" d="M328.6,260c-3.5-5.8-7.7-14.2-10.8-24.9c-9.2-32.4-0.8-65,3-64.9c1.5,0,3.4,5.1,5.3,26.4
		c2.1-7.3,3.2-13.3,3.9-17.6c0.7-4.5,1.1-8.2,3.7-12c2-3,4.6-4.9,6.5-6c1.7-1.5,3.4-3.1,5.1-4.6c1.8,1.5,3.3,3,4.6,4.6
		c13.6,16.6,6.3,42,4.3,48.3c2.3-1.5,5.2-3.8,7.8-7.2c4.7-6,4.9-10.9,6-10.8c2.1,0.2,4.7,17.7-1.5,35.2c-1.9,5.4-4.2,9.6-6,12.5
		c-0.4,10-0.6,44.8,24.2,76.8c2.3,2.9,37.4,47,84.5,44.8c30.7-1.4,41.2-20.7,61.6-12.8c15.8,6.1,27.3,24.5,27.7,43.6
		c0.5,19.9-11.1,38.4-29.4,47c-13.1,1.1-32.3,1.5-54.9-2.1c-25.7-4.1-79.2-12.7-109.7-54.2c-13.4-18.3-19.6-39.2-22.1-50
		c-0.4-1.8-0.7-3.1-1.2-5.5C338.1,312.1,333.9,290.6,328.6,260z"/>
	<g>
		<g>
			<path class="st2" d="M339.4,168.7c1.9,0,1.9-3,0-3C337.5,165.7,337.5,168.7,339.4,168.7L339.4,168.7z"/>
		</g>
	</g>
	<g>
		<g>
			<path class="st2" d="M339.7,161.4c-2.9,11.4-4.5,22.9-4.6,34.6c0,1.4,2.2,1.4,2.3,0c0.1-11.5,1.6-22.9,4.5-34
				C342.2,160.6,340,160,339.7,161.4L339.7,161.4z"/>
		</g>
	</g>
	<g>
		<g>
			<path class="st2" d="M348.5,161.4c-2.2,10.9-3.5,21.9-3.6,33c0,1.4,2.2,1.4,2.3,0c0.2-10.9,1.3-21.7,3.5-32.4
				C350.9,160.5,348.8,159.9,348.5,161.4L348.5,161.4z"/>
		</g>
	</g>
	<path class="st10" d="M318,179.6c2,0.1,0.9,20.1,5.3,45.6c5.2,30.3,16.2,51.7,22.5,67.5c11.2,28.2,33,82.9,82.8,107.2
		c50.8,24.9,105.5,5.5,122.5-1.3c0.5,3.1,1.2,11.2-2.9,20c-3.8,8.2-9.7,12.8-12.4,14.5c-4.7,1.9-11.7,4.3-20.5,5.6
		c-13.7,2-24.5,0.1-33.8-1.7c-31.5-6.2-47.3-9.2-62-15.8c-15.3-6.8-34.9-15.6-51.3-35.1c-16-18.9-20.9-38.3-29.5-72.7
		c-5.4-21.5-8-39.7-9.4-52.6c-5.7-9.5-13-24.6-15-44.1C312.3,197.7,316.1,179.6,318,179.6z"/>
	<path class="st11" d="M333.1,167.6c1.2-1.1,2.4-2.2,3.7-3.3c-6.1,23.6-9.4,35.4-9.9,35.3C326.4,199.4,328.4,188.8,333.1,167.6z"/>
	<path class="st12" d="M424.9,423.7c12.6,3.4,30.5,6.7,52,5.5c34.6-1.9,60.6-14.4,74.4-22.4c-0.4,3.2-1.8,11.8-8.7,19.7
		c-7.9,9.1-17.8,11.3-20.9,11.8c-9.6,0.3-20,0.1-31.1-0.8C464.7,435.3,442.5,429.7,424.9,423.7z"/>
</g>
<g id="cloth_back">
	<path class="st13" d="M577,466.4c30.1-16.6,78.3-40.7,140.5-60.7c96.5-31,151.4-27.9,245.9-47.9c52.3-11,128.4-31.6,218.7-73.4
		c0.2,10.8,0.7,21.9,1.6,33.5c1.9,25.5,5.4,49,9.6,70.3c-9,15.4-18.1,30.9-27.1,46.3c2.7,26.6,5.3,53.2,8,79.8
		c-54.1,1.2-109.5,3.2-166.1,6.4c-139.4,7.8-271.6,21.1-396,38.3C600.4,528.2,588.7,497.3,577,466.4z"/>
	<g class="st14">
		<g>
			<path class="st15" d="M692.5,426.4c77-22.3,156.7-34.3,236.8-35.8c1.9,0,1.9-3,0-3c-80.4,1.5-160.4,13.6-237.6,35.9
				C689.8,424,690.6,426.9,692.5,426.4L692.5,426.4z"/>
		</g>
	</g>
	<g class="st14">
		<g>
			<path class="st15" d="M902.5,407.4c70.5-17.8,146.9-1,214.7-30.9c1.8-0.8,0.2-3.4-1.5-2.6c-67.5,29.8-143.9,12.9-214,30.6
				C899.8,405,900.6,407.9,902.5,407.4L902.5,407.4z"/>
		</g>
	</g>
	<g class="st14">
		<g>
			<path class="st15" d="M1044.9,427c34.4-7.6,69.9-9.1,104.9-4.2c1.9,0.3,2.7-2.6,0.8-2.9c-35.5-5-71.5-3.6-106.5,4.2
				C1042.2,424.5,1043,427.4,1044.9,427L1044.9,427z"/>
		</g>
	</g>
</g>
<g id="torso">
	<path class="st4" d="M524.6,346.2c4.9,3.1,13.1,9.1,19.4,19.4c8.9,14.5,15.8,40.5,1.7,58.4c-7.6,9.6-18.5,13.5-26,15
		c5.2,16.6,10.1,34.8,14,54.4c9.3,46,11.3,87.5,10.2,122c21.2,3.7,50.1,6.5,84.2,3.2c30.6-3,56-10,75-16.7
		c-4.8-84.7-24.7-147.6-40.9-187.5c-4.6-11.3-39.3-95.4-69.7-91.4c-8.8,1.1-13.5,9.1-34.1,16.4C544.7,344.2,532.6,345.7,524.6,346.2
		z"/>
	<path class="st16" d="M569.6,336.7c9.8,11.1,23.5,28.4,35.7,51.9c31.6,60.6,30.3,117.6,28.8,139.2c-2.6,37.2-12.8,68.3-23.5,91.5
		c14.4-1.3,30.1-3.4,46.9-6.6c16.3-3.1,31.3-6.8,44.8-10.7c-0.9-15.3-2.9-39-7.5-67.6c-10.9-67.8-28.9-114.1-46.1-147.9
		c-28.5-55.7-48.9-65.2-55.7-62.8c-1.1,0.4-6.1,2.6-11.7,5.7C576.3,332.1,572.4,334.7,569.6,336.7z"/>
	<path class="st17" d="M637,368.3c4.1,32.3,8.6,58.7,12,76.9c12,64.5,21.7,90.1,12.2,125.7c-5.2,19.6-14.2,34.4-20.9,43.8
		c8-0.5,17.1-1.5,26.9-3.5c13.9-2.8,25.8-6.9,35.4-11c-2-62.3-14.7-135.7-52.5-208.5C645.9,383.6,641.5,375.8,637,368.3z"/>
</g>
<g id="cloth_front">
	<path class="st18" d="M526.7,469.4c-1.6,15.7-2.3,33.7-1.3,53.5c1.6,30.6,6.9,56.8,12.7,77.7c11.3-0.5,28.1-0.9,48.4,0
		c43.6,1.9,65.3,8,85.4,10.2c60.6,6.8,79-24.3,146.6-34.4c29.6-4.4,74.7-5.7,133.8,14c42.1,22.9,84.1,45.9,126.2,68.8
		c3.9-8.1,14.2-26.5,35.7-39.5c30.4-18.5,61.4-13,68.8-11.5c-6-15.6-15.5-46.9-7.6-84.1c2.8-13.1,7.1-24.2,11.5-33.1
		c-24.6-10.3-59.3-23.3-102-34.4c-74.1-19.4-131.7-22.6-189.9-25.5c-110.9-5.6-194.1,4.7-216.7,7.6
		C616.9,446.9,565.4,458.8,526.7,469.4z"/>
	<path class="st19" d="M820.7,514c0,0.3,83.7,11.8,167.3,24.5c32.9,5,66.7,10.4,105.8,30.5c25.3,13,44.1,27.7,56.6,38.7
		c4.4-1.3,10.8-2.7,18.6-2.2c4.8,0.3,8.9,1.1,12.2,2.1c-3.2-9.1-6.4-20.4-8.4-33.7c-1.9-12.5-2.2-23.6-1.9-32.8
		C891.4,519,820.7,513.7,820.7,514z"/>
	<path class="st20" d="M525.8,509.8c6.7,10.7,14,16.5,19.2,19.7c17.5,10.9,33.4,6.8,76.6,12.2c8.5,1.1,15.4,2.2,19.7,2.9
		c-37.3,3.7-74.7,7.4-112,11c-0.9-6.6-1.7-13.6-2.3-20.9C526.3,526,525.9,517.6,525.8,509.8z"/>
	<g class="st14">
		<g>
			<path class="st15" d="M657.3,546c29.7,2.3,59.6-0.2,88.5-7.5c1.9-0.5,1.1-3.4-0.8-2.9c-28.7,7.2-58.2,9.7-87.7,7.4
				C655.4,542.8,655.4,545.8,657.3,546L657.3,546z"/>
		</g>
	</g>
	<g class="st14">
		<g>
			<path class="st15" d="M773.8,539.1c33.3-2.3,66.7-0.8,99.7,4.5c1.9,0.3,2.7-2.6,0.8-2.9c-33.2-5.4-66.9-6.9-100.5-4.6
				C771.8,536.3,771.8,539.3,773.8,539.1L773.8,539.1z"/>
		</g>
	</g>
	<g class="st14">
		<g>
			<path class="st15" d="M740.1,497.3c64-11.1,129.8-9.1,193,5.9c1.9,0.4,2.7-2.4,0.8-2.9c-63.7-15.1-130.1-17-194.6-5.9
				C737.4,494.7,738.2,497.6,740.1,497.3L740.1,497.3z"/>
		</g>
	</g>
	<g class="st14">
		<g>
			<path class="st15" d="M1006.2,636.5c22.8,10,43.3,24.5,60.2,42.7c1.3,1.4,3.4-0.7,2.1-2.1c-17.1-18.4-37.8-33.1-60.8-43.2
				C1005.9,633.1,1004.4,635.7,1006.2,636.5L1006.2,636.5z"/>
		</g>
	</g>
</g>
<g id="head">
	<path class="st21" d="M568.9,250.6c7.4,24.4,10.1,38.5,20.6,60.8c4.9,10.4,9.6,18.7,12.9,24.1c-10.7,5-28.1,11.4-50.4,12.2
		c-13.2,0.5-24.5-1.2-33.2-3.1c0.9-6.7,1.4-15,0.7-24.5c-0.9-11.9-3.4-21.9-5.9-29.3c-11.9-1.5-23.8-3-35.7-4.5
		c-2.3-5.1-4.7-10.2-7-15.4c-3.3-0.1-6.5-0.2-9.8-0.3c2.5-7,6.2-18.1,10.5-31.8c8-25.8,7.9-29.5,12.2-35.3
		c11.9-15.9,38.8-26,56.3-17.5C550.7,191.1,556.9,211,568.9,250.6z"/>
	<g>
		<g>
			<path class="st2" d="M461.5,272.2c6.1,0.1,12.2-0.3,18.2-1.2c1.9-0.3,1.1-3.2-0.8-2.9c-5.8,0.9-11.6,1.2-17.4,1.1
				C459.6,269.2,459.6,272.2,461.5,272.2L461.5,272.2z"/>
		</g>
	</g>
	<g>
		<g>
			<path class="st2" d="M459,225.9c3.6-1.9,8.3-1,10.8,2.4c1.1,1.5,3.7,0,2.6-1.5c-3.4-4.7-9.7-6.2-14.9-3.5
				C455.8,224.2,457.3,226.8,459,225.9L459,225.9z"/>
		</g>
	</g>
	<g>
		<g>
			<path class="st2" d="M463.1,240.5c-0.3-1.1-0.3-2.2,0-3.3c0.2-0.5,0.4-1.1,0.7-1.5c0.2-0.3,0.4-0.5,0.6-0.7
				c-0.2,0-0.3,0.1-0.3,0.4c0,2.1-0.9,3.9-2.5,5.3c0.9,0.4,1.7,0.7,2.6,1.1c0-1.9,0.4-3.7,1.3-5.4c0.9-1.7-1.7-3.2-2.6-1.5
				c-1.1,2.2-1.7,4.5-1.7,7c0,1.4,1.6,1.9,2.6,1.1c1.6-1.4,2.8-3.3,3.2-5.4c0.3-1.8,0.5-4.5-1.5-5.3c-1.9-0.7-3.7,1-4.5,2.5
				c-1.1,2.1-1.3,4.4-0.7,6.7C460.6,243.2,463.5,242.4,463.1,240.5L463.1,240.5z"/>
		</g>
	</g>
	<g>
		<g>
			<path class="st2" d="M488.1,230.2c4.6-1.4,9.5,0.1,12.3,4.1c1.1,1.6,3.7,0.1,2.6-1.5c-3.5-5-9.8-7.3-15.7-5.5
				C485.5,227.8,486.3,230.7,488.1,230.2L488.1,230.2z"/>
		</g>
	</g>
	<g>
		<g>
			<path class="st2" d="M488.7,244c-0.1-1.4,0.1-2.8,0.9-4c0.2-0.3,0.4-0.6,0.7-0.9c-0.1-0.4-0.1-0.4-0.1,0c-0.1,0.6-0.1,1.3-0.2,2
				c-0.1,0.6-0.3,1.3-0.6,1.9c-0.1,0.3-0.2,0.5-0.4,0.7c0.3,0.7,0.5,0.7,0.7,0c0.5-0.5,0.8-1.6,1.1-2.2c0.4-0.7,0.7-1.4,1.1-2.2
				c0.8-1.5-1.1-3-2.4-1.8c-0.8,0.8-1.3,1.6-1.6,2.7c-0.5,1.9,2.3,2.6,2.9,0.8c0.2-0.6,0.4-0.9,0.9-1.4c-0.8-0.6-1.6-1.2-2.4-1.8
				c-0.9,1.7-1.9,3.4-2.6,5.2c-0.5,1.2-0.4,2.6,0.8,3.3c3,2,5-2.2,5.5-4.5c0.5-2.2,0.6-7-3.1-6c-3,0.9-4.2,5.4-4,8.1
				C485.8,245.9,488.8,245.9,488.7,244L488.7,244z"/>
		</g>
	</g>
	<path class="st22" d="M479.6,209.9c0.8-5.3,2.9-13.9,8.8-22.8c2.1-3.1,6.4-9.8,13.5-14.3c13.4-8.6,34-7.9,49,2.6
		c14.6,10.3,21.9,28.8,18.8,47.1C539.6,218.3,509.6,214.1,479.6,209.9z"/>
	<g>
		<g>
			<path class="st2" d="M430.5,209.3c46.2,5.7,92.4,11.4,138.6,17.1c5.7,0.7,5.7-8.3,0-9c-46.2-5.7-92.4-11.4-138.6-17.1
				C424.7,199.6,424.8,208.6,430.5,209.3L430.5,209.3z"/>
		</g>
	</g>
	<path class="st23" d="M539.6,221.3c-8.2,2.9-12.9,8.4-18.4,15c-11.6,13.8-8.2,18.9-16.3,27.5c-13,13.7-26.2,5.6-37.8,19
		c-9.8,11.4-8.6,26.8-8.2,30.2c0.4,3.4,2.1,17.1,13.6,26.5c9.9,8.1,23.3,10,24.2,8.2c0.3-0.7-0.8-2.3-8.2-7.1
		c2.2,1.5,5.5,3.3,9.9,4.1c5,0.9,9.8,0,9.9-0.7c0-0.5-2.7-0.5-4.8-2.7c-1.2-1.3-1.8-2.8-2-4.1c4,2.6,9.1,4.8,14,3.4
		c13.2-3.9,15.6-32.6,16.3-42.1c2.5-30.8-6.5-47.6,4.4-58.4c0.9-0.9,5.4-5.3,10.2-4.4c6.2,1.1,10.9,10.5,8.8,16.7
		c-1.7,5.3-7.9,6.8-7.5,7.8c0.6,1.3,11-0.7,19.7-7.5c3.2-2.5,5.8-4.5,7.1-8.2c2.4-6.4-0.4-13.7-4.1-18
		C562.9,217.5,548.5,218.1,539.6,221.3z"/>
	<path class="st24" d="M551.9,261c-2,0.2-4.8,0.3-4.9-0.4c-0.1-0.3,0.6-0.8,0.6-0.8c0,0-2.4,2.9-5.3,3.3c-1.4,0.2-2.6-0.3-3.4-0.7
		c5.2,10.8,10.5,23.8,15,38.7c5,16.4,7.8,31.4,9.4,44.2c5.4,0,12.9-0.6,21.4-3.2c7-2.2,12.6-5.1,16.7-7.6
		c-11.2-17.1-16.8-30.8-19.9-40.1c-1.5-4.4-4.6-14.7-6.2-19.7c-2.9-9.2-5.1-16.8-6.7-22c-0.8,0.7-2.1,1.8-3.7,2.9
		C562.6,257.2,558,260.3,551.9,261z"/>
	<path class="st25" d="M518.7,167.4c12,2.3,21,11.7,22.4,22.8c1.6,13.2-8.3,22.2-9.2,23c12.8,1.5,25.5,3.1,38.3,4.6
		c0.2-2.9,0.3-6.9-0.5-11.5c-2.4-14.8-11.3-23.9-13.2-25.8c-2.9-3-13.5-12.7-29.1-13.6C523.8,166.8,520.8,167.1,518.7,167.4z"/>
</g>
</svg>
