<?xml version="1.0" encoding="UTF-8"?>
<svg width="23px" height="24px" viewBox="0 0 23 24" version="1.1" xmlns="http://www.w3.org/2000/svg" xmlns:xlink="http://www.w3.org/1999/xlink">
    <title>971CA7A6-EB1D-498F-8A38-3E9640B064E7</title>
    <g id="Desktop" stroke="none" stroke-width="1" fill="none" fill-rule="evenodd">
        <g id="Search" transform="translate(-582.000000, -3738.000000)" fill="#3BBFA4" fill-rule="nonzero">
            <g id="Group-2" transform="translate(0.000000, 151.000000)">
                <path d="M595,3610 C595.276142,3610 595.5,3610.22386 595.5,3610.5 C595.5,3610.74546 595.323125,3610.94961 595.089876,3610.99194 L595,3611 L592,3611 C591.723858,3611 591.5,3610.77614 591.5,3610.5 C591.5,3610.25454 591.676875,3610.05039 591.910124,3610.00806 L592,3610 L595,3610 Z M596,3608 C596.276142,3608 596.5,3608.22386 596.5,3608.5 C596.5,3608.74546 596.323125,3608.94961 596.089876,3608.99194 L596,3609 L591,3609 C590.723858,3609 590.5,3608.77614 590.5,3608.5 C590.5,3608.25454 590.676875,3608.05039 590.910124,3608.00806 L591,3608 L596,3608 Z M593.533333,3593 C597.133333,3593 600,3596.00488 600,3599.69268 C600,3602.08293 598.8,3604.26829 596.733333,3605.42927 C596.253333,3605.73659 595.881333,3606.20985 595.714533,3606.79929 L595.666667,3607 L594.066667,3607 L594.066667,3601.67317 L595.733333,3599.96585 C596.245333,3599.44137 595.528533,3598.66512 594.998511,3599.08723 L594.933333,3599.14634 L593.533333,3600.58049 L592.066667,3599.14634 C591.554667,3598.62185 590.796907,3599.35614 591.208964,3599.89909 L591.266667,3599.96585 L592.933333,3601.67317 L592.933333,3607 L591.2,3607 C591.066667,3606.31707 590.733333,3605.70244 590.133333,3605.36098 C588.2,3604.13171 587,3602.01463 587,3599.69268 C587,3596.00488 589.933333,3593 593.533333,3593 Z M604.435897,3598 C605.188034,3598 605.188034,3599 604.435897,3599 L601.564103,3599 C600.811966,3599 600.811966,3598 601.564103,3598 L604.435897,3598 Z M585.445378,3598 C586.184874,3598 586.184874,3599 585.445378,3599 L582.554622,3599 C581.815126,3599 581.815126,3598 582.554622,3598 L585.445378,3598 Z M601.864049,3590.92889 L599.93921,3592.83259 C599.425919,3593.34024 598.655984,3592.57876 599.169274,3592.07111 L601.094113,3590.16741 C601.543242,3589.65976 602.313178,3590.42124 601.864049,3590.92889 Z M585.928892,3590.16741 L587.832585,3592.07111 C588.340237,3592.57876 587.57876,3593.34024 587.071108,3592.83259 L585.167415,3590.92889 C584.659763,3590.42124 585.42124,3589.65976 585.928892,3590.16741 Z M594,3587.55462 L594,3590.44538 C594,3591.18487 593,3591.18487 593,3590.44538 L593,3587.55462 C593,3586.81513 594,3586.81513 594,3587.55462 Z" id="Tip"></path>
            </g>
        </g>
    </g>
</svg>