<?xml version="1.0" encoding="UTF-8"?>
<svg width="19px" height="16px" viewBox="0 0 19 16" version="1.1" xmlns="http://www.w3.org/2000/svg" xmlns:xlink="http://www.w3.org/1999/xlink">
    <title>171E64E9-1D1D-455B-ACE7-0C6AD20CF85C</title>
    <g id="Desktop" stroke="none" stroke-width="1" fill="none" fill-rule="evenodd">
        <g id="Article" transform="translate(-679.000000, -3953.000000)" fill="#003365">
            <g id="Share" transform="translate(559.000000, 3949.000000)">
                <path d="M139,5.89398041 C138.30099,6.21528769 137.549635,6.43244574 136.76123,6.52999951 C137.56588,6.03012256 138.184045,5.23856869 138.475125,4.29531919 C137.72187,4.75828124 136.887675,5.09435448 135.99971,5.27548359 C135.28873,4.49042674 134.27565,4 133.15446,4 C131.00176,4 129.256325,5.80843628 129.256325,8.03908057 C129.256325,8.35566275 129.29081,8.66397598 129.35731,8.95959049 C126.11762,8.79116011 123.245295,7.18304868 121.32278,4.73928237 C120.98724,5.33582714 120.79496,6.0297288 120.79496,6.76999557 C120.79496,8.17138357 121.48314,9.40768814 122.52909,10.1320077 C121.89012,10.11104 121.289055,9.92932027 120.763515,9.62681498 C120.763135,9.64364818 120.763135,9.66048137 120.763135,9.67760988 C120.763135,11.6345917 122.106815,13.2671162 123.89006,13.638234 C123.562975,13.7305705 123.2186,13.7799872 122.86311,13.7799872 C122.61193,13.7799872 122.367685,13.7545898 122.12971,13.7074371 C122.625705,15.3121032 124.06524,16.4799921 125.77106,16.5124772 C124.436975,17.5959049 122.756235,18.2416695 120.92986,18.2416695 C120.61522,18.2416695 120.30495,18.2224738 120,18.1851651 C121.725105,19.3312005 123.774065,20 125.975405,20 C133.14534,20 137.066275,13.8451543 137.066275,8.50745681 C137.066275,8.33233253 137.06238,8.15819265 137.054875,7.98493872 C137.816585,7.41536644 138.477405,6.70404095 139,5.89398041" id="Twitter-Copy"></path>
            </g>
        </g>
    </g>
</svg>
