<?xml version="1.0" encoding="UTF-8"?>
<svg width="19px" height="17px" viewBox="0 0 19 17" version="1.1" xmlns="http://www.w3.org/2000/svg" xmlns:xlink="http://www.w3.org/1999/xlink">
    <title>87F2FC84-61EC-420D-8BC8-C599D6782208</title>
    <g id="Desktop" stroke="none" stroke-width="1" fill="none" fill-rule="evenodd">
        <g id="Search" transform="translate(-584.000000, -1407.000000)" fill="#F77E06" fill-rule="nonzero">
            <g id="Group-2" transform="translate(0.000000, 151.000000)">
                <path d="M602.837199,1271.18046 L594.532964,1256.60299 C594.073936,1255.799 592.926366,1255.799 592.467338,1256.60299 L584.163102,1271.18046 C583.704074,1271.98444 584.267427,1273 585.185483,1273 L601.793953,1273 C602.732874,1273 603.296227,1271.98444 602.837199,1271.18046 Z M593.239339,1261.06721 C593.740097,1260.94026 594.240855,1261.19415 594.470369,1261.65961 C594.553829,1261.82887 594.574694,1262.01929 594.553829,1262.18855 C594.512099,1262.71749 594.491234,1263.24642 594.470369,1263.79652 C594.428639,1264.62166 594.366045,1265.46795 594.324315,1266.29309 C594.30345,1266.54698 594.30345,1266.80087 594.282585,1267.07592 C594.26172,1267.52022 593.927881,1267.85874 593.489718,1267.85874 C593.07242,1267.85874 592.717717,1267.52022 592.696852,1267.09708 C592.634257,1265.80647 592.550797,1264.51587 592.488202,1263.22526 C592.467338,1262.88675 592.446473,1262.52707 592.425608,1262.18855 C592.425608,1261.68077 592.759446,1261.19415 593.239339,1261.06721 Z M593.510583,1270.75731 C592.926366,1270.75731 592.467338,1270.27069 592.467338,1269.67828 C592.467338,1269.08587 592.947231,1268.59925 593.531448,1268.59925 C594.115666,1268.59925 594.574694,1269.08587 594.574694,1269.69944 C594.553829,1270.27069 594.073936,1270.75731 593.510583,1270.75731 Z" id="Warning"></path>
            </g>
        </g>
    </g>
</svg>