<svg xmlns="http://www.w3.org/2000/svg" viewBox="0 0 48 39.3"><defs><style>.cls-1{fill:#405e7e;}</style></defs><g id="Layer_2" data-name="Layer 2"><g id="Layer_1-2" data-name="Layer 1"><path class="cls-1" d="M45.73,5.89h0A3.35,3.35,0,0,0,47,3.25a3,3,0,1,0-5.95,0,3.32,3.32,0,0,0,1.25,2.64h0A3.2,3.2,0,0,0,40,9a3.21,3.21,0,0,0-2.27-3.1h0A3.35,3.35,0,0,0,39,3.25a3,3,0,1,0-5.95,0,3.32,3.32,0,0,0,1.25,2.64h0A3.2,3.2,0,0,0,32,9a3.2,3.2,0,0,0-2.27-3.1h0A3.33,3.33,0,0,0,31,3.25,3.12,3.12,0,0,0,28,0a3.12,3.12,0,0,0-3,3.25,3.32,3.32,0,0,0,1.25,2.64h0A3.21,3.21,0,0,0,24,9a3.21,3.21,0,0,0-2.27-3.1h0A3.34,3.34,0,0,0,23,3.25,3.12,3.12,0,0,0,20,0a3.12,3.12,0,0,0-3,3.25,3.33,3.33,0,0,0,1.26,2.64h0A3.2,3.2,0,0,0,16,9a3.2,3.2,0,0,0-2.28-3.1h0A3.32,3.32,0,0,0,15,3.25,3.12,3.12,0,0,0,12,0,3.12,3.12,0,0,0,9,3.25a3.35,3.35,0,0,0,1.25,2.64h0A3.21,3.21,0,0,0,8,9a3.2,3.2,0,0,0-2.27-3.1h0A3.32,3.32,0,0,0,7,3.25,3.12,3.12,0,0,0,4,0,3.12,3.12,0,0,0,1,3.25,3.35,3.35,0,0,0,2.27,5.89h0A3.2,3.2,0,0,0,0,9V12.6H1.55A3.89,3.89,0,0,1,5,10.48,3.83,3.83,0,0,1,8,12v.56h3.08a3.87,3.87,0,0,1,3.4-2.12,3.53,3.53,0,0,1,1.52.34,4,4,0,0,1,1.88,1.78H20.6a3.79,3.79,0,0,1,6.8,0h2.72a3.79,3.79,0,0,1,6.8,0H40V12a3.83,3.83,0,0,1,3-1.56,3.89,3.89,0,0,1,3.4,2.12H48V9A3.2,3.2,0,0,0,45.73,5.89Z"/><path class="cls-1" d="M3.23,17.38A3.21,3.21,0,0,0,1,20.48v3.6h1.4A5.18,5.18,0,0,1,9,21.36v-.88a3.19,3.19,0,0,0-2.28-3.1h0a3.34,3.34,0,0,0,1.26-2.65,3.12,3.12,0,0,0-3-3.25,3.13,3.13,0,0,0-3,3.25,3.34,3.34,0,0,0,1.26,2.65h0Z"/><path class="cls-1" d="M12.75,17.38a3.2,3.2,0,0,0-2.27,3.1v1.8a5.39,5.39,0,0,1,1.36,1.8H14A5.27,5.27,0,0,1,18.48,21c0-2.13-.91-3.25-2.27-3.63h0a3.34,3.34,0,0,0,1.26-2.65,3.12,3.12,0,0,0-3-3.25,3.13,3.13,0,0,0-3,3.25,3.34,3.34,0,0,0,1.26,2.65h0Z"/><path class="cls-1" d="M22.27,17.38A3.19,3.19,0,0,0,20,20.48v.7a5.31,5.31,0,0,1,3.43,2.9h2.11A5.3,5.3,0,0,1,28,21.55c0-1,.19-3.48-2.27-4.17h0A3.33,3.33,0,0,0,27,14.73a3.12,3.12,0,0,0-3-3.25,3.12,3.12,0,0,0-3,3.25,3.33,3.33,0,0,0,1.25,2.65h0Z"/><path class="cls-1" d="M31.79,17.38c-1.38.39-2.27,1.51-2.27,3.68a5.23,5.23,0,0,1,5.5,3h2.5v-3.6a3.21,3.21,0,0,0-2.27-3.1h0a3.34,3.34,0,0,0,1.26-2.65,3,3,0,1,0-5.95,0,3.34,3.34,0,0,0,1.26,2.65h0Z"/><path class="cls-1" d="M39,21.86A5,5,0,0,1,41.87,21a5.27,5.27,0,0,1,4.74,3.08H47v-3.6a3.21,3.21,0,0,0-2.27-3.1h0A3.34,3.34,0,0,0,46,14.73a3,3,0,1,0-6,0,3.33,3.33,0,0,0,1.25,2.65h0C38.75,18.1,39,20.8,39,21.86Z"/><path class="cls-1" d="M44,30.33a4.47,4.47,0,0,0,2.2-3.87,4.31,4.31,0,1,0-8.62,0,4.48,4.48,0,0,0,2.19,3.87,5.78,5.78,0,0,0-3.68,5.39,5.77,5.77,0,0,0-3.68-5.39,4.47,4.47,0,0,0,2.2-3.87,4.31,4.31,0,1,0-8.62,0,4.48,4.48,0,0,0,2.19,3.87,5.78,5.78,0,0,0-3.68,5.39,5.77,5.77,0,0,0-3.68-5.39A4.47,4.47,0,0,0,23,26.46a4.31,4.31,0,1,0-8.62,0,4.48,4.48,0,0,0,2.19,3.87,5.78,5.78,0,0,0-3.68,5.39,5.77,5.77,0,0,0-3.68-5.39,4.47,4.47,0,0,0,2.2-3.87A4.39,4.39,0,0,0,7.1,22a4.39,4.39,0,0,0-4.31,4.46A4.48,4.48,0,0,0,5,30.33,5.78,5.78,0,0,0,1.3,35.72V39.3H47.66V35.72A5.77,5.77,0,0,0,44,30.33Z"/></g></g></svg>